<svg xmlns="http://www.w3.org/2000/svg" width="460.866" height="295.881" viewBox="0 0 460.866 295.881">
  <g id="Camada_2" data-name="Camada 2" transform="translate(-0.02)">
    <g id="Camada_3" data-name="Camada 3">
      <path id="Caminho_2193" data-name="Caminho 2193" d="M233.73,105c-71.82,5-134.91,22.55-176.43,41.76C15.45,166.26-4.82,187.44,1,207.16c5.85,19.91,36.12,36.19,76.77,51.15a677.418,677.418,0,0,0,147,34.24c106.59,14.08,207-17.13,232.23-81.17C482.39,147.7,380.56,92.88,233.73,105Z" fill="#eaf4fe"/>
      <path id="Caminho_2194" data-name="Caminho 2194" d="M279.43,145.13l4.95-3.34.56-.7-.83-1.09-1.13.24-.09-3.4-5.52-.5-2.91-1.07,3.37,8.96" fill="#f7b68b"/>
      <path id="Caminho_2195" data-name="Caminho 2195" d="M291.37,110.35l-16.84,24.5s1,3.28,2.32,1.38c.17-.23-.8-.82.29-1.55,4.41-2.92,14.92-7.73,18.61-12a67.357,67.357,0,0,0,8.08-11.88Z" fill="#f7b68b"/>
      <rect id="Retângulo_4410" data-name="Retângulo 4410" width="7.45" height="6.76" transform="matrix(0.616, -0.787, 0.787, 0.616, 277.963, 128.73)" fill="#e7f5fe"/>
      <path id="Caminho_2196" data-name="Caminho 2196" d="M275.27,79.14l15.78,24.6-11.84,22.62s5.84,6.49,7.73,5.36c13-7.77,21.2-29.22,21.2-29.22L283.09,65.79l-7.36-9.66C266.42,55,272.47,81.79,275.27,79.14Z" fill="#163f59"/>
      <path id="Caminho_2197" data-name="Caminho 2197" d="M205.76,78.22s-8.62-5.25-19.34-18c-3.62-4.32-1.84.36-1.23,5.79s11.12,13.42,21,19.15C215,90.19,205.76,78.22,205.76,78.22Z" fill="#f7b68b"/>
      <path id="Caminho_2198" data-name="Caminho 2198" d="M187.28,63.55s1.72-5.81.83-7.26-4.46-6.51-4.46-6.51l-1-1.21s-1.86.48.58,3.86.42,2.43.42,2.43l-3.3-2.16-4.22-2.31-1.76-1.28s-.94-.8-1.32-.79c-1.09,0-.66.92-.66.92l6.43,5.61-7.23-3.44s-1-.27-1.31.2,0,.61,0,.61l7.34,6L173.7,56.9s-1-.24-1.31.21a5.926,5.926,0,0,1-.46.61L186.34,65Z" fill="#f7b68b"/>
      <rect id="Retângulo_4411" data-name="Retângulo 4411" width="7.45" height="6" transform="translate(183.464 66.446) rotate(-36.57)" fill="#e7f5fe"/>
      <path id="Caminho_2199" data-name="Caminho 2199" d="M249.32,63.94s1,4.55-15.61,23c-9.26,10.28-14.23,14.56-20.12,12.95-10.1-2.74-30.39-26.61-30.39-26.61l8.7-10.35S212.67,81,215,81.9c1.45.58,10.46-11.56,19.38-23.94C234.35,58,248.21,62.69,249.32,63.94Z" fill="#163f59"/>
      <path id="Caminho_2200" data-name="Caminho 2200" d="M259.93,37.89c-.47,1.58,0,3.11,1.1,3.43h0c1.07.32,2.32-.7,2.79-2.28l.59-2c.46-1.58,0-3.12-1.1-3.44h0c-1.07-.31-2.32.71-2.79,2.29Z" fill="#f7b68b"/>
      <path id="Caminho_2201" data-name="Caminho 2201" d="M249.3,52.37c.11,2.88,1.54,5.44,3.16,5.63l4.62.2c1.63-.05,3.28-2.47,3.65-5.32q.87-7.08,1.76-14.15c.38-2.83-.48-8.58-2.87-10.37a6.12,6.12,0,0,0-7.07-.31c-2.53,1.57-3.89,7.22-3.76,10.07Z" fill="#ff8c00"/>
      <path id="Caminho_2202" data-name="Caminho 2202" d="M247.22,45c.62,2.71,1.69,3.4,3.63,3.77s2.3.48,4.16.74,4.08-2.34,4.65-4.7c.91-3.91,3.19-7,4.1-10.94.57-2.34-.34-4.5-3.14-6.34-2.56-1.64-5.54-4.9-8.38-4-3.12,1-5,5.57-5,8C247.27,35.48,247.21,40.92,247.22,45Z" fill="#f7b68b"/>
      <path id="Caminho_2203" data-name="Caminho 2203" d="M265.33,30.81l-1.57,3s-2.89-3.57-4.92-6.48c-.64-.91-7.58-1.3-9.32-1.07-1.26.17-1.48,1.78-1.81,2.7-1.18,3.3.69-5.61.69-5.61s2.54-4.12,7-4.27c2.44-.09,3.52,1.38,4.36,3.26.2.44-2.65-.82-2.15-.86a28.75,28.75,0,0,1,3,2.82A15.477,15.477,0,0,0,262,27.14C264.17,30.41,265.33,30.81,265.33,30.81Z" fill="#163f59"/>
      <path id="Caminho_2204" data-name="Caminho 2204" d="M254.85,32.19l-1.92.19.46,1.19-1.54.5-1.76,5.82,2.51.3.55-3.59,1.6-1.74,3.88-.19Z" fill="#ff8c00"/>
      <path id="Caminho_2205" data-name="Caminho 2205" d="M221.46,248.44v6.23l-.68,5.23-2,1.56-1.52.6-.37.91-5.09,4a9.48,9.48,0,0,1-6,.88c-.87-.12.11-2.54.38-2.92a43.452,43.452,0,0,1,3.93-4.57l3.76-5.54,4.19-6.91Z" fill="#161711"/>
      <path id="Caminho_2206" data-name="Caminho 2206" d="M270.48,254.86l-1.14,2.6-.48,2.85.48,4.43,2.43.15,1.78-.54,1.26.73a93.374,93.374,0,0,0,9.48.63c4.24-.22,6.53-.85,7.29-1.74.42-.5-1.62-1.23-2.28-1.27a25,25,0,0,1-8-2.33l-3.4-3.24-.81-2.43Z" fill="#161711"/>
      <path id="Caminho_2207" data-name="Caminho 2207" d="M235.31,59.14,250,52.85l5,3,9-2.32s10.48,6.29,11.53,6.29-.35,58.64-.35,58.64l-26.53,8.38-10.13-6.64Z" fill="#d1dbea"/>
      <path id="Caminho_2208" data-name="Caminho 2208" d="M239.74,117.56l-27.1,137.6,9.77-.31,15.01-44.37,3.43-13.27,15.81-52.5,4-28.15Z" fill="#163f59"/>
      <path id="Caminho_2209" data-name="Caminho 2209" d="M268.19,255.77l-2.1-55.64-4.64-25.18-5.98-34.59,2.4-23.71,21.26-1.34-.84,39.86,2.17,35.72.43,13.5-1.12,53.38Z" fill="#163f59"/>
      <path id="Caminho_2210" data-name="Caminho 2210" d="M244.43,142.2l3.1-75.78,2.1-13.2-15.28,4.74-.97,79.18Z" fill="#194866"/>
      <path id="Caminho_2211" data-name="Caminho 2211" d="M261.14,52.85l4.08,7.8,2.56,57.84-3.98,23.24,17.45-1.83-1.61-72.74-3.91-11.03Z" fill="#194866"/>
      <path id="Caminho_2212" data-name="Caminho 2212" d="M244.39,95.79,239.85,73.1l2.79-4.19L240.2,58.09l2.44-3.49,7.33-2.44-2.44,25.48-1.4,33.51Z" fill="#163f59"/>
      <path id="Caminho_2213" data-name="Caminho 2213" d="M261.18,52.65c-.35,1.05,3.69,8.47,3.69,8.47l2.21,42,5.23-31.07-1.39-5.58L272.31,63,268,54.15Z" fill="#163f59"/>
      <path id="Caminho_2214" data-name="Caminho 2214" d="M254.51,55.54l-3.57,4-2.78-6.76.89-1.78Z" fill="#b0bfde"/>
      <path id="Caminho_2215" data-name="Caminho 2215" d="M261.11,50.88l-5.25,4.67,3.47,4.17,2.92-6.75Z" fill="#b0bfde"/>
      <path id="Caminho_2216" data-name="Caminho 2216" d="M90.49,176.89s-9.79-8.79-2.24-22.74c4.19-7.74,2-28.88-11.56-22.32s-9.88-1.61-17.54,2-11,9.14-10,15.13.36,17.39-4.34,19.59-27.25,14.46-12.72,30S99.44,202.66,90.49,176.89Z" fill="#212957"/>
      <path id="Caminho_2217" data-name="Caminho 2217" d="M83.78,216.74s.81,2.61.94,3.19,2.81.72,5.47.14,19.83-16.17,21.5-17.38a44.16,44.16,0,0,1,6.71-3.64c1-.34,1.2-3.4.22-5.12-.65-1.14-1.26-2.13-1.92-2.36a1,1,0,0,0-1.06.34c-1.09,1.09-5.22,6.58-5.22,6.58S99,203.27,94.71,206.38,85.44,213.24,83.78,216.74Z" fill="#ff8c00"/>
      <path id="Caminho_2218" data-name="Caminho 2218" d="M85,176.21s8.49,27.14,8,30.71-3.19,14.59-6.49,12.78-8-12.1-9.35-20.3S61.48,164.32,85,176.21Z" fill="#dd000b"/>
      <path id="Caminho_2219" data-name="Caminho 2219" d="M76.42,173.17c-1.11,0-14.11-1.38-14.11-1.38l-8.86,3.87s-4.42-.28-3.32,6.92,12.73,35.13,14.94,36.52,19.37,3.87,22.14,2.76A38.919,38.919,0,0,1,95,220.2s0-20.19.56-21.3.83-7.75-5.54-12.73C85.59,182.74,76.42,173.17,76.42,173.17Z" fill="#fd2227"/>
      <path id="Caminho_2220" data-name="Caminho 2220" d="M57.05,179s18.54,24.9,18.81,28.5-3,14.11-6.64,13S59,210.24,55.94,202.5,42.39,169.57,57.05,179Z" fill="#dd000b"/>
      <path id="Caminho_2221" data-name="Caminho 2221" d="M62.03,153.8l1.66,17.99,11.62,1.38-2.76-11.34Z" fill="#f7b68b"/>
      <path id="Caminho_2222" data-name="Caminho 2222" d="M74.09,167.81c-.31-.13-.64-.27-1-.45a48.341,48.341,0,0,1-10.38-7l-.69-8L72.54,161Z" fill="#ff8c00"/>
      <path id="Caminho_2223" data-name="Caminho 2223" d="M83.06,143.57s.83,9.13-1.66,14.38-2.22,9.41-7.75,6.64-11.9-7.47-13.28-10.51.83-7.19,4.43-5.26,3.32-.83,6.91-.27S82,148.55,83.06,143.57Z" fill="#f7b68b"/>
      <path id="Caminho_2224" data-name="Caminho 2224" d="M80,224.91s29.88-13,42.06-15.5,22.67-9.13,17.69,4.15-38.17,37.08-38.17,37.08S69,258.11,80,224.91Z" fill="#281616"/>
      <path id="Caminho_2225" data-name="Caminho 2225" d="M124.28,214.12s-12.17,6.36-15.49,13.55" fill="none" stroke="#7e89fd" stroke-miterlimit="10" stroke-width="0.389"/>
      <path id="Caminho_2226" data-name="Caminho 2226" d="M112.36,201.51h-7a1,1,0,0,1-.91-1.42l5.72-15.71a2.26,2.26,0,0,1,1.94-1.43h7a1,1,0,0,1,.9,1.43l-5.72,15.71a2.24,2.24,0,0,1-1.93,1.42Z" fill="#281617"/>
      <path id="Caminho_2227" data-name="Caminho 2227" d="M68.1,214.28s.24,2.72.24,3.31,2.6,1.3,5.31,1.3,22.82-11.59,24.71-12.41a42.559,42.559,0,0,1,7.33-2.13c1.06-.12,1.89-3.07,1.3-5-.39-1.25-.78-2.34-1.38-2.7a1,1,0,0,0-1.1.1c-1.3.83-6.5,5.32-6.5,5.32s-12.18,2.25-17,4.38S70.46,211.21,68.1,214.28Z" fill="#f7b68b"/>
      <path id="Caminho_2228" data-name="Caminho 2228" d="M111.84,197.49l-6.23-.81,1.38,2.7-.83,4.14,3.43.59s.47-.59-.12-.82l-1.42-.6s1.66-.23,2.37-.35.82-.35.82-.71-.7-.59-.7-.59,1.3-.47,1.41-.83.36-.83.12-1.18S112.19,197.73,111.84,197.49Z" fill="#ff8c00"/>
      <path id="Caminho_2229" data-name="Caminho 2229" d="M120.27,189.8c0-.83-5,.92-5,.92a6,6,0,0,0-.73,1.85,12.44,12.44,0,0,1-1.66,3.5,10.73,10.73,0,0,0,3.13,2.21,8.731,8.731,0,0,0,2,.37c.83,0,2.76-4.7,3-5.53S120.27,190.07,120.27,189.8Z" fill="#f7b68b"/>
      <path id="Caminho_2230" data-name="Caminho 2230" d="M123.73,241s7.19,1.11,8.85.56,10-.83,13,1.1,5.26,6.64-4.15,8.58-21.85.28-23.51-.83S121.51,239.85,123.73,241Z" fill="#c5e1f9"/>
      <path id="Caminho_2231" data-name="Caminho 2231" d="M124.83,240.4S89.7,215,83.06,211.9s-18-8.85-20.75-2.76S59,223.52,60.37,231s14.68,16.63,24.35,17.43c3.32.28.83-12.72.83-12.72l33.2,13.55Z" fill="#3b47bc"/>
      <path id="Caminho_2232" data-name="Caminho 2232" d="M118.47,245.66s-48.69-18-51.18-20.48-.28,9.69.55,12.73" fill="none" stroke="#7e89fd" stroke-miterlimit="10" stroke-width="0.389"/>
      <path id="Caminho_2233" data-name="Caminho 2233" d="M93,243.17s5.53-5,9.13-5.54,8.3-2.21,9.4,1.66-4.15,10.79-11.62,12.45-9.62,3.37-13.55,1.94c-3-1.11-3.88-5-3.32-6.92S89.7,244.27,93,243.17Z" fill="#c5e1f9"/>
      <path id="Caminho_2234" data-name="Caminho 2234" d="M280.81,46.44a4.22,4.22,0,0,1-4.22-4.22V39.4h-9.86l9.86-9.85V4.22A4.22,4.22,0,0,1,280.81,0h40.81a4.22,4.22,0,0,1,4.22,4.22v38a4.22,4.22,0,0,1-4.22,4.22Z" fill="#0561fc"/>
      <path id="Caminho_2235" data-name="Caminho 2235" d="M305,18.7a3.52,3.52,0,1,0-4.91,0H294v5.08a3.545,3.545,0,1,1,0,4.91v5.08h17.1V18.7Z" fill="#fff"/>
      <path id="Caminho_2236" data-name="Caminho 2236" d="M135.56,157.3V133.48a3.19,3.19,0,0,1,3.19-3.19h30.14a3.19,3.19,0,0,1,3.19,3.19v7.13l1.6,1.59,3.19,3.2-3.19,3.19-1.6,1.59v7.12a3.19,3.19,0,0,1-3.19,3.19H138.75a3.19,3.19,0,0,1-3.19-3.19Z" fill="#ff8c00"/>
      <g id="icon_project.1819b2ec" data-name="icon project.1819b2ec">
        <path id="Caminho_1" data-name="Caminho 1" d="M157.76,150.75v-1.59h-.54v-2a2.26,2.26,0,0,1-.84-1.42h-7.12v-1.18h7.1v-.67a.8.8,0,0,0-.34-.65,6,6,0,0,1-1.13-1.06h-5.63V141h4.89a5.76,5.76,0,0,1-.52-2.38,5.342,5.342,0,0,1,.05-.69H146.8v18h12.27v-5.17Zm-1.15,2.09h-7.35v-1.18h7.35Zm0-3.57h-7.35V148.1h7.35Z" fill="#fff"/>
        <rect id="Retângulo_4407" data-name="Retângulo 4407" width="1.65" height="0.9" transform="translate(158.49 149.12)" fill="#fff"/>
        <rect id="Retângulo_4408" data-name="Retângulo 4408" width="2.72" height="0.9" transform="translate(157.95 147.54)" fill="#fff"/>
        <path id="Caminho_2" data-name="Caminho 2" d="M159.37,133.64a4.95,4.95,0,0,0-2.93,9,1.54,1.54,0,0,1,.65,1.23v1.51a1.5,1.5,0,0,0,1.51,1.51H160a1.5,1.5,0,0,0,1.51-1.51h0v-1.51a1.49,1.49,0,0,1,.65-1.23,4.95,4.95,0,0,0-2.82-9Z" fill="#fff"/>
      </g>
      <path id="Caminho_2237" data-name="Caminho 2237" d="M122.78,92.35H85.94a4.1,4.1,0,0,0-4.1,4.09v26.62a4.1,4.1,0,0,0,4.1,4.09H90v8.19l9.21-8.19h23.54a4.1,4.1,0,0,0,4.1-4.09V96.44a4.1,4.1,0,0,0-4.07-4.09Z" fill="#1351b4"/>
      <path id="Caminho_3" data-name="Caminho 3" d="M116.6,97.71H92.12a1.72,1.72,0,0,0-1.73,1.73h0v14.14a1.72,1.72,0,0,0,1.73,1.73H116.6a1.72,1.72,0,0,0,1.73-1.73V99.44a1.72,1.72,0,0,0-1.73-1.73ZM104,113.5c-.2,0-.24-.09-1.06-.61a9.74,9.74,0,0,0-8-.93,1.22,1.22,0,0,1-.9-.08.75.75,0,0,1-.43-.64V101a.8.8,0,0,1,.61-.72,12.16,12.16,0,0,1,9.77,1.08V113.5Zm11-2.26a.73.73,0,0,1-.43.64,1.23,1.23,0,0,1-.9.08,9.74,9.74,0,0,0-8,.94,4.61,4.61,0,0,1-1.08.61V101.37a12.1,12.1,0,0,1,9.76-1.09.8.8,0,0,1,.61.71Z" fill="#fff"/>
      <path id="Caminho_4" data-name="Caminho 4" d="M105.73,116h-3.07v2.77H95.57v1.18h17.57v-1.18h-7.41Z" fill="#fff"/>
      <path id="Caminho_2238" data-name="Caminho 2238" d="M222,164.86c4.94,1.28,12.14,4.48,13.84,13.09,2.55,12.93-1.63,31.65,7,50.06,2.77,5.87-50.74,15.41-50.74,15.41L183.53,178s12.34-10.18,15-11.22C204,164.62,212.18,162.3,222,164.86Z" fill="#eaf4fe"/>
      <path id="Caminho_2239" data-name="Caminho 2239" d="M184,178.22c-2.39,5.17-9.32,36.26-3.75,44,.64.89-3.2,2-2.71,6,.07.66,1.06,3.83,1.06,3.83l4.79,1.52,15.12-7.62-2.64-3.56h-1.33a3,3,0,0,1-.78-2.66c.42-1.42-3.17-4-7.55-28.58C185,183.78,184.55,177.08,184,178.22Z" fill="#c5e1f9"/>
      <path id="Caminho_2240" data-name="Caminho 2240" d="M187.54,221.06l4.39-.73,1.78-.2a3.25,3.25,0,0,0,.86,2.14l-3.38-.07-4,.65-4.91,2.47Z" fill="#eaf4fe"/>
      <path id="Caminho_2241" data-name="Caminho 2241" d="M191.65,223.94a13.06,13.06,0,0,0-6.23,1.72c-2.18,1.35-4.18,4.27-2.18,5.85a32.271,32.271,0,0,0,5.09,3.05S196,234.77,191.65,223.94Z" fill="#c4d1e1"/>
      <path id="Caminho_2242" data-name="Caminho 2242" d="M183.25,231.62l2.05-.44s7-.64,8.06-.09,4.24,2.74,4.24,2.74l.67.61a3.4,3.4,0,0,1-3.7-.5c-2.13-1.49-2.31-.35-2.31-.35l.36,1.88v2.41l.33,1s.3.55.06.75a1.32,1.32,0,0,1-1.33.3l-2.15-3.75-.59,4.08a1.48,1.48,0,0,1-1,.7c-.63.13-.63,0-.63,0l-.49-1a1.25,1.25,0,0,1-.42.71,2.08,2.08,0,0,1-1.29.36l.21-4.29-.88,2.18a1.68,1.68,0,0,1-1,.7l-.9.22Z" fill="#e4eef3"/>
      <path id="Caminho_2243" data-name="Caminho 2243" d="M213,214.83s-5.13,13-17.43,16.44c-2.14.6-3.44,2.9-2.41,3.64,1.31,1,3.11,1.16,6.2,1.15,6.43,0,15.19-2,21.25-7.88,9-8.68,11.79-12.62,10.88-17S213,214.83,213,214.83Z" fill="#f7b68b"/>
      <path id="Caminho_2244" data-name="Caminho 2244" d="M233.47,173.86c2.6,4.29,4.11,11.17,4.09,21,0,7.62-6.59,20.09-7.6,23.93-.17.64-.57,3.38-.57,3.38l-7.29,7.15-14.61-9.9,4.45-6.82,1.32.14a22.708,22.708,0,0,0,.62-5.23c-.23-1.46,4-21.11,6.16-33.71C221.25,166.55,230.88,169.62,233.47,173.86Z" fill="#c5e1f9"/>
      <path id="Caminho_2245" data-name="Caminho 2245" d="M220.39,212.5l-4.26-1.32-1.73-.43a3.25,3.25,0,0,1-1.14,2l3.35.38,3.87,1.18,4.53,3.12Z" fill="#eaf4fe"/>
      <path id="Caminho_2246" data-name="Caminho 2246" d="M196.47,231.23l-7.44-2s-2.11,2.83-1.7,3.53,0,4.89,0,4.89l3.61,3.07,2.93-1s.2-1.28-.8-1.4.68-.86,1.2-1.16S199.1,234.62,196.47,231.23Z" fill="#f7b68b"/>
      <path id="Caminho_2247" data-name="Caminho 2247" d="M198.13,156.09s11.05-2.65,14-5.4-3.59-3.51-1.81-8.3c2.58-7-5.29-17.44-8.07-9.77s1.15,10.43.91,6.79,1.66-13.45-8.66-12-13.42,8.29-4.57,10.9-10.87-8.32-10-1.53,6.95,5.56,9,5.33-8.71-4.53-7,2.57S190,154.44,198.13,156.09Z" fill="#212a54"/>
      <path id="Caminho_2248" data-name="Caminho 2248" d="M206.7,155.33s1.1,6.36,2.34,9.24c2.24,5.19,5,13.73-11.87,9.71-2.84-.67,5.18-9.16,1.17-13.35S206.7,155.33,206.7,155.33Z" fill="#f7b68b"/>
      <path id="Caminho_2249" data-name="Caminho 2249" d="M208.11,155.24s-2.21,2.36.69,10.16c0,0-5.5,2.73-9.05-.42a4.78,4.78,0,0,0-1.41-4C194.32,156.75,208.11,155.24,208.11,155.24Z" fill="#ff8c00"/>
      <path id="Caminho_2250" data-name="Caminho 2250" d="M189.61,141.31s-1.44,5.34.44,13.44,6.16,10,12.85,7.94,6.62-10.29,6.22-12.27,6.17-1.26,4.13-5.66-4.59-2.28-4.68-.42-.95,4.32-2.59,3,.28-8.78-2.84-7.23S194.51,144,189.61,141.31Z" fill="#f7b68b"/>
      <path id="Caminho_2251" data-name="Caminho 2251" d="M141.59,244.78c1.82,5,33.6,23.47,44.25,22.37l32.1,1.54c27.31-3.34,40.22-45.75,40.22-45.75-1.09-10.65-28,4.78-37.57,9.57-15.18,7.57-24.78,8-24.78,8-10.15,1-21.93-6.8-34.74-7.07C147,233.1,138.73,236.88,141.59,244.78Z" fill="#281616"/>
      <path id="Caminho_2252" data-name="Caminho 2252" d="M211.43,239.69h0v-1.34l-55.26-1v1.34h0l.14.25c.69,1.17,2,1.4,3.42,1.43l48.08.87c1.46,0,2.74-.15,3.48-1.3Z" fill="#b6c2c9"/>
      <path id="Caminho_2253" data-name="Caminho 2253" d="M198.11,239.67h0l.13.21a2.2,2.2,0,0,0,.8.69l8.4.16c1.41,0,2.63-.12,3.33-1l.14-.2h0v-.66l-12.8-.23Z" fill="#d8e5ed"/>
      <rect id="Retângulo_4412" data-name="Retângulo 4412" width="0.94" height="27.62" transform="translate(163.046 238.666) rotate(-88.96)" fill="#879ba6"/>
      <path id="Caminho_2254" data-name="Caminho 2254" d="M197.83,238l-6.66-27.29a1.82,1.82,0,0,0-1.62-1.33l-38.77-.71a1,1,0,0,0-1,1.28l6.68,27.29Z" fill="#d9e1e4"/>
      <path id="Caminho_2255" data-name="Caminho 2255" d="M176.17,223.39a1.88,1.88,0,0,1-1.9,2.48,3.5,3.5,0,0,1-3.12-2.57,1.87,1.87,0,0,1,1.89-2.48,3.48,3.48,0,0,1,3.13,2.57Z" fill="#b6c2c9"/>
      <path id="Caminho_2256" data-name="Caminho 2256" d="M222.85,275.75c-3.82.66-6.74-3.78-6.74-3.78l-9.88-7.78,2.09-5.26,19.24,8.65S226.67,275.1,222.85,275.75Z" fill="#f7b68b"/>
      <path id="Caminho_2257" data-name="Caminho 2257" d="M216.09,271.67a9.841,9.841,0,0,0,.73,2.48c.74,2,1.64,2.73,2.6,3,3.68,1.08,6.34.54,15.21,2.25s11.54.41,14.13-3.67-.1-7.3-4.42-7.63c-6.27-.47-9.75.24-13-.26-3.42-.51-3.64-1.28-5.63-2.51s-3.61,5.71-1.83,7.3C225.43,274.06,217.43,274.27,216.09,271.67Z" fill="#281617"/>
      <path id="Caminho_2258" data-name="Caminho 2258" d="M216.11,271.79a.558.558,0,0,1,0-.12l.09.13Z" fill="#f7b68b"/>
      <path id="Caminho_2259" data-name="Caminho 2259" d="M222.18,263.06s-67.9-27.92-71.78-28c-13.12-.12-10.11,13.15-3.46,19.39,7.83,7.37,67.45,20.85,67.45,20.85Z" fill="#3b47bc"/>
      <path id="Caminho_2260" data-name="Caminho 2260" d="M195.24,267.9l18.54-17.57-7.9-7.82-20.24,21.27Z" fill="#f7b68b"/>
      <path id="Caminho_2261" data-name="Caminho 2261" d="M191.4,254.08s47.17-43.23,50.35-44.52c10.77-4.37,17.44,7.52,17.06,11.62-.49,5.33-48.41,48.64-48.41,48.64Z" fill="#3b47bc"/>
      <path id="Caminho_2262" data-name="Caminho 2262" d="M163.45,269.28c-1.11,1-1.3,4-1.3,4s15.75,6,21.28,6.06a27.4,27.4,0,0,0,6.49-1.23c.42-.11,1.38-1.19,1.78-1.31.76-.22.93.51,1.58.31A18.856,18.856,0,0,0,196.2,276c3.32-7.07,2.19-10.55,2.19-10.55s-7.23,2.07-6,.46c2.65-3.47-4.93-7-6.62-5.17C179,268.16,166.64,266.33,163.45,269.28Z" fill="#281617"/>
    </g>
  </g>
</svg>
