<?xml version="1.0" encoding="utf-8"?>
<!-- Generator: Adobe Illustrator 25.2.3, SVG Export Plug-In . SVG Version: 6.00 Build 0)  -->
<svg version="1.1" id="Layer_1" xmlns="http://www.w3.org/2000/svg" xmlns:xlink="http://www.w3.org/1999/xlink" x="0px" y="0px"
	 viewBox="0 0 1600 1200" style="enable-background:new 0 0 1600 1200;" xml:space="preserve">
<style type="text/css">
	.st0{opacity:0.3;}
	.st1{fill:#DBE8FB;}
	.st2{fill:#888888;}
	.st3{fill:#FFFFFF;}
	.st4{fill:url(#SVGID_1_);}
	.st5{fill:url(#SVGID_2_);}
	.st6{fill:url(#SVGID_3_);}
	.st7{fill:url(#SVGID_4_);}
	.st8{fill:url(#SVGID_5_);}
	.st9{fill:url(#SVGID_6_);}
	.st10{fill:url(#SVGID_7_);}
	.st11{fill:url(#SVGID_8_);}
	.st12{fill:url(#SVGID_9_);}
	.st13{fill:url(#SVGID_10_);}
	.st14{fill:url(#SVGID_11_);}
	.st15{fill:url(#SVGID_12_);}
	.st16{fill:url(#SVGID_13_);}
	.st17{fill:url(#SVGID_14_);}
	.st18{fill:url(#SVGID_15_);}
	.st19{fill:url(#SVGID_16_);}
	.st20{fill:#FDBFBA;}
	.st21{fill:url(#SVGID_17_);}
	.st22{fill:url(#SVGID_18_);}
	.st23{fill:url(#SVGID_19_);}
	.st24{fill:url(#SVGID_20_);}
	.st25{fill:url(#SVGID_21_);}
	.st26{fill:url(#SVGID_22_);}
	.st27{fill:url(#SVGID_23_);}
	.st28{fill:#473765;}
	.st29{opacity:0.12;}
</style>
<g class="st0">
	<path class="st1" d="M1518.8,866.4c-8.9-15.5-23-27.9-42.4-37.1c-15.7-7.5-34.6-12.8-56.8-15.8c-28.6-4-63.8-5.3-105.6-3.8
		c-8.6,0.3-26.3,1-53,2.3c-22.1,1.1-39.8,1.8-53,2c-40.4,0.8-75.9-1.7-106.3-7.5c-37.8-7.2-70.4-19.7-97.7-37.5
		c-10.1-6.6-20.8-14.8-32.1-24.8c-6.8-5.9-16.8-15.2-29.9-27.8c-13.1-12.6-23-21.8-29.8-27.8c-11.3-9.9-22-18.2-32.2-24.8
		c-28.5-18.6-62.5-31.3-101.9-38c-32.3-5.5-69.2-7.1-110.7-4.8c-24.7,1.4-46,3.9-64.1,7.4c-22.8,4.4-43.1,11-60.9,19.6
		c-20.3,9.7-37.6,22.3-52,37.9c-1.1,1.2-2.2,2.4-3.2,3.5c-5,2.4-10,5.2-15,8.4c-5.9,3.7-13,8.7-21.3,14.8
		c-9.2,7-16.1,12.2-20.8,15.6c-16.8,12.3-31.6,20.7-44.5,25.3c-10,3.6-21.9,4.9-35.1,7.5C105,809,245,998,245,998h1247.7
		c2.3-2.8,4.6-5.6,6.8-8.6c14.3-19.2,23.5-39.4,27.8-60.5C1531.9,905.2,1529.1,884.4,1518.8,866.4z"/>
</g>
<g>
	<g>
		<path class="st2" d="M492.3,848.9h-59v-0.5h59c17.6,0,31.9-14.3,31.9-31.9v-21.7h0.5v21.7C524.7,834.4,510.1,848.9,492.3,848.9z"
			/>
	</g>
	<g>
		<path class="st2" d="M456.1,472.7h-22.8v-0.5h22.8c16.9,0,30.7-13.8,30.7-30.7v-31.8h0.5v31.8
			C487.3,458.7,473.3,472.7,456.1,472.7z"/>
	</g>
	<g>
		<path class="st2" d="M433.3,793.7h-73c-27.5,0-49.8-22.3-49.8-49.8v-55h0.5v55c0,27.2,22.1,49.3,49.3,49.3h73V793.7z"/>
	</g>
	<g>
		<path class="st2" d="M475.3,684.6h-40.1v-0.5h40.1c27.2,0,49.3-22.1,49.3-49.3v-35.6h0.5v35.6
			C525.1,662.2,502.8,684.6,475.3,684.6z"/>
	</g>
	<g>
		<path class="st2" d="M433.3,509.8h-52c-27.5,0-49.8-22.3-49.8-49.8v-43.1h0.5v43.1c0,27.2,22.1,49.3,49.3,49.3h52V509.8z"/>
	</g>
	<g>
		<g>
			<polygon class="st3" points="443.7,966.7 422.8,966.7 422.8,367.6 528.9,367.6 528.9,388.5 443.7,388.5 			"/>
			<path class="st2" d="M444,967h-21.4V367.3h106.6v21.4H444V967z M423,966.5h20.4V388.2h85.2v-20.4H423V966.5z"/>
		</g>
	</g>
	<g>
		<g>
			<g>
				<path class="st3" d="M499.6,372.5c0,41.2-33.4,74.5-74.5,74.5c-41.2,0-74.5-33.4-74.5-74.5c0-41.2,33.4-74.5,74.5-74.5
					C466.2,298,499.6,331.4,499.6,372.5z"/>
				<path class="st2" d="M425,447.3c-41.2,0-74.8-33.5-74.8-74.8c0-41.2,33.5-74.8,74.8-74.8c41.2,0,74.8,33.5,74.8,74.8
					C499.8,413.8,466.3,447.3,425,447.3z M425,298.2c-41,0-74.3,33.3-74.3,74.3c0,41,33.3,74.3,74.3,74.3c41,0,74.3-33.3,74.3-74.3
					C499.3,331.6,466,298.2,425,298.2z"/>
			</g>
		</g>
		<g>
			<g>
				<path class="st3" d="M402.1,388.8c0,32.9-26.7,59.6-59.6,59.6c-32.9,0-59.6-26.7-59.6-59.6c0-32.9,26.7-59.6,59.6-59.6
					C375.5,329.2,402.1,355.9,402.1,388.8z"/>
				<path class="st2" d="M342.5,448.6c-33,0-59.8-26.8-59.8-59.8s26.8-59.8,59.8-59.8c33,0,59.8,26.8,59.8,59.8
					S375.5,448.6,342.5,448.6z M342.5,329.4c-32.7,0-59.4,26.6-59.4,59.4s26.6,59.4,59.4,59.4c32.7,0,59.4-26.6,59.4-59.4
					S375.3,329.4,342.5,329.4z"/>
			</g>
		</g>
		<g>
			<g>
				<path class="st3" d="M553,398.6c0,27.5-22.3,49.8-49.8,49.8c-27.5,0-49.8-22.3-49.8-49.8c0-27.5,22.3-49.8,49.8-49.8
					C530.7,348.8,553,371.1,553,398.6z"/>
				<path class="st2" d="M503.2,448.6c-27.6,0-50-22.5-50-50c0-27.6,22.4-50,50-50s50,22.4,50,50
					C553.2,426.2,530.8,448.6,503.2,448.6z M503.2,349c-27.3,0-49.6,22.2-49.6,49.5c0,27.3,22.2,49.6,49.6,49.6s49.6-22.2,49.6-49.6
					C552.7,371.3,530.5,349,503.2,349z"/>
			</g>
		</g>
	</g>
	<g>
		<g>
			<g>
				<path class="st3" d="M556.1,575.7c0,23.8-19.3,43.1-43.1,43.1s-43.1-19.3-43.1-43.1c0-23.8,19.3-43.1,43.1-43.1
					S556.1,551.9,556.1,575.7z"/>
				<path class="st2" d="M512.9,619.1c-23.9,0-43.4-19.5-43.4-43.4c0-23.9,19.5-43.4,43.4-43.4c23.9,0,43.4,19.5,43.4,43.4
					C556.3,599.6,536.9,619.1,512.9,619.1z M512.9,532.8c-23.6,0-42.9,19.2-42.9,42.9s19.2,42.9,42.9,42.9
					c23.7,0,42.9-19.2,42.9-42.9S536.6,532.8,512.9,532.8z"/>
			</g>
		</g>
		<g>
			<g>
				<path class="st3" d="M488.4,593.3c0,14.6-11.8,26.4-26.4,26.4c-14.6,0-26.4-11.8-26.4-26.4c0-14.6,11.8-26.4,26.4-26.4
					C476.6,567,488.4,578.8,488.4,593.3z"/>
				<path class="st2" d="M462,619.9c-14.7,0-26.6-11.9-26.6-26.6c0-14.7,11.9-26.6,26.6-26.6c14.7,0,26.6,11.9,26.6,26.6
					C488.6,608,476.7,619.9,462,619.9z M462,567.2c-14.4,0-26.1,11.7-26.1,26.1s11.7,26.1,26.1,26.1c14.4,0,26.1-11.7,26.1-26.1
					S476.4,567.2,462,567.2z"/>
			</g>
		</g>
		<g>
			<g>
				<path class="st3" d="M591.2,589.7c0,16.5-13.4,30-30,30c-16.5,0-30-13.4-30-30c0-16.5,13.4-30,30-30
					C577.8,559.8,591.2,573.2,591.2,589.7z"/>
				<path class="st2" d="M561.2,619.9c-16.7,0-30.2-13.6-30.2-30.2c0-16.7,13.5-30.2,30.2-30.2c16.7,0,30.2,13.5,30.2,30.2
					C591.4,606.4,577.9,619.9,561.2,619.9z M561.2,560c-16.4,0-29.7,13.3-29.7,29.7s13.3,29.7,29.7,29.7c16.4,0,29.7-13.3,29.7-29.7
					S577.6,560,561.2,560z"/>
			</g>
		</g>
	</g>
	<g>
		<g>
			<g>
				<path class="st3" d="M367.3,680.6c0,23.2-18.8,41.9-41.9,41.9c-23.2,0-41.9-18.8-41.9-41.9c0-23.2,18.8-41.9,41.9-41.9
					C348.5,638.7,367.3,657.5,367.3,680.6z"/>
				<path class="st2" d="M325.3,722.8c-23.3,0-42.2-18.9-42.2-42.2s18.9-42.2,42.2-42.2c23.3,0,42.2,18.9,42.2,42.2
					S348.6,722.8,325.3,722.8z M325.3,638.9c-23,0-41.7,18.7-41.7,41.7s18.7,41.7,41.7,41.7c23,0,41.7-18.7,41.7-41.7
					S348.3,638.9,325.3,638.9z"/>
			</g>
		</g>
		<g>
			<g>
				<path class="st3" d="M312.2,689.1c0,18.9-15.3,34.2-34.2,34.2c-18.9,0-34.2-15.3-34.2-34.2c0-18.9,15.3-34.2,34.2-34.2
					C296.9,654.8,312.2,670.1,312.2,689.1z"/>
				<path class="st2" d="M277.9,723.5c-19,0-34.5-15.5-34.5-34.5c0-19,15.5-34.5,34.5-34.5c19,0,34.5,15.5,34.5,34.5
					C312.4,708.1,297,723.5,277.9,723.5z M277.9,655.1c-18.7,0-34,15.3-34,34c0,18.8,15.3,34,34,34c18.7,0,34-15.3,34-34
					C311.9,670.3,296.7,655.1,277.9,655.1z"/>
			</g>
		</g>
		<g>
			<g>
				<path class="st3" d="M398.1,695.4c0,15.4-12.5,27.9-27.9,27.9c-15.4,0-27.9-12.5-27.9-27.9c0-15.4,12.5-27.9,27.9-27.9
					C385.7,667.6,398.1,680,398.1,695.4z"/>
				<path class="st2" d="M370.3,723.5c-15.5,0-28.1-12.6-28.1-28.1s12.6-28.1,28.1-28.1c15.5,0,28.1,12.6,28.1,28.1
					S385.8,723.5,370.3,723.5z M370.3,667.8c-15.2,0-27.6,12.4-27.6,27.6s12.4,27.6,27.6,27.6c15.2,0,27.6-12.4,27.6-27.6
					S385.5,667.8,370.3,667.8z"/>
			</g>
		</g>
	</g>
	<g>
		<g>
			<g>
				<path class="st3" d="M564.3,763.7c0,21.4-17.4,38.8-38.8,38.8c-21.4,0-38.8-17.4-38.8-38.8c0-21.4,17.4-38.8,38.8-38.8
					C546.9,724.8,564.3,742.2,564.3,763.7z"/>
				<path class="st2" d="M525.5,802.7c-21.5,0-39.1-17.5-39.1-39.1c0-21.5,17.5-39.1,39.1-39.1c21.5,0,39.1,17.5,39.1,39.1
					C564.6,785.2,547,802.7,525.5,802.7z M525.5,725.1c-21.3,0-38.6,17.3-38.6,38.6s17.3,38.6,38.6,38.6c21.3,0,38.6-17.3,38.6-38.6
					S546.8,725.1,525.5,725.1z"/>
			</g>
		</g>
		<g>
			<g>
				<path class="st3" d="M522.6,768.5c0,19.1-15.5,34.6-34.6,34.6c-19.1,0-34.6-15.5-34.6-34.6c0-19.1,15.5-34.6,34.6-34.6
					C507.1,734,522.6,749.4,522.6,768.5z"/>
				<path class="st2" d="M488.1,803.3c-19.2,0-34.8-15.6-34.8-34.8s15.6-34.8,34.8-34.8c19.2,0,34.8,15.6,34.8,34.8
					S507.2,803.3,488.1,803.3z M488.1,734.2c-18.9,0-34.3,15.4-34.3,34.3s15.4,34.3,34.3,34.3c18.9,0,34.3-15.4,34.3-34.3
					S507,734.2,488.1,734.2z"/>
			</g>
		</g>
		<g>
			<g>
				<path class="st3" d="M583,781.1c0,12.2-9.8,22-22,22c-12.2,0-22-9.9-22-22c0-12.2,9.9-22,22-22C573.1,759.1,583,768.9,583,781.1
					z"/>
				<path class="st2" d="M561,803.3c-12.3,0-22.3-10-22.3-22.3c0-12.3,10-22.3,22.3-22.3c12.3,0,22.3,10,22.3,22.3
					C583.2,793.4,573.2,803.3,561,803.3z M561,759.3c-12,0-21.8,9.8-21.8,21.8c0,12,9.8,21.8,21.8,21.8c12,0,21.8-9.8,21.8-21.8
					C582.7,769.1,573,759.3,561,759.3z"/>
			</g>
		</g>
	</g>
</g>
<g>
	<g>
		<path class="st3" d="M1385.7,652.4L1257.3,770l-1.1-37l50.4-102.3c0,0-8.5-3.3-9-2.4l-42.5,77.5c-5-169.4-4-163.6-5.6-163.6
			c-1.7,0-1-2.5-2.9,64.2l-27.9-24.5c-1.8-1.6-4.4,0.8-2.9,2.8l24.3,38.7l-0.8,229.1l-51.4-66.5l-1.9-84.5
			c-0.3-4.8-10.4-4.2-10.7,0.6l0.4,69l-60.9-79.7c-1.5-1.9-8.9,0-7.6,2.1l131,193.4l-4.2,89.8h30.9l-6.8-177.5l43.9-48.8l50.5,0.3
			c4,0,4.5-5.9,0.6-6.5l-39.4-6.8l74.2-82.4C1389.3,653.1,1387.2,651,1385.7,652.4z"/>
		<path class="st2" d="M1265.2,976.7h-31.5l0-0.3l4.2-89.7l-131-193.3c-0.2-0.3-0.6-1.1,0.7-2c1.8-1.3,6.1-2,7.4-0.4l60.3,79
			l-0.4-68.1c0.2-2.8,3.2-4.2,6.1-4.2c0,0,0,0,0,0c2.5,0,5,1.1,5.1,3.6l1.9,84.4l50.8,65.8l0.8-228.1l-24.3-38.7
			c-0.9-1.1-0.5-2.4,0.3-3.1c0.7-0.7,2-1,3.1-0.1l27.4,24c0.5-18.5,0.9-31.5,1.1-41c0.5-19.5,0.6-22,1.3-22.7
			c0.2-0.2,0.5-0.2,0.7-0.2c0.1,0,0.2,0,0.3,0c0.1,0,0.3,0,0.5,0.1c0.7,0.6,0.8,2.9,1.8,41.7c0.7,24.6,1.6,61.7,3.4,121l41.9-76.5
			c0.3-0.5,2.2-0.6,9.4,2.3l0.3,0.1l-0.1,0.3L1256.5,733l1.1,36.3l128-117.1h0c0.9-0.8,2-0.6,2.6,0.1c0.6,0.6,0.9,1.7,0.1,2.6
			l-73.8,82l38.8,6.7c2.2,0.4,3.1,2.3,2.9,3.9c-0.1,1.6-1.3,3.3-3.6,3.3c0,0,0,0,0,0l-50.4-0.3l-43.8,48.6L1265.2,976.7z
			 M1234.3,976.1h30.3l-6.8-177.3l0.1-0.1l44-48.9h0.1l50.5,0.3c0,0,0,0,0,0c1.9,0,2.8-1.4,3-2.7c0.1-1.4-0.6-2.9-2.5-3.2l-39.9-6.9
			l0.4-0.4l74.2-82.4c0.6-0.6,0.4-1.3-0.1-1.8c-0.4-0.4-1.2-0.6-1.8,0h0l-129,118l-1.1-37.7l0-0.1l50.3-102
			c-3.7-1.4-7.9-2.7-8.4-2.4l-43,78.4l0-1.1c-1.8-60-2.8-97.4-3.4-122.1c-0.9-33.8-1.1-40.8-1.6-41.3c0,0,0,0-0.1,0
			c-0.1,0-0.3,0-0.4,0c-0.2,0-0.2,0-0.2,0c-0.5,0.5-0.6,5.1-1.1,22.3c-0.2,9.6-0.6,22.7-1.1,41.6l0,0.6l-28.4-24.9
			c-0.8-0.7-1.7-0.5-2.3,0.1c-0.6,0.5-0.8,1.5-0.2,2.3l24.4,38.8l0,0.1l-0.8,229.9l-52-67.3l0-0.1l-1.9-84.5c-0.1-2.2-2.5-3-4.5-3
			c0,0,0,0,0,0c-2.6,0-5.3,1.3-5.5,3.6l0.4,69.8l-0.5-0.7l-60.9-79.7c-0.9-1.2-4.8-0.7-6.5,0.5c-0.6,0.4-0.8,0.8-0.5,1.2
			l131.1,193.5l0,0.1L1234.3,976.1z"/>
	</g>
	<g>
		<g>
			<circle class="st3" cx="1258.9" cy="542.1" r="121.6"/>
			<path class="st2" d="M1258.9,664c-67.2,0-121.9-54.7-121.9-121.9c0-67.2,54.7-121.9,121.9-121.9c67.2,0,121.9,54.7,121.9,121.9
				C1380.8,609.3,1326.1,664,1258.9,664z M1258.9,420.7c-66.9,0-121.3,54.4-121.3,121.3c0,66.9,54.4,121.3,121.3,121.3
				c66.9,0,121.3-54.4,121.3-121.3C1380.2,475.2,1325.8,420.7,1258.9,420.7z"/>
		</g>
	</g>
	<g>
		<g>
			<path class="st3" d="M1203.7,672.8c0,41.6-33.7,75.2-75.2,75.2c-41.6,0-75.2-33.7-75.2-75.2s33.7-75.2,75.2-75.2
				C1170.1,597.5,1203.7,631.2,1203.7,672.8z"/>
			<path class="st2" d="M1128.5,748.3c-41.7,0-75.5-33.9-75.5-75.5c0-41.7,33.9-75.5,75.5-75.5c41.7,0,75.5,33.9,75.5,75.5
				C1204,714.4,1170.2,748.3,1128.5,748.3z M1128.5,597.8c-41.3,0-74.9,33.6-74.9,74.9c0,41.3,33.6,74.9,74.9,74.9
				c41.3,0,74.9-33.6,74.9-74.9C1203.4,631.4,1169.8,597.8,1128.5,597.8z"/>
		</g>
	</g>
	<g>
		<g>
			<circle class="st3" cx="1359.2" cy="655.5" r="70.5"/>
			<path class="st2" d="M1359.2,726.3c-39,0-70.8-31.7-70.8-70.8c0-39,31.7-70.8,70.8-70.8s70.8,31.7,70.8,70.8
				C1430,694.6,1398.3,726.3,1359.2,726.3z M1359.2,585.4c-38.7,0-70.2,31.5-70.2,70.2s31.5,70.2,70.2,70.2
				c38.7,0,70.2-31.5,70.2-70.2S1397.9,585.4,1359.2,585.4z"/>
		</g>
	</g>
</g>
<g>
	<g>
		<path class="st3" d="M755.1,748l65.2-124.8c7.7-14.8,23.2-24.2,39.9-24.2h238.3c17.3,0,34,7.2,45.9,19.9L1265.3,748h123.4
			c45.2,0,81.8,36.6,81.8,81.7v100.6H611.6V813.4c0-36.1,27.5-65.4,63.6-65.4H755.1z"/>
		<path class="st2" d="M1470.8,930.7H611.2V813.4c0-36.9,28.1-65.8,64-65.8h79.7l65.1-124.6c7.9-15,23.3-24.4,40.3-24.4h238.3
			c17.4,0,34.3,7.3,46.2,20l120.8,128.9h123.2c45.3,0,82.2,36.9,82.2,82.2V930.7z M612.1,929.8h857.9V829.7
			c0-44.8-36.5-81.3-81.3-81.3h-123.6l-0.1-0.1l-120.9-129.1c-11.8-12.6-28.4-19.8-45.5-19.8H860.2c-16.6,0-31.8,9.2-39.5,23.9
			l-65.3,125.1h-80.2c-35.4,0-63.1,28.5-63.1,65V929.8z"/>
	</g>
	<g>
		<rect x="611.6" y="888.5" class="st3" width="837" height="41.8"/>
		<path class="st2" d="M1449,930.7H611.2v-42.7H1449V930.7z M612.1,929.8h836.1V889H612.1V929.8z"/>
	</g>
	<g>
		<path class="st3" d="M584.4,909.4c0,11.5,9.4,20.9,20.9,20.9h50.5c11.5,0,20.9-9.3,20.9-20.9c0-11.5-9.4-20.9-20.9-20.9h-50.5
			C593.7,888.5,584.4,897.9,584.4,909.4z"/>
		<path class="st2" d="M655.7,930.7h-50.5c-11.8,0-21.3-9.6-21.3-21.3c0-11.8,9.6-21.3,21.3-21.3h50.5c11.8,0,21.3,9.6,21.3,21.3
			C677.1,921.2,667.5,930.7,655.7,930.7z M605.3,889c-11.3,0-20.4,9.2-20.4,20.5c0,11.3,9.2,20.4,20.4,20.4h50.5
			c11.3,0,20.4-9.2,20.4-20.4c0-11.3-9.2-20.5-20.4-20.5H605.3z"/>
	</g>
	<g>
		<path class="st3" d="M1414.9,909.4c0,11.5,9.4,20.9,20.9,20.9h34.6c11.5,0,20.9-9.3,20.9-20.9c0-11.5-9.4-20.9-20.9-20.9h-34.6
			C1424.2,888.5,1414.9,897.9,1414.9,909.4z"/>
		<path class="st2" d="M1470.4,930.7h-34.6c-11.8,0-21.3-9.6-21.3-21.3c0-11.8,9.6-21.3,21.3-21.3h34.6c11.8,0,21.3,9.6,21.3,21.3
			C1491.7,921.2,1482.2,930.7,1470.4,930.7z M1435.8,889c-11.3,0-20.4,9.2-20.4,20.5c0,11.3,9.2,20.4,20.4,20.4h34.6
			c11.3,0,20.4-9.2,20.4-20.4c0-11.3-9.2-20.5-20.4-20.5H1435.8z"/>
	</g>
	<g>
		<path class="st3" d="M794.9,744.4c-1.1,2,0.4,4.4,2.7,4.4h172.7c2.8,0,5-2.2,5-5V632.1c0-2.8-2.2-5-5-5H881
			c-15.3,0-29.5,8.6-36.6,22.2L794.9,744.4z"/>
		<path class="st2" d="M970.3,749.3H797.6c-1.2,0-2.3-0.6-3-1.7c-0.6-1.1-0.7-2.3-0.1-3.4v0l49.5-95.1c7.2-13.8,21.4-22.4,37-22.4
			h89.3c3,0,5.5,2.4,5.5,5.5v111.8C975.7,746.9,973.3,749.3,970.3,749.3z M795.3,744.6L795.3,744.6c-0.4,0.8-0.4,1.8,0.1,2.5
			c0.5,0.8,1.3,1.2,2.2,1.2h172.7c2.5,0,4.6-2,4.6-4.6V632.1c0-2.5-2-4.6-4.6-4.6H881c-15.3,0-29.1,8.4-36.2,22L795.3,744.6
			L795.3,744.6z"/>
	</g>
	<g>
		<path class="st3" d="M1227.4,745.3c1.3,1.4,0.3,3.6-1.5,3.6h-210c-2.7,0-4.9-2.2-4.9-4.9V633.6c0-2.7,2.2-4.9,4.9-4.9h75.8
			c15.7,0,30.9,6.5,41.7,17.9L1227.4,745.3z"/>
		<path class="st2" d="M1225.8,749.3h-210c-3,0-5.4-2.4-5.4-5.4V633.6c0-3,2.4-5.4,5.4-5.4h75.8c15.8,0,31.2,6.6,42.1,18l94.1,98.8
			c0.7,0.8,0.9,1.8,0.5,2.8C1227.8,748.7,1226.9,749.3,1225.8,749.3z M1015.8,629.1c-2.5,0-4.5,2-4.5,4.5v110.4c0,2.5,2,4.5,4.5,4.5
			h210c0.8,0,1.3-0.5,1.5-1c0.2-0.5,0.2-1.2-0.3-1.8l-94.1-98.8c-10.8-11.3-25.8-17.8-41.4-17.8H1015.8z"/>
	</g>
	<g>
		<path class="st3" d="M1213,922.6c0,42.2,34.2,76.5,76.5,76.5c42.2,0,76.5-34.2,76.5-76.5c0-42.2-34.2-76.5-76.5-76.5
			C1247.2,846.1,1213,880.4,1213,922.6z"/>
		<path class="st2" d="M1289.5,999.6c-42.4,0-76.9-34.5-76.9-76.9s34.5-76.9,76.9-76.9c42.4,0,76.9,34.5,76.9,76.9
			S1331.9,999.6,1289.5,999.6z M1289.5,846.6c-41.9,0-76,34.1-76,76c0,41.9,34.1,76,76,76c41.9,0,76-34.1,76-76
			C1365.5,880.7,1331.4,846.6,1289.5,846.6z"/>
	</g>
	<g>
		<path class="st3" d="M1252.4,777.7v56.2c-23.4,6.5-33.5,14.5-44.9,37.9"/>
		<path class="st2" d="M1207.9,872l-0.8-0.4c11.1-22.8,21.2-31.4,44.9-38v-55.9h0.9v56.5l-0.3,0.1
			C1228.7,841,1219.1,849.1,1207.9,872z"/>
	</g>
	<g>
		<line class="st3" x1="1008.1" y1="867.8" x2="1008.1" y2="777.7"/>
		<rect x="1007.7" y="777.7" class="st2" width="0.9" height="90.1"/>
	</g>
	<g>
		<path class="st3" d="M711.7,923.9c0,42.2,34.2,76.5,76.5,76.5c42.2,0,76.5-34.2,76.5-76.5c0-42.3-34.2-76.5-76.5-76.5
			C745.9,847.4,711.7,881.7,711.7,923.9z"/>
		<path class="st2" d="M788.2,1000.9c-42.4,0-76.9-34.5-76.9-76.9c0-42.4,34.5-76.9,76.9-76.9c42.4,0,76.9,34.5,76.9,76.9
			C865.1,966.4,830.6,1000.9,788.2,1000.9z M788.2,847.9c-41.9,0-76,34.1-76,76c0,41.9,34.1,76,76,76c41.9,0,76-34.1,76-76
			C864.2,882,830.1,847.9,788.2,847.9z"/>
	</g>
	<g>
		<path class="st3" d="M1249.2,922.6c0,22.3,18,40.3,40.3,40.3c22.3,0,40.3-18,40.3-40.3c0-22.3-18-40.3-40.3-40.3
			C1267.2,882.3,1249.2,900.4,1249.2,922.6z"/>
		<path class="st2" d="M1289.5,963.4c-22.5,0-40.7-18.3-40.7-40.8c0-22.5,18.3-40.7,40.7-40.7c22.5,0,40.7,18.3,40.7,40.7
			C1330.2,945.1,1312,963.4,1289.5,963.4z M1289.5,882.8c-22,0-39.9,17.9-39.9,39.8c0,22,17.9,39.9,39.9,39.9
			c22,0,39.8-17.9,39.8-39.9C1329.3,900.7,1311.5,882.8,1289.5,882.8z"/>
	</g>
	<g>
		<path class="st3" d="M747.9,923.9c0,22.3,18,40.3,40.3,40.3c22.3,0,40.3-18,40.3-40.3c0-22.3-18-40.3-40.3-40.3
			C765.9,883.6,747.9,901.7,747.9,923.9z"/>
		<path class="st2" d="M788.2,964.7c-22.5,0-40.8-18.3-40.8-40.8c0-22.5,18.3-40.8,40.8-40.8c22.5,0,40.7,18.3,40.7,40.8
			C828.9,946.4,810.6,964.7,788.2,964.7z M788.2,884.1c-22,0-39.9,17.9-39.9,39.9s17.9,39.9,39.9,39.9c22,0,39.9-17.9,39.9-39.9
			S810.2,884.1,788.2,884.1z"/>
	</g>
	<g>
		<line class="st3" x1="975" y1="776.8" x2="975" y2="864.8"/>
		<rect x="974.5" y="776.8" class="st2" width="0.9" height="88"/>
	</g>
	<g>
		<path class="st3" d="M866.8,864.8c-28.6-47-82.3-36-84.1-35.9v-52.1"/>
		<path class="st2" d="M866.4,865c-25-41.1-69.8-37.8-83-35.8c-0.4,0.1-0.6,0.1-0.7,0.1l-0.5,0v-52.6h0.9v51.6c0.1,0,0.1,0,0.2,0
			c13.3-2,58.6-5.4,83.9,36.2L866.4,865z"/>
	</g>
	<g>
		<path class="st3" d="M1457.8,864.9c-8.9,0-16.1-7.2-16.1-16.1c0-8.9,7.2-16.1,16.1-16.1h12.3c0.1,1.7,0.2,3.3,0.2,5v27.2H1457.8z"
			/>
		<path class="st2" d="M1470.8,865.3h-13c-9.1,0-16.6-7.4-16.6-16.6c0-9.1,7.4-16.6,16.6-16.6h12.8l0,0.4c0,0.4,0.1,0.9,0.1,1.3
			c0.1,1.2,0.2,2.5,0.2,3.7V865.3z M1457.8,833.1c-8.6,0-15.7,7-15.7,15.7c0,8.6,7,15.7,15.7,15.7h12.1v-26.8c0-1.2-0.1-2.5-0.2-3.7
			c0-0.3,0-0.6-0.1-0.9H1457.8z"/>
	</g>
	<g>
		<path class="st3" d="M611.6,824.5h3.1c13.4,0,24.2,10.9,24.2,24.3c0,13.4-10.8,24.2-24.2,24.2h-3.1V824.5z"/>
		<path class="st2" d="M614.7,873.5h-3.5v-49.4h3.5c13.6,0,24.7,11.1,24.7,24.7C639.4,862.4,628.3,873.5,614.7,873.5z M612.1,872.6
			h2.6c13.1,0,23.8-10.7,23.8-23.8c0-13.1-10.7-23.8-23.8-23.8h-2.6V872.6z"/>
	</g>
	<g>
		<path class="st3" d="M1188.4,729.8c0,10.5,8.5,19,19,19h34c3,0,5.5-2.4,5.5-5.5v-27.2c0-3-2.4-5.5-5.5-5.5h-34
			C1196.9,710.8,1188.4,719.3,1188.4,729.8z"/>
		<path class="st2" d="M1241.5,749.3h-34c-10.7,0-19.5-8.7-19.5-19.5s8.7-19.5,19.5-19.5h34c3.3,0,5.9,2.6,5.9,5.9v27.2
			C1247.4,746.7,1244.7,749.3,1241.5,749.3z M1207.5,711.3c-10.3,0-18.6,8.3-18.6,18.6c0,10.2,8.3,18.6,18.6,18.6h34
			c2.8,0,5-2.2,5-5v-27.2c0-2.8-2.2-5-5-5H1207.5z"/>
	</g>
	<g>
		<line class="st3" x1="1025.2" y1="777.7" x2="1059.1" y2="777.7"/>
		<rect x="1025.2" y="777.2" class="st2" width="33.9" height="0.9"/>
	</g>
	<g>
		<line class="st3" x1="799.7" y1="777.7" x2="833.6" y2="777.7"/>
		<rect x="799.7" y="777.2" class="st2" width="33.9" height="0.9"/>
	</g>
</g>
<g id="Plant_1_1_">
	<g>
		<linearGradient id="SVGID_1_" gradientUnits="userSpaceOnUse" x1="1041.4374" y1="933.6907" x2="673.0838" y2="938.05">
			<stop  offset="1.331947e-07" style="stop-color:#A8CC73"/>
			<stop  offset="1" style="stop-color:#95B85B"/>
		</linearGradient>
		<path class="st4" d="M1204,983.1c-26.2-9-42.6-22.3-61.7-33.6c-17-10-32.2-23.9-49.9-32.2c-17.6-8.3-39.3-10.1-54.4,3.3
			c-12.1,10.7-18,29.1-30.8,38.5c-22,16.2-50.5-1.8-70.7-20.9c-20.2-19.1-44.5-41.3-69.4-32.6c-9.4,3.3-17.3,10.7-25.6,16.8
			c-20.6,15.2-46.7,23-69.8,13.9c-30.9-12.2-53.7-52.6-86.3-49.8c-20.6,1.8-36.6,20.7-50.5,38.5c-14.3,18.2-28.6,39.7-42.8,57.9
			L1204,983.1z"/>
	</g>
</g>
<g id="Plant_2">
	
		<linearGradient id="SVGID_2_" gradientUnits="userSpaceOnUse" x1="818.7784" y1="941.2418" x2="911.8192" y2="941.2418" gradientTransform="matrix(-0.9688 0.2478 0.2478 0.9688 1870.9127 -193.5754)">
		<stop  offset="0" style="stop-color:#79BFFD"/>
		<stop  offset="1" style="stop-color:#6568EB"/>
	</linearGradient>
	<path class="st5" d="M1255.5,999c0,0,62.2-93,41.5-127.8c-20.7-34.7-56.5,63.4-65.2,116L1255.5,999z"/>
	
		<linearGradient id="SVGID_3_" gradientUnits="userSpaceOnUse" x1="894.6583" y1="925.2592" x2="955.8734" y2="925.2592" gradientTransform="matrix(-0.9866 0.4872 0.5057 1.0241 1678.5873 -456.9821)">
		<stop  offset="0" style="stop-color:#79BFFD"/>
		<stop  offset="1" style="stop-color:#6568EB"/>
	</linearGradient>
	<path class="st6" d="M1237.1,991.3c0,0,29.2-77.1,8.9-99.5s-29.9,54.5-27.7,94.3L1237.1,991.3z"/>
</g>
<g id="Plant_1">
	<g>
		<linearGradient id="SVGID_4_" gradientUnits="userSpaceOnUse" x1="1075.1943" y1="950.4725" x2="472.1159" y2="957.6095">
			<stop  offset="0" style="stop-color:#05CC7B"/>
			<stop  offset="1" style="stop-color:#53E59F"/>
		</linearGradient>
		<path class="st7" d="M1341,1000.6c-42.8-9-69.7-22.3-100.9-33.6c-27.8-10-52.8-23.9-81.6-32.2c-28.9-8.3-64.3-10.1-89.1,3.3
			c-19.7,10.7-29.5,29.1-50.4,38.5c-36,16.2-82.6-1.8-115.8-20.9c-33.1-19.1-72.9-41.3-113.7-32.6c-15.4,3.3-28.3,10.7-41.9,16.8
			c-33.8,15.2-76.4,23-114.3,13.9c-50.7-12.2-88-52.6-141.4-49.8c-33.7,1.8-59.9,20.7-82.7,38.5c-23.4,18.2-46.7,39.7-70.1,57.9
			L1341,1000.6z"/>
	</g>
</g>
<g id="Crossbar_1_">
	<linearGradient id="SVGID_5_" gradientUnits="userSpaceOnUse" x1="787.904" y1="613.3153" x2="822.124" y2="613.3153">
		<stop  offset="0" style="stop-color:#2B0246"/>
		<stop  offset="1" style="stop-color:#6A4586"/>
	</linearGradient>
	<path class="st8" d="M787.9,245v755.7h34.2V245c0-10.5-7.7-19-17.1-19h0C795.6,226,787.9,234.5,787.9,245z"/>
	
		<linearGradient id="SVGID_6_" gradientUnits="userSpaceOnUse" x1="486.8345" y1="660.3635" x2="812.1036" y2="660.3635" gradientTransform="matrix(0.7071 -0.7071 0.7071 0.7071 -122.6915 434.7965)">
		<stop  offset="4.102398e-07" style="stop-color:#F7931E"/>
		<stop  offset="1" style="stop-color:#FCEE21"/>
	</linearGradient>
	<path class="st9" d="M1025.4,450.6L811.6,664.4c-4.5,4.5-11.7,4.5-16.2,0L581.6,450.6c-4.5-4.5-4.5-11.7,0-16.2l213.8-213.8
		c4.5-4.5,11.7-4.5,16.2,0l213.8,213.8C1029.9,438.9,1029.9,446.1,1025.4,450.6z"/>
	<path d="M803.5,656.1c-3.5,0-7-1.3-9.7-4L593.9,452.2c-5.3-5.3-5.3-14,0-19.3l199.9-199.9c2.6-2.6,6-4,9.7-4s7.1,1.4,9.7,4
		l199.9,199.9c5.3,5.3,5.3,14,0,19.3L813.2,652.1C810.5,654.7,807,656.1,803.5,656.1z M803.5,234.9c-2.1,0-4,0.8-5.4,2.2
		L598.2,437.1c-3,3-3,7.9,0,10.9l199.9,199.9c3,3,7.9,3,10.9,0l199.9-199.9c3-3,3-7.9,0-10.9L808.9,237.2
		C807.5,235.7,805.6,234.9,803.5,234.9z"/>
	
		<linearGradient id="SVGID_7_" gradientUnits="userSpaceOnUse" x1="672.85" y1="431.3818" x2="700.0229" y2="431.3818" gradientTransform="matrix(0.1396 -0.9902 0.9902 0.1396 143.9392 1035.2744)">
		<stop  offset="0" style="stop-color:#F46595"/>
		<stop  offset="1" style="stop-color:#F89597"/>
	</linearGradient>
	<polygon class="st10" points="656.3,428 651.1,412.1 677.5,403.5 682.7,419.4 	"/>
	
		<linearGradient id="SVGID_8_" gradientUnits="userSpaceOnUse" x1="648.8648" y1="448.3964" x2="675.1982" y2="448.3964" gradientTransform="matrix(0.1396 -0.9902 0.9902 0.1396 143.9392 1035.2744)">
		<stop  offset="0" style="stop-color:#F46595"/>
		<stop  offset="1" style="stop-color:#F89597"/>
	</linearGradient>
	<polygon class="st11" points="678.1,455.3 667.8,446.4 682.6,429.3 692.9,438.2 	"/>
	
		<linearGradient id="SVGID_9_" gradientUnits="userSpaceOnUse" x1="641.7935" y1="478.339" x2="665.1594" y2="478.339" gradientTransform="matrix(0.1396 -0.9902 0.9902 0.1396 143.9392 1035.2744)">
		<stop  offset="0" style="stop-color:#F46595"/>
		<stop  offset="1" style="stop-color:#F89597"/>
	</linearGradient>
	<polygon class="st12" points="714.7,466.8 701.1,465.7 702.9,443.2 716.5,444.2 	"/>
	<g>
		<linearGradient id="SVGID_10_" gradientUnits="userSpaceOnUse" x1="887.3614" y1="353.8942" x2="899.7319" y2="353.8942">
			<stop  offset="0" style="stop-color:#EA84DE"/>
			<stop  offset="1" style="stop-color:#C352F7"/>
		</linearGradient>
		<polygon class="st13" points="892,346.1 899.7,348.9 895.1,361.7 887.4,358.9 		"/>
		<g>
			<linearGradient id="SVGID_11_" gradientUnits="userSpaceOnUse" x1="903.0792" y1="366.7267" x2="918.2341" y2="366.7267">
				<stop  offset="0" style="stop-color:#EA84DE"/>
				<stop  offset="1" style="stop-color:#C352F7"/>
			</linearGradient>
			<polygon class="st14" points="912,358.9 918.2,364.2 909.3,374.6 903.1,369.2 			"/>
			<linearGradient id="SVGID_12_" gradientUnits="userSpaceOnUse" x1="917.8046" y1="383.8368" x2="933.4513" y2="383.8368">
				<stop  offset="0" style="stop-color:#EA84DE"/>
				<stop  offset="1" style="stop-color:#C352F7"/>
			</linearGradient>
			<polygon class="st15" points="930.7,377.7 933.5,385.4 920.6,390 917.8,382.3 			"/>
		</g>
	</g>
	<linearGradient id="SVGID_13_" gradientUnits="userSpaceOnUse" x1="800.7365" y1="252.3584" x2="809.2915" y2="252.3584">
		<stop  offset="0" style="stop-color:#2B0246"/>
		<stop  offset="1" style="stop-color:#6A4586"/>
	</linearGradient>
	<circle class="st16" cx="805" cy="252.4" r="4.3"/>
	<linearGradient id="SVGID_14_" gradientUnits="userSpaceOnUse" x1="800.7365" y1="632.3583" x2="809.2915" y2="632.3583">
		<stop  offset="0" style="stop-color:#2B0246"/>
		<stop  offset="1" style="stop-color:#6A4586"/>
	</linearGradient>
	<circle class="st17" cx="805" cy="632.4" r="4.3"/>
	<g>
		<rect x="695.3" y="381.1" width="209.5" height="37.8"/>
		<rect x="781.1" y="400" width="37.8" height="160"/>
	</g>
</g>
<g id="Crossbar">
	<linearGradient id="SVGID_15_" gradientUnits="userSpaceOnUse" x1="519.1075" y1="808.4901" x2="549.225" y2="808.4901">
		<stop  offset="0" style="stop-color:#2B0246"/>
		<stop  offset="1" style="stop-color:#6A4586"/>
	</linearGradient>
	<path class="st18" d="M519.1,638.2V1000h30.1V638.2c0-11.7-6.7-21.2-15.1-21.2h0C525.8,617,519.1,626.5,519.1,638.2z"/>
	
		<linearGradient id="SVGID_16_" gradientUnits="userSpaceOnUse" x1="397.5525" y1="714.4912" x2="660.0047" y2="714.4912" gradientTransform="matrix(0.9906 -0.1371 0.1371 0.9906 -89.2034 78.0621)">
		<stop  offset="0" style="stop-color:#E73D26"/>
		<stop  offset="1" style="stop-color:#F89597"/>
	</linearGradient>
	<path class="st19" d="M415.2,661.7l216.3-29.9c12.1-1.7,23.2,6.8,24.9,18.8l12.4,89.5c1.7,12.1-6.8,23.2-18.8,24.9l-216.3,29.9
		c-12.1,1.7-23.2-6.8-24.9-18.8l-12.4-89.5C394.7,674.5,403.1,663.3,415.2,661.7z"/>
	<g>
		<path class="st3" d="M478.1,760.3l-2.5-17.7l-32.9,4.6l-1.6-11.3l21.8-49.1l21.2-2.9l6,43.5l8.9-1.2l1.8,13l-8.9,1.2l2.5,17.7
			L478.1,760.3z M473.8,729.6l-2.3-16.4c-0.6-4.5-1-9.1-1.3-13.9l-0.5,0.1c-1.7,5.1-3.1,9.7-4.9,14.8l-7.7,17.6l0,0.2L473.8,729.6z"
			/>
		<path class="st3" d="M560.4,710.7c3.2,23-3.9,40-22.9,42.6c-19.2,2.7-30-13.4-33.1-34.4c-3-21.5,3.8-39.8,23-42.4
			C547.4,673.8,557.6,690.4,560.4,710.7z M522,716.5c2.2,17,7.5,24.6,14.2,23.6c6.7-0.9,9.2-9.9,6.9-26.8c-2.3-16.4-7-24.6-14-23.7
			C522.7,690.6,519.5,699.3,522,716.5z"/>
		<path class="st3" d="M604.9,742.8l-2.5-17.7l-32.9,4.6l-1.6-11.3l21.8-49.1l21.2-2.9l6,43.5l8.9-1.2l1.8,13l-8.9,1.2l2.5,17.7
			L604.9,742.8z M600.6,712l-2.3-16.4c-0.6-4.5-1-9.1-1.3-13.9l-0.5,0.1c-1.7,5.1-3.1,9.7-4.9,14.8l-7.7,17.6l0,0.2L600.6,712z"/>
	</g>
</g>
<g id="Man">
	<path class="st20" d="M1059.2,716.2c4.6,2.1,5.3-4.3,5.3-4.3c4.7,0.5,1.4-17.3,1.2-18.3c2.7,5.1,7.4,5.6,7.4,5.6l-5.6-23.1
		c1.2-11.1-7.1-23.2-7.1-23.2l2.5-17.7l10.6-117.5c2.4-15-27.6-22.7-27.6-19.8c0.3,27.3-4.4,189-4.4,189l11.8,25.3
		C1055.9,717.5,1059.2,716.2,1059.2,716.2z"/>
	<linearGradient id="SVGID_17_" gradientUnits="userSpaceOnUse" x1="1054.5758" y1="1122.4558" x2="1112.3221" y2="713.9537">
		<stop  offset="0" style="stop-color:#79BFFD"/>
		<stop  offset="1" style="stop-color:#6568EB"/>
	</linearGradient>
	<path class="st21" d="M1059.3,617.2l2.6,138.2c-0.7,4.3-0.7,8.7,0,13l35.1,202.5h45.6l-26.8-205l25.5-148.8H1059.3z"/>
	
		<linearGradient id="SVGID_18_" gradientUnits="userSpaceOnUse" x1="-602.8476" y1="983.737" x2="-512.2106" y2="983.737" gradientTransform="matrix(-1 0 0 1 509.6339 0)">
		<stop  offset="0" style="stop-color:#2B0246"/>
		<stop  offset="1" style="stop-color:#6A4586"/>
	</linearGradient>
	<path class="st22" d="M1146,999.8h-89.8c0,0-7.8-11.6,23.7-22.2c1.2-0.4,2.3-0.9,3.4-1.5l13.1-7.2l48.2-1.3
		C1144.7,967.7,1146,999.8,1146,999.8z"/>
	
		<linearGradient id="SVGID_19_" gradientUnits="userSpaceOnUse" x1="-691.5891" y1="983.737" x2="-600.9521" y2="983.737" gradientTransform="matrix(-1 0 0 1 509.6339 0)">
		<stop  offset="0" style="stop-color:#2B0246"/>
		<stop  offset="1" style="stop-color:#6A4586"/>
	</linearGradient>
	<path class="st23" d="M1174.1,999.8h-89.8c0,0-7.8-11.6,23.7-22.2c1.1-0.4,2.2-0.8,3.3-1.4l15.8-8.5h45.6
		C1172.8,967.7,1174.1,999.8,1174.1,999.8z"/>
	<linearGradient id="SVGID_20_" gradientUnits="userSpaceOnUse" x1="1125.0818" y1="871.3904" x2="1174.2731" y2="501.3859">
		<stop  offset="0" style="stop-color:#79BFFD"/>
		<stop  offset="1" style="stop-color:#6568EB"/>
	</linearGradient>
	<path class="st24" d="M1173.5,631.9l-20.1,140.7l20.1,195.7h-46.9l-34.4-199.8c-0.3-1.7-0.4-3.5-0.4-5.2l3.9-131.4H1173.5z"/>
	<path class="st20" d="M1129.8,367.5l-4,58l-33.7,1.5l-0.1-14.8l0-3.6l-0.1-14.4l0-0.4c-0.2,0-0.3,0-0.5-0.1
		c-30.4-4.5-19.5-78.1-19.5-78.1c32.7-14.7,56,0.8,63.9,22.3C1143.8,359.4,1129.8,367.5,1129.8,367.5z"/>
	<linearGradient id="SVGID_21_" gradientUnits="userSpaceOnUse" x1="1049.4003" y1="481.1008" x2="1112.1371" y2="570.2155">
		<stop  offset="0" style="stop-color:#2B0246"/>
		<stop  offset="1" style="stop-color:#6A4586"/>
	</linearGradient>
	<polygon class="st25" points="1055.2,442.4 1040.3,515.1 1065.9,515.1 	"/>
	<linearGradient id="SVGID_22_" gradientUnits="userSpaceOnUse" x1="1133.6868" y1="642.9557" x2="1123.9083" y2="498.7223">
		<stop  offset="0" style="stop-color:#2B0246"/>
		<stop  offset="1" style="stop-color:#6A4586"/>
	</linearGradient>
	<path class="st26" d="M1192.9,462.9c-1.1,2.7-2.1,5.4-3,8.3c-13.6,40.9-16.7,174.9-16.7,174.9l-113.6,1.7
		c0-0.3-4.3-205.3-4.3-205.3c-1.3,0.8,34.6-22.8,35-23.1c22,13.9,37.2-8.3,37.2-8.3c18.1,4.8,43.1,12.7,53.7,17.5
		c0.4,0.1,0.7,0.3,1.1,0.5c0,0,0,0,0,0h0c0,0,0.1,0,0.1,0.1c7.1,3.3,12,10.1,12.5,17.9C1195.4,455.3,1192.9,462.9,1192.9,462.9z"/>
	<linearGradient id="SVGID_23_" gradientUnits="userSpaceOnUse" x1="1169.8542" y1="515.6084" x2="1164.1509" y2="427.9195">
		<stop  offset="0" style="stop-color:#2B0246"/>
		<stop  offset="1" style="stop-color:#6A4586"/>
	</linearGradient>
	<path class="st27" d="M1192.9,462.9c-1.1,2.7-2.1,5.4-3,8.3c-3.8,9.2-8.6,20.1-14.9,32.8s-36.3-14.4-36.3-14.4l16.9-49.4
		c2.4-6.6,8-11.7,14.9-12.9c3.2-0.5,6.8-0.3,10.6,1.3c0.4,0.1,0.7,0.3,1.1,0.5c0,0,0,0,0,0h0c0,0,0.1,0,0.1,0.1
		c7.1,3.3,12,10.1,12.5,17.9C1195.4,455.3,1192.9,462.9,1192.9,462.9z"/>
	<path class="st20" d="M1173.5,506.8l-9.6,13.9l-29.1,42.1c-8.2,11.9-26.6,8.2-29.6-6l-8-38.1l-4.8-29.4l-1.1-6.8l-5.3-32.4
		c0,0-9.6-9.6-11.2-14.4c0,0-3.2-17.5-1.6-20.7c1.6-3.2,4.8,0,4.8,0s0.8-14.3,0.8-17.5c0-6.4,0.5-6.4,2.1-6.4
		c4.3,0,6.4,6.4,6.6,17.5l3.2,12.8l8.6,8.4l-0.6-11.6c0,0,8-1.6,8,11.2l-3.2,12.8l13.5,47.2l8.9,30.1l12.1-30.1l0.9,0.4
		L1173.5,506.8z"/>
	<path class="st28" d="M1118.9,349.2c0,0-10.2-16.5-4.5-24.2c0,0-29.2,21.8-43.2,0.7c-14.7-22.1,15.7-41.8,51.7-20.5
		c0,0,10.4-3.3,19.5,9.8c0,0,7.4,30.4-14.4,61.2v-10.7c0,0,10.9-19.2-2.8-21.2C1125.2,344.2,1121.3,344.6,1118.9,349.2z"/>
	<path class="st29" d="M1120.9,381.5c-8.1,21.9-22.4,28.7-28.9,30.8l0-3.6l-0.1-14.4l0-0.4c-0.2,0-0.3,0-0.5-0.1
		C1106.4,392.2,1120.4,381.8,1120.9,381.5z"/>
	<polygon class="st29" points="1173.5,506.8 1163.8,520.7 1138.8,489.7 	"/>
</g>
</svg>
