<svg xmlns="http://www.w3.org/2000/svg" width="182.85" height="191.634" viewBox="0 0 182.85 191.634">
  <g id="LOGO_1" data-name="LOGO 1" transform="translate(-431.154 -116.778)">
    <circle id="Elipse_16" data-name="Elipse 16" cx="21.62" cy="21.62" r="21.62" transform="translate(502.99 119.74)" fill="#28a8df" />
    <path id="Caminho_1017" data-name="Caminho 1017" d="M479.46,244.58l-47,54.91a5.4,5.4,0,0,0,6.43,8.39l92.31-44-34.89-21.15C490.25,243.23,484.59,243.85,479.46,244.58Z" fill="#e4202a" />
    <path id="Caminho_1018" data-name="Caminho 1018" d="M531.15,263.87l61.11,37.05a5.41,5.41,0,0,0,8.09-5.72l-10.62-51.34c-4.33-.52-9-1-13.79-1.34Z" fill="#2e5ca6" />
    <path id="Caminho_1019" data-name="Caminho 1019" d="M537.37,241.08c-14.44,0-28.57.58-41.11,1.64l34.89,21.15,44.79-21.35C564,241.59,550.8,241.08,537.37,241.08Z" fill="#28a8df" />
    <path id="Caminho_1020" data-name="Caminho 1020" d="M525.16,197.82,469.8,163.74a5.41,5.41,0,0,0-7.91,6.47l22.47,61.29c2.53-.29,5.17-.56,7.86-.81Z" fill="#f2e500" />
    <path id="Caminho_1021" data-name="Caminho 1021" d="M604.78,118.35l-79.62,79.47,52.71,32.45c4,.32,7.87.69,11.56,1.11l24.44-108a5.41,5.41,0,0,0-9.09-5.03Z" fill="#8cbf44" />
    <path id="Caminho_1022" data-name="Caminho 1022" d="M537.37,228.73c14.3,0,28.08.54,40.5,1.54l-52.71-32.45-32.94,32.87C505.86,229.43,521.45,228.73,537.37,228.73Z" fill="#f18918" />
    <path id="Caminho_1023" data-name="Caminho 1023" d="M537.37,228.73c-15.92,0-31.51.7-45.15,2-2.69.25-5.33.52-7.86.81h0l1.89,5.15-6.79,7.93h0c5.13-.73,10.79-1.35,16.8-1.86,12.54-1.06,26.67-1.64,41.11-1.64,13.43,0,26.65.51,38.57,1.44,4.84.38,9.46.82,13.79,1.34h0l-1.49-7.21,1.19-5.27h0c-3.69-.42-7.56-.79-11.56-1.11C565.45,229.27,551.67,228.73,537.37,228.73Z" fill="#fff" />
  </g>
</svg>
