<svg xmlns="http://www.w3.org/2000/svg" width="1366.071" height="385.109" viewBox="0 0 1366.071 385.109">
  <defs>
    <style>
      .cls-1, .cls-4, .cls-5 {
        fill: #fff;
      }

      .cls-2 {
        opacity: 0.3;
      }

      .cls-3 {
        fill: #dbe8fb;
      }

      .cls-4, .cls-5, .cls-6, .cls-7, .cls-8, .cls-9 {
        stroke: #888;
        stroke-miterlimit: 10;
      }

      .cls-4 {
        stroke-width: 0.216px;
      }

      .cls-5, .cls-6 {
        stroke-width: 0.242px;
      }

      .cls-6, .cls-7, .cls-8, .cls-9 {
        fill: none;
      }

      .cls-7 {
        stroke-width: 0.222px;
      }

      .cls-8 {
        stroke-width: 0.183px;
      }

      .cls-9 {
        stroke-width: 0.241px;
      }
    </style>
  </defs>
  <g id="Camada_5" data-name="Camada 5" transform="translate(0.071 -131.787)">
    <rect id="Retângulo_36" data-name="Retângulo 36" class="cls-1" width="1366" height="381.67" transform="translate(0 131.787)"/>
    <g id="Grupo_165" data-name="Grupo 165" class="cls-2">
      <path id="Caminho_469" data-name="Caminho 469" class="cls-3" d="M1273.709,385.325q-13.3-23.25-42.35-37.05-23.55-11.19-56.75-15.85-42.96-6-105.6-3.85-12.96.4-53,2.35-33.1,1.65-53.05,2-60.66,1.2-106.3-7.45-56.7-10.74-97.7-37.55a286.564,286.564,0,0,1-32.1-24.75q-10.2-8.895-29.9-27.8-19.605-18.84-29.85-27.8a287.346,287.346,0,0,0-32.15-24.75q-42.81-27.945-101.9-38-48.45-8.25-110.7-4.75-37.005,2.16-64.1,7.45-34.26,6.66-60.9,19.55a168.808,168.808,0,0,0-52,37.9q-1.635,1.785-3.2,3.55a148.648,148.648,0,0,0-14.95,8.4q-8.85,5.61-21.25,14.85-13.8,10.5-20.75,15.6-25.2,18.45-44.5,25.3-15,5.4-35.1,7.5-10.755,1.11-36.35,2.05-23.46.855-36.15,2.55a136.213,136.213,0,0,0-33.18,8.5V516.9h1247.68q3.48-4.185,6.75-8.57,21.45-28.8,27.75-60.45Q1289.249,412.235,1273.709,385.325Z"/>
    </g>
    <rect id="Retângulo_37" data-name="Retângulo 37" class="cls-4" width="114.743" height="8.39" transform="translate(366.426 435.343)"/>
    <rect id="Retângulo_38" data-name="Retângulo 38" class="cls-4" width="114.743" height="8.39" transform="translate(366.426 448.475)"/>
    <rect id="Retângulo_39" data-name="Retângulo 39" class="cls-4" width="114.743" height="8.39" transform="translate(366.426 461.607)"/>
    <g id="Grupo_170" data-name="Grupo 170">
      <rect id="Retângulo_40" data-name="Retângulo 40" class="cls-5" width="23.662" height="59.956" transform="translate(1007.757 188.116)"/>
      <g id="Grupo_166" data-name="Grupo 166">
        <circle id="Elipse_7" data-name="Elipse 7" class="cls-5" cx="7.655" cy="7.655" r="7.655" transform="translate(1011.933 190.569)"/>
        <circle id="Elipse_8" data-name="Elipse 8" class="cls-5" cx="7.655" cy="7.655" r="7.655" transform="translate(1011.933 210.438)"/>
        <circle id="Elipse_9" data-name="Elipse 9" class="cls-5" cx="7.655" cy="7.655" r="7.655" transform="translate(1011.933 230.308)"/>
      </g>
      <g id="Grupo_169" data-name="Grupo 169">
        <path id="Caminho_470" data-name="Caminho 470" class="cls-5" d="M1126.394,472.024h-6V217.629a16.116,16.116,0,0,0-16.1-16.1H1031.42v-6H1104.3a22.123,22.123,0,0,1,22.1,22.1Z"/>
        <g id="Grupo_167" data-name="Grupo 167">
          <rect id="Retângulo_41" data-name="Retângulo 41" class="cls-5" width="19.18" height="18.905" transform="translate(1113.392 338.644)"/>
          <rect id="Retângulo_42" data-name="Retângulo 42" class="cls-5" width="15.61" height="15.386" rx="2.864" transform="translate(1115.177 340.403)"/>
        </g>
        <g id="Grupo_168" data-name="Grupo 168">
          <rect id="Retângulo_43" data-name="Retângulo 43" class="cls-5" width="19.18" height="18.905" transform="translate(1113.392 359.922)"/>
          <rect id="Retângulo_44" data-name="Retângulo 44" class="cls-5" width="15.61" height="15.386" rx="2.864" transform="translate(1115.177 361.681)"/>
        </g>
      </g>
    </g>
    <g id="Grupo_193" data-name="Grupo 193">
      <g id="Grupo_171" data-name="Grupo 171">
        <path id="Caminho_471" data-name="Caminho 471" class="cls-6" d="M147.8,386.42v10.739a15.939,15.939,0,0,1-15.924,15.924H102.622"/>
      </g>
      <g id="Grupo_172" data-name="Grupo 172">
        <path id="Caminho_472" data-name="Caminho 472" class="cls-6" d="M129.286,195.493v15.756A15.367,15.367,0,0,1,113.934,226.6H102.622"/>
      </g>
      <g id="Grupo_173" data-name="Grupo 173">
        <path id="Caminho_473" data-name="Caminho 473" class="cls-6" d="M102.622,385.68H66.459A24.59,24.59,0,0,1,41.9,361.118V333.841"/>
      </g>
      <g id="Grupo_174" data-name="Grupo 174">
        <path id="Caminho_474" data-name="Caminho 474" class="cls-6" d="M148.046,289.4v17.651a24.6,24.6,0,0,1-24.565,24.566h-19.87"/>
      </g>
      <g id="Grupo_175" data-name="Grupo 175">
        <path id="Caminho_475" data-name="Caminho 475" class="cls-6" d="M102.622,244.968h-25.8A24.588,24.588,0,0,1,52.265,220.4V199.052"/>
      </g>
      <g id="Grupo_176" data-name="Grupo 176">
        <path id="Caminho_476" data-name="Caminho 476" class="cls-5" d="M107.807,471.59H97.44V174.612h52.582v10.37H107.807Z"/>
      </g>
      <g id="Grupo_180" data-name="Grupo 180">
        <g id="Grupo_177" data-name="Grupo 177">
          <path id="Caminho_477" data-name="Caminho 477" class="cls-5" d="M135.481,177.078a36.943,36.943,0,1,1-36.942-36.941A36.943,36.943,0,0,1,135.481,177.078Z"/>
        </g>
        <g id="Grupo_178" data-name="Grupo 178">
          <path id="Caminho_478" data-name="Caminho 478" class="cls-5" d="M87.2,185.141a29.541,29.541,0,1,1-29.54-29.54A29.541,29.541,0,0,1,87.2,185.141Z"/>
        </g>
        <g id="Grupo_179" data-name="Grupo 179">
          <path id="Caminho_479" data-name="Caminho 479" class="cls-5" d="M161.962,190a24.683,24.683,0,1,1-24.683-24.679A24.684,24.684,0,0,1,161.962,190Z"/>
        </g>
      </g>
      <g id="Grupo_184" data-name="Grupo 184">
        <g id="Grupo_181" data-name="Grupo 181">
          <path id="Caminho_480" data-name="Caminho 480" class="cls-5" d="M163.5,277.788A21.378,21.378,0,1,1,142.12,256.41,21.382,21.382,0,0,1,163.5,277.788Z"/>
        </g>
        <g id="Grupo_182" data-name="Grupo 182">
          <path id="Caminho_481" data-name="Caminho 481" class="cls-5" d="M129.929,286.509a13.064,13.064,0,1,1-13.064-13.063A13.06,13.06,0,0,1,129.929,286.509Z"/>
        </g>
        <g id="Grupo_183" data-name="Grupo 183">
          <path id="Caminho_482" data-name="Caminho 482" class="cls-5" d="M180.9,284.722a14.851,14.851,0,1,1-14.852-14.85A14.849,14.849,0,0,1,180.9,284.722Z"/>
        </g>
      </g>
      <g id="Grupo_188" data-name="Grupo 188">
        <g id="Grupo_185" data-name="Grupo 185">
          <path id="Caminho_483" data-name="Caminho 483" class="cls-5" d="M69.92,329.775a20.783,20.783,0,1,1-20.785-20.783A20.784,20.784,0,0,1,69.92,329.775Z"/>
        </g>
        <g id="Grupo_186" data-name="Grupo 186">
          <path id="Caminho_484" data-name="Caminho 484" class="cls-5" d="M42.617,333.96a16.973,16.973,0,1,1-16.973-16.972A16.97,16.97,0,0,1,42.617,333.96Z"/>
        </g>
        <g id="Grupo_187" data-name="Grupo 187">
          <path id="Caminho_485" data-name="Caminho 485" class="cls-5" d="M85.208,337.123A13.812,13.812,0,1,1,71.4,323.311,13.808,13.808,0,0,1,85.208,337.123Z"/>
        </g>
      </g>
      <g id="Grupo_192" data-name="Grupo 192">
        <g id="Grupo_189" data-name="Grupo 189">
          <path id="Caminho_486" data-name="Caminho 486" class="cls-5" d="M167.578,370.941A19.242,19.242,0,1,1,148.336,351.7,19.241,19.241,0,0,1,167.578,370.941Z"/>
        </g>
        <g id="Grupo_190" data-name="Grupo 190">
          <path id="Caminho_487" data-name="Caminho 487" class="cls-5" d="M146.915,373.348a17.131,17.131,0,1,1-17.133-17.131A17.132,17.132,0,0,1,146.915,373.348Z"/>
        </g>
        <g id="Grupo_191" data-name="Grupo 191">
          <path id="Caminho_488" data-name="Caminho 488" class="cls-5" d="M176.826,379.573a10.91,10.91,0,1,1-10.908-10.911A10.905,10.905,0,0,1,176.826,379.573Z"/>
        </g>
      </g>
    </g>
    <g id="Grupo_197" data-name="Grupo 197">
      <path id="Caminho_489" data-name="Caminho 489" class="cls-5" d="M269.543,341.129,217.672,388.6l-.442-14.946,20.349-41.3s-3.434-1.35-3.65-.973l-17.145,31.274c-2.026-68.376-1.6-66.062-2.26-66.062-.69,0-.392-1.016-1.191,25.906l-11.268-9.875a.818.818,0,0,0-1.184,1.117l9.813,15.64-.3,92.482L189.643,395l-.784-34.125c-.112-1.931-4.18-1.708-4.3.227l.146,27.847-24.58-32.181c-.607-.783-3.59.013-3.048.838l52.907,78.085-1.695,36.244h12.477l-2.743-71.649,17.739-19.708,20.408.127a1.332,1.332,0,0,0,.237-2.643l-15.9-2.76,29.948-33.269A.643.643,0,0,0,269.543,341.129Z"/>
      <g id="Grupo_194" data-name="Grupo 194">
        <circle id="Elipse_10" data-name="Elipse 10" class="cls-5" cx="49.103" cy="49.103" r="49.103" transform="translate(169.22 247.48)"/>
      </g>
      <g id="Grupo_195" data-name="Grupo 195">
        <path id="Caminho_490" data-name="Caminho 490" class="cls-5" d="M196.064,349.347a30.379,30.379,0,1,1-30.379-30.377A30.381,30.381,0,0,1,196.064,349.347Z"/>
      </g>
      <g id="Grupo_196" data-name="Grupo 196">
        <circle id="Elipse_11" data-name="Elipse 11" class="cls-5" cx="28.448" cy="28.448" r="28.448" transform="translate(230.397 313.952)"/>
      </g>
    </g>
    <g id="Grupo_198" data-name="Grupo 198">
      <rect id="Retângulo_45" data-name="Retângulo 45" class="cls-5" width="5.885" height="105.726" transform="translate(549.592 366.009)"/>
      <path id="Caminho_491" data-name="Caminho 491" class="cls-7" d="M346.052,394.1v77.637H1366"/>
      <path id="Caminho_492" data-name="Caminho 492" class="cls-7" d="M339.154,394.1v77.637H0"/>
      <path id="Caminho_493" data-name="Caminho 493" class="cls-7" d="M366.426,370.526A23.823,23.823,0,1,1,342.6,346.711,23.818,23.818,0,0,1,366.426,370.526Z"/>
      <path id="Caminho_494" data-name="Caminho 494" class="cls-8" d="M362.179,370.527a19.576,19.576,0,1,1-19.576-19.57A19.571,19.571,0,0,1,362.179,370.527Z"/>
      <rect id="Retângulo_46" data-name="Retângulo 46" class="cls-5" width="48.003" height="48.003" rx="4.402" transform="translate(518.592 371.34) rotate(-45)"/>
      <rect id="Retângulo_47" data-name="Retângulo 47" class="cls-9" width="42.053" height="42.053" rx="1.064" transform="translate(522.799 371.34) rotate(-45)"/>
    </g>
    <g id="Grupo_201" data-name="Grupo 201">
      <path id="Caminho_495" data-name="Caminho 495" class="cls-5" d="M1365.71,403.71V430.6H1194.42c-3.88,0-7.02-2.64-7.02-5.9V409.61c0-3.26,3.14-5.9,7.02-5.9Z"/>
      <path id="Caminho_496" data-name="Caminho 496" class="cls-5" d="M1175.549,444.571a3.926,3.926,0,0,0,3.757,4.076h24.756a3.926,3.926,0,0,0,3.756-4.076V427.165a3.924,3.924,0,0,0-3.756-4.075h-24.756a3.925,3.925,0,0,0-3.757,4.075Z"/>
      <path id="Caminho_497" data-name="Caminho 497" class="cls-5" d="M1174.875,415.672a3.758,3.758,0,0,0,3.756,3.758h0a3.759,3.759,0,0,0,3.757-3.758V404.981a3.758,3.758,0,0,0-3.757-3.757h0a3.757,3.757,0,0,0-3.756,3.757Z"/>
      <g id="Grupo_199" data-name="Grupo 199">
        <path id="Caminho_498" data-name="Caminho 498" class="cls-5" d="M1193.079,344.006c4.511-7.843,12.716-21.384,28.9-21.384h22.341a16.385,16.385,0,0,1,16.384,16.384v74.055c-1.965-.079-13.863-.517-26.008.012-21.407.931-24.852,18.494-24.852,18.494l.062.288h-14.889a16.384,16.384,0,0,1-16.383-16.383v-20.6C1178.631,365.392,1187.879,353.054,1193.079,344.006Z"/>
        <line id="Linha_3" data-name="Linha 3" class="cls-6" x1="15.315" transform="translate(1224.289 382.441)"/>
        <path id="Caminho_499" data-name="Caminho 499" class="cls-5" d="M1245.386,333.315V373.2h-28.9l-8.381,8.38h-8.958c-10.4,0-14.441.713-10.113-14.161,4.623-15.894,21.384-34.1,21.384-34.1Z"/>
        <path id="Caminho_500" data-name="Caminho 500" class="cls-5" d="M1245.674,378.538v12.573c0,5.49-1.158,12.426-10.4,12.426h-12.138c-6.068,0-9.826-.869-15.314,7.8s-6.069,9.826-12.716,9.826c-9.825,0-7.946-10.693-7.946-10.693V386.622"/>
        <path id="Caminho_501" data-name="Caminho 501" class="cls-5" d="M1207.149,343.052s3.558,1.533,1.245,5.868a87.354,87.354,0,0,1-7.512,10.691s-3.757,3.758-8.381-.288"/>
      </g>
      <path id="Caminho_502" data-name="Caminho 502" class="cls-5" d="M1365.71,427.23v21.39H1273.9a6.555,6.555,0,0,1-6.55-6.56v-8.28a6.565,6.565,0,0,1,6.55-6.55Z"/>
      <g id="Grupo_200" data-name="Grupo 200">
        <circle id="Elipse_12" data-name="Elipse 12" class="cls-5" cx="26.441" cy="26.441" r="26.441" transform="translate(1211.863 418.853)"/>
        <path id="Caminho_503" data-name="Caminho 503" class="cls-5" d="M1225.3,445.294a13,13,0,1,0,13-13.006A13,13,0,0,0,1225.3,445.294Z"/>
        <path id="Caminho_504" data-name="Caminho 504" class="cls-5" d="M1240.615,436.767a5.269,5.269,0,0,0-4.622.147"/>
        <path id="Caminho_505" data-name="Caminho 505" class="cls-5" d="M1246.916,442.908a5.275,5.275,0,0,0-2.44-3.931"/>
        <path id="Caminho_506" data-name="Caminho 506" class="cls-5" d="M1244.748,451.433a5.272,5.272,0,0,0,2.186-4.078"/>
        <path id="Caminho_507" data-name="Caminho 507" class="cls-5" d="M1236.281,453.817a5.27,5.27,0,0,0,4.624-.145"/>
        <path id="Caminho_508" data-name="Caminho 508" class="cls-5" d="M1229.982,447.678a5.274,5.274,0,0,0,2.438,3.933"/>
        <path id="Caminho_509" data-name="Caminho 509" class="cls-5" d="M1232.15,439.153a5.275,5.275,0,0,0-2.186,4.078"/>
      </g>
      <path id="Caminho_510" data-name="Caminho 510" class="cls-5" d="M1183.833,440.815a2.89,2.89,0,0,0,2.889,2.889h6.936a2.889,2.889,0,0,0,2.889-2.889h0a2.889,2.889,0,0,0-2.889-2.891h-6.936a2.89,2.89,0,0,0-2.889,2.891Z"/>
      <path id="Caminho_511" data-name="Caminho 511" class="cls-5" d="M1365.71,298.16V410.28h-95.47V312.66a14.5,14.5,0,0,1,14.5-14.5Z"/>
    </g>
    <g id="Grupo_206" data-name="Grupo 206">
      <path id="Caminho_512" data-name="Caminho 512" class="cls-5" d="M596.021,350.087h-7.572a38.617,38.617,0,0,1,38.572-38.575h19.658v7.574H627.021A31.035,31.035,0,0,0,596.021,350.087Z"/>
      <path id="Caminho_513" data-name="Caminho 513" class="cls-5" d="M1014.442,308.846V431.773A15.827,15.827,0,0,1,998.6,447.61H621.879a14.235,14.235,0,0,1-14.162-15.748V344.843c2.171-20.453,21.89-36,42.445-36Z"/>
      <path id="Caminho_514" data-name="Caminho 514" class="cls-5" d="M1014.442,423.491v8.282A15.827,15.827,0,0,1,998.6,447.61H621.879a14.235,14.235,0,0,1-14.162-15.748v-8.371Z"/>
      <path id="Caminho_515" data-name="Caminho 515" class="cls-5" d="M622.1,447.618a31.849,31.849,0,1,1,63.7,0Z"/>
      <path id="Caminho_516" data-name="Caminho 516" class="cls-5" d="M993.6,447.618a31.85,31.85,0,0,0-31.852-31.849H910.839a31.849,31.849,0,0,0-31.85,31.849Z"/>
      <path id="Caminho_517" data-name="Caminho 517" class="cls-5" d="M661.317,364.46c.023,5.579.068,10.974.158,15.6-21.868-.329-33.678,14.007-34.551,23.055h-5.045V355.23a28.681,28.681,0,0,1,.465-5.148,29.394,29.394,0,0,1,28.949-24.267h10.182s-.125,11.054-.158,24.267C661.3,354.742,661.3,359.663,661.317,364.46Z"/>
      <g id="Grupo_202" data-name="Grupo 202">
        <rect id="Retângulo_48" data-name="Retângulo 48" class="cls-5" width="40.65" height="48.046" transform="translate(681.694 325.815)"/>
        <rect id="Retângulo_49" data-name="Retângulo 49" class="cls-5" width="40.652" height="48.046" transform="translate(737.845 325.815)"/>
        <rect id="Retângulo_50" data-name="Retângulo 50" class="cls-5" width="40.651" height="48.046" transform="translate(793.995 325.815)"/>
        <rect id="Retângulo_51" data-name="Retângulo 51" class="cls-5" width="40.652" height="48.046" transform="translate(850.144 325.815)"/>
        <rect id="Retângulo_52" data-name="Retângulo 52" class="cls-5" width="40.652" height="48.046" transform="translate(906.295 325.815)"/>
      </g>
      <g id="Grupo_203" data-name="Grupo 203">
        <path id="Caminho_518" data-name="Caminho 518" class="cls-5" d="M653.952,467.947a20.332,20.332,0,1,1,20.332-20.329A20.354,20.354,0,0,1,653.952,467.947Z"/>
        <path id="Caminho_519" data-name="Caminho 519" class="cls-5" d="M653.952,431.069a16.546,16.546,0,1,1-16.544,16.549,16.567,16.567,0,0,1,16.544-16.549Zm0-7.573a24.119,24.119,0,1,0,24.121,24.122A24.12,24.12,0,0,0,653.952,423.5Z"/>
      </g>
      <g id="Grupo_204" data-name="Grupo 204">
        <path id="Caminho_520" data-name="Caminho 520" class="cls-5" d="M962.069,467.947A20.332,20.332,0,1,1,982.4,447.618,20.353,20.353,0,0,1,962.069,467.947Z"/>
        <path id="Caminho_521" data-name="Caminho 521" class="cls-5" d="M962.069,431.069a16.546,16.546,0,1,1-16.545,16.549,16.567,16.567,0,0,1,16.545-16.549Zm0-7.573a24.119,24.119,0,1,0,24.118,24.122A24.122,24.122,0,0,0,962.069,423.5Z"/>
      </g>
      <g id="Grupo_205" data-name="Grupo 205">
        <path id="Caminho_522" data-name="Caminho 522" class="cls-5" d="M910.839,467.947a20.332,20.332,0,1,1,20.331-20.329A20.356,20.356,0,0,1,910.839,467.947Z"/>
        <path id="Caminho_523" data-name="Caminho 523" class="cls-5" d="M910.839,431.069a16.546,16.546,0,1,1-16.544,16.549,16.567,16.567,0,0,1,16.544-16.549Zm0-7.573a24.119,24.119,0,1,0,24.117,24.122A24.122,24.122,0,0,0,910.839,423.5Z"/>
      </g>
      <path id="Caminho_524" data-name="Caminho 524" class="cls-5" d="M599.446,368.895a7.212,7.212,0,0,1-14.424,0V351.359a7.212,7.212,0,1,1,14.424,0Z"/>
    </g>
    <g id="Grupo_207" data-name="Grupo 207">
      <path id="Caminho_525" data-name="Caminho 525" class="cls-5" d="M965.709,403.569l17.608-33.7a12.175,12.175,0,0,1,10.767-6.522h64.342a17,17,0,0,1,12.388,5.372l32.644,34.855h33.311a22.076,22.076,0,0,1,22.076,22.074V452.8H926.954V421.229c0-9.753,7.417-17.66,17.171-17.66Z"/>
      <rect id="Retângulo_53" data-name="Retângulo 53" class="cls-5" width="226.004" height="11.281" transform="translate(926.954 441.516)"/>
      <path id="Caminho_526" data-name="Caminho 526" class="cls-5" d="M919.6,447.159a5.64,5.64,0,0,0,5.641,5.638h13.629a5.641,5.641,0,1,0,0-11.281H925.237A5.641,5.641,0,0,0,919.6,447.159Z"/>
      <path id="Caminho_527" data-name="Caminho 527" class="cls-5" d="M1143.852,447.159a5.64,5.64,0,0,0,5.641,5.638h9.352a5.641,5.641,0,1,0,0-11.281h-9.352A5.642,5.642,0,0,0,1143.852,447.159Z"/>
      <path id="Caminho_528" data-name="Caminho 528" class="cls-5" d="M976.452,402.615a.82.82,0,0,0,.728,1.2h46.626a1.352,1.352,0,0,0,1.351-1.352V372.279a1.352,1.352,0,0,0-1.351-1.352h-24.1a11.158,11.158,0,0,0-9.878,6Z"/>
      <path id="Caminho_529" data-name="Caminho 529" class="cls-5" d="M1093.223,402.848a.572.572,0,0,1-.414.967H1036.09a1.335,1.335,0,0,1-1.335-1.335V372.675a1.335,1.335,0,0,1,1.335-1.335h20.463a15.6,15.6,0,0,1,11.274,4.833Z"/>
      <path id="Caminho_530" data-name="Caminho 530" class="cls-5" d="M1089.342,450.732A20.654,20.654,0,1,0,1110,430.078,20.653,20.653,0,0,0,1089.342,450.732Z"/>
      <path id="Caminho_531" data-name="Caminho 531" class="cls-5" d="M1099.992,411.594v15.174c-6.308,1.764-9.042,3.9-12.126,10.227"/>
      <line id="Linha_4" data-name="Linha 4" class="cls-5" y1="24.333" transform="translate(1034.019 411.594)"/>
      <path id="Caminho_532" data-name="Caminho 532" class="cls-5" d="M953.975,451.082a20.654,20.654,0,1,0,20.656-20.656A20.655,20.655,0,0,0,953.975,451.082Z"/>
      <path id="Caminho_533" data-name="Caminho 533" class="cls-5" d="M1099.114,450.732A10.882,10.882,0,1,0,1110,439.851,10.883,10.883,0,0,0,1099.114,450.732Z"/>
      <path id="Caminho_534" data-name="Caminho 534" class="cls-5" d="M963.748,451.082A10.883,10.883,0,1,0,974.631,440.2,10.883,10.883,0,0,0,963.748,451.082Z"/>
      <line id="Linha_5" data-name="Linha 5" class="cls-5" y2="23.762" transform="translate(1025.068 411.346)"/>
      <path id="Caminho_535" data-name="Caminho 535" class="cls-5" d="M995.869,435.109c-7.715-12.678-22.224-9.721-22.714-9.688V411.346"/>
      <path id="Caminho_536" data-name="Caminho 536" class="cls-5" d="M1155.445,435.137a4.354,4.354,0,0,1,0-8.707h3.332c.027.448.068.893.068,1.349v7.358Z"/>
      <path id="Caminho_537" data-name="Caminho 537" class="cls-5" d="M926.954,424.237h.832a6.547,6.547,0,1,1,0,13.094h-.832Z"/>
      <path id="Caminho_538" data-name="Caminho 538" class="cls-5" d="M1082.708,398.675a5.141,5.141,0,0,0,5.14,5.14h9.182a1.472,1.472,0,0,0,1.471-1.472v-7.336a1.472,1.472,0,0,0-1.471-1.472h-9.182A5.14,5.14,0,0,0,1082.708,398.675Z"/>
      <line id="Linha_6" data-name="Linha 6" class="cls-5" x2="9.145" transform="translate(1038.628 411.594)"/>
      <line id="Linha_7" data-name="Linha 7" class="cls-5" x2="9.145" transform="translate(977.738 411.594)"/>
    </g>
    <g id="Grupo_246" data-name="Grupo 246">
      <g id="Grupo_208" data-name="Grupo 208">
        <path id="Caminho_539" data-name="Caminho 539" class="cls-5" d="M568.143,444.814l-25.327-.235,1.9,1.266,23.412.235a6.15,6.15,0,1,1,.009,12.3H545.347l-2.531,1.265h25.32a7.416,7.416,0,1,0,.007-14.831Z"/>
      </g>
      <g id="Grupo_210" data-name="Grupo 210">
        <g id="Grupo_209" data-name="Grupo 209">
          <path id="Caminho_540" data-name="Caminho 540" class="cls-5" d="M557.294,436.876l-1.342-1.342,6.606-6.606a.949.949,0,0,1,1.342,1.342Z"/>
        </g>
      </g>
      <g id="Grupo_212" data-name="Grupo 212">
        <g id="Grupo_211" data-name="Grupo 211">
          <line id="Linha_8" data-name="Linha 8" class="cls-5" x2="26.566" y2="7.267" transform="translate(554.987 448.52)"/>
          <line id="Linha_9" data-name="Linha 9" class="cls-5" x1="7.498" y1="27.371" transform="translate(564.428 439.077)"/>
          <line id="Linha_10" data-name="Linha 10" class="cls-5" x1="19.201" y2="19.202" transform="translate(558.431 442.263)"/>
        </g>
      </g>
      <g id="Grupo_214" data-name="Grupo 214">
        <g id="Grupo_213" data-name="Grupo 213">
          <path id="Caminho_541" data-name="Caminho 541" class="cls-5" d="M567.751,469.76a17.4,17.4,0,1,1,17.4-17.4A17.422,17.422,0,0,1,567.751,469.76Zm0-29.741a12.339,12.339,0,1,0,12.34,12.339A12.353,12.353,0,0,0,567.751,440.019Z"/>
        </g>
      </g>
      <g id="Grupo_219" data-name="Grupo 219">
        <g id="Grupo_215" data-name="Grupo 215">
          <rect id="Retângulo_54" data-name="Retângulo 54" class="cls-5" width="0.422" height="28.159" transform="translate(509.693 438.196)"/>
        </g>
        <g id="Grupo_216" data-name="Grupo 216">
          <rect id="Retângulo_55" data-name="Retângulo 55" class="cls-5" width="28.159" height="0.421" transform="translate(495.824 452.065)"/>
        </g>
        <g id="Grupo_217" data-name="Grupo 217">
          <rect id="Retângulo_56" data-name="Retângulo 56" class="cls-5" width="28.159" height="0.421" transform="translate(499.784 462.068) rotate(-44.915)"/>
        </g>
        <g id="Grupo_218" data-name="Grupo 218">
          <rect id="Retângulo_57" data-name="Retângulo 57" class="cls-5" width="0.421" height="28.159" transform="translate(499.808 442.459) rotate(-44.946)"/>
        </g>
      </g>
      <g id="Grupo_225" data-name="Grupo 225">
        <path id="Caminho_542" data-name="Caminho 542" class="cls-5" d="M510.167,435.031a17.4,17.4,0,1,0,17.4,17.4A17.423,17.423,0,0,0,510.167,435.031Z"/>
        <g id="Grupo_220" data-name="Grupo 220">
          <line id="Linha_11" data-name="Linha 11" class="cls-5" x2="26.566" y2="7.267" transform="translate(497.066 448.428)"/>
          <line id="Linha_12" data-name="Linha 12" class="cls-5" x1="7.498" y1="27.37" transform="translate(506.507 438.985)"/>
          <line id="Linha_13" data-name="Linha 13" class="cls-5" x1="19.201" y2="19.202" transform="translate(500.509 442.171)"/>
        </g>
        <g id="Grupo_224" data-name="Grupo 224">
          <g id="Grupo_222" data-name="Grupo 222">
            <g id="Grupo_221" data-name="Grupo 221">
              <path id="Caminho_543" data-name="Caminho 543" class="cls-5" d="M510.167,469.835a17.4,17.4,0,1,1,17.4-17.4A17.422,17.422,0,0,1,510.167,469.835Zm0-29.741a12.34,12.34,0,1,0,12.34,12.339A12.354,12.354,0,0,0,510.167,440.094Z"/>
            </g>
          </g>
          <g id="Grupo_223" data-name="Grupo 223">
            <path id="Caminho_544" data-name="Caminho 544" class="cls-5" d="M514.6,452.433a4.429,4.429,0,1,1-4.43-4.429A4.43,4.43,0,0,1,514.6,452.433Z"/>
          </g>
        </g>
      </g>
      <g id="Grupo_227" data-name="Grupo 227">
        <g id="Grupo_226" data-name="Grupo 226">
          <rect id="Retângulo_58" data-name="Retângulo 58" class="cls-5" width="5.588" height="2.096" transform="translate(547.069 425.414) rotate(-78.366)"/>
        </g>
      </g>
      <g id="Grupo_228" data-name="Grupo 228">
        <path id="Caminho_545" data-name="Caminho 545" class="cls-5" d="M574.277,452.358a6.486,6.486,0,1,1-6.485-6.486A6.486,6.486,0,0,1,574.277,452.358Z"/>
      </g>
      <g id="Grupo_229" data-name="Grupo 229">
        <path id="Caminho_546" data-name="Caminho 546" class="cls-5" d="M511.169,451.221a.95.95,0,1,1-.949-.949A.949.949,0,0,1,511.169,451.221Z"/>
      </g>
      <g id="Grupo_232" data-name="Grupo 232">
        <g id="Grupo_230" data-name="Grupo 230">
          <path id="Caminho_547" data-name="Caminho 547" class="cls-5" d="M551.126,419.713h3.931a1.029,1.029,0,0,0,.966-.574,2.789,2.789,0,0,0,.232-1.113,2.846,2.846,0,0,0-2.847-2.847,2.81,2.81,0,0,0-1.017.189c-1.444.559-2.671,1.814-4.22,1.814H542.65a2.531,2.531,0,0,0-2.451,1.9.531.531,0,0,0,.553.632Z"/>
        </g>
        <g id="Grupo_231" data-name="Grupo 231">
          <path id="Caminho_548" data-name="Caminho 548" class="cls-5" d="M551.813,419.7a1.226,1.226,0,0,1-1.226,1.226h-2.808a1.225,1.225,0,0,1-1.226-1.226h5.26Z"/>
        </g>
      </g>
      <g id="Grupo_234" data-name="Grupo 234">
        <g id="Grupo_233" data-name="Grupo 233">
          <path id="Caminho_549" data-name="Caminho 549" class="cls-5" d="M511.378,452.5a1.266,1.266,0,1,1-2.5-.421l6.152-36.6,2.5.42Z"/>
        </g>
      </g>
      <g id="Grupo_235" data-name="Grupo 235">
        <rect id="Retângulo_59" data-name="Retângulo 59" class="cls-5" width="27.562" height="2.531" transform="matrix(0.167, -0.986, 0.986, 0.167, 541.604, 454.839)"/>
      </g>
      <g id="Grupo_236" data-name="Grupo 236">
        <rect id="Retângulo_60" data-name="Retângulo 60" class="cls-5" width="2.847" height="2.578" transform="matrix(0.181, -0.983, 0.983, 0.181, 546.535, 426.612)"/>
      </g>
      <g id="Grupo_237" data-name="Grupo 237">
        <path id="Retângulo_61" data-name="Retângulo 61" class="cls-5" d="M.633,0h.95a.632.632,0,0,1,.632.632v4.43a.633.633,0,0,1-.633.633H.633A.633.633,0,0,1,0,5.062V.633A.633.633,0,0,1,.633,0Z" transform="translate(545.42 424.558) rotate(-79.312)"/>
      </g>
      <path id="Caminho_550" data-name="Caminho 550" class="cls-5" d="M518.5,411.183v-1.74h-8.226v3.006a8.642,8.642,0,0,0,2.515,6.072l3.736,3.736a.326.326,0,0,0,.552-.177l.177-1.05a1.234,1.234,0,0,0-.342-1.071l-2.781-2.78a6.735,6.735,0,0,1-1.959-4.73v-1.266Z"/>
      <g id="Grupo_238" data-name="Grupo 238">
        <path id="Caminho_551" data-name="Caminho 551" class="cls-5" d="M518.076,416.61l-3.658-.671h0a1.266,1.266,0,0,1,1.474-1.016l1.168.214a1.266,1.266,0,0,1,1.016,1.473Z"/>
      </g>
      <path id="Caminho_552" data-name="Caminho 552" class="cls-5" d="M569.155,450.342l-18.574-22.228a4.278,4.278,0,0,0-3.292-1.539l-34.092-.167-.493,2.933,23.555,23.211a4.669,4.669,0,0,0,3.278,1.358h27.951a2.174,2.174,0,0,0,1.667-3.568Zm-29.618.4a1.482,1.482,0,0,1-1.041-.431l-20.577-20.576h29.37a1.135,1.135,0,0,1,.864.4l17.217,20.6Z"/>
      <g id="Grupo_244" data-name="Grupo 244">
        <g id="Grupo_239" data-name="Grupo 239">
          <path id="Caminho_553" data-name="Caminho 553" class="cls-5" d="M542.242,444.438a7.712,7.712,0,1,0,7.712,7.712A7.713,7.713,0,0,0,542.242,444.438Z"/>
        </g>
        <g id="Grupo_240" data-name="Grupo 240">
          <path id="Caminho_554" data-name="Caminho 554" class="cls-5" d="M546.81,452.276a4.694,4.694,0,1,1-4.694-4.694A4.693,4.693,0,0,1,546.81,452.276Z"/>
        </g>
        <g id="Grupo_243" data-name="Grupo 243">
          <g id="Grupo_241" data-name="Grupo 241">
            <path id="Caminho_555" data-name="Caminho 555" class="cls-5" d="M534.63,461.852l-1.8-1.781,8.013-8.094a1.266,1.266,0,1,1,1.8,1.781Z"/>
          </g>
          <g id="Grupo_242" data-name="Grupo 242">
            <path id="Caminho_556" data-name="Caminho 556" class="cls-5" d="M538.533,461.268a1.582,1.582,0,0,1-1.582,1.582h-6.329a1.582,1.582,0,0,1,0-3.164h6.329A1.582,1.582,0,0,1,538.533,461.268Z"/>
          </g>
        </g>
      </g>
      <g id="Grupo_245" data-name="Grupo 245">
        <path id="Caminho_557" data-name="Caminho 557" class="cls-5" d="M522.916,405.842a1.688,1.688,0,0,1,0,2.386l-3.505,3.505a.633.633,0,0,1-.9,0l-1.491-1.491a.631.631,0,0,1,0-.9l3.505-3.5A1.687,1.687,0,0,1,522.916,405.842Z"/>
      </g>
    </g>
  </g>
</svg>
