<svg xmlns="http://www.w3.org/2000/svg" xmlns:xlink="http://www.w3.org/1999/xlink" width="37.469" height="106.844" viewBox="0 0 37.469 106.844">
  <defs>
    <style>
      .cls-1 {
        fill: #0c326f;
      }

      .cls-1, .cls-10, .cls-11, .cls-12, .cls-13, .cls-14, .cls-15, .cls-16, .cls-2, .cls-3, .cls-4, .cls-5, .cls-6, .cls-7, .cls-8, .cls-9 {
        fill-rule: evenodd;
      }

      .cls-2 {
        fill: #5771ad;
      }

      .cls-3 {
        fill: #56524f;
      }

      .cls-4 {
        fill: #4b4846;
      }

      .cls-17, .cls-5 {
        fill: #7b519b;
      }

      .cls-6 {
        fill: #e7e7e4;
      }

      .cls-7 {
        fill: url(#linear-gradient);
      }

      .cls-8 {
        fill: url(#linear-gradient-2);
      }

      .cls-9 {
        fill: #1c1c1c;
      }

      .cls-10 {
        fill: #8b5937;
      }

      .cls-11 {
        fill: #676361;
      }

      .cls-12 {
        fill: #c5c6c6;
      }

      .cls-13 {
        fill: #666;
      }

      .cls-14 {
        fill: #754233;
      }

      .cls-15 {
        fill: #eeedea;
      }

      .cls-16 {
        fill: #5a3830;
      }
    </style>
    <linearGradient id="linear-gradient" x1="0.523" y1="0.397" x2="0.447" y2="0.859" gradientUnits="objectBoundingBox">
      <stop offset="0" stop-color="#723b27"/>
      <stop offset="1" stop-color="#8e573a"/>
    </linearGradient>
    <linearGradient id="linear-gradient-2" x1="0.499" y1="0.231" x2="0.508" y2="0.948" gradientUnits="objectBoundingBox">
      <stop offset="0" stop-color="#875526"/>
      <stop offset="1" stop-color="#8e573a"/>
    </linearGradient>
  </defs>
  <g id="Grupo_381" data-name="Grupo 381" transform="translate(-240.811 -388.039)">
    <path id="Caminho_928" data-name="Caminho 928" class="cls-1" d="M278.237,494.613a2.79,2.79,0,0,0-.566-1.773,5.714,5.714,0,0,0-2.137-.232l-2.3-.913-3.038.875,0,2.03Z"/>
    <path id="Caminho_929" data-name="Caminho 929" class="cls-2" d="M248.95,439.438l.682,12.17.778,16.371-.275,6.6,1.274,17.677,3.731.084.568-24.111L256.5,447.1l1.455.327,6.239,20.728.657,7.021,5.084,17.7,3.241-1.262-3.685-24.076-4.663-21.986-.6-5.873Z"/>
    <path id="Caminho_930" data-name="Caminho 930" class="cls-1" d="M250.027,494.549a4.071,4.071,0,0,1,.82-1.749,4.841,4.841,0,0,1,1.2-.519l2.82.059,1.09,1.683-.008.534Z"/>
    <path id="Caminho_931" data-name="Caminho 931" class="cls-3" d="M255.5,446.586c1.506.4,2.2.549,3.554.866L259,447.7c-1.358-.318-2.051-.465-3.561-.866Z"/>
    <path id="Caminho_932" data-name="Caminho 932" class="cls-4" d="M258.964,414.345c-3.039,5.72-5.7,10.381-7.97,14.359-1.438,2.519-2.717,4.59-3.866,6.71l-1.508-.811c1.129-2.083,2.427-4.187,3.886-6.743,2.234-3.915,4.853-8.5,7.943-14.319Z"/>
    <path id="Caminho_933" data-name="Caminho 933" class="cls-1" d="M245.331,409.038c.649-.793,2.564-1.764,4.776-2.615,1.753-.674,4.2-1.521,5.424-1.891,2.07.689,7.114,2.275,9.211,3.478.456.261.568.951.617,1.412.272,2.549.017,8.189-.846,8.649.213,5.843-.456,8.053.119,15.2.127,1.59.177,2.081.4,3.62a12.732,12.732,0,0,1,.225,1.261c.047,2.915-5.178,2.848-9.861,2.61-3.124-.16-5.513-.465-6.84-1.757-.989-.574-.176-2.4-.148-3.135a78.922,78.922,0,0,0-.45-15.119c-1.849-1.927-2.529-.7-3.5-2.639C244.1,416.326,244.143,410.487,245.331,409.038Z"/>
    <path id="Caminho_934" data-name="Caminho 934" class="cls-5" d="M250.571,406.246l.5-.186a20.913,20.913,0,0,0,2.446,4.665,10.829,10.829,0,0,0,2.859,2.872,10.864,10.864,0,0,0,1.929-2.542,17.634,17.634,0,0,0,1.366-3.189c.076-.232.171-.559.266-.9.084-.3.167-.611.235-.872q.255.09.509.183c-.066.251-.142.535-.219.809-.094.339-.191.671-.271.918a18.143,18.143,0,0,1-1.4,3.274,11.207,11.207,0,0,1-2.183,2.81l-.155.142-.184-.109a11.019,11.019,0,0,1-3.2-3.129A21.359,21.359,0,0,1,250.571,406.246Z"/>
    <path id="Caminho_935" data-name="Caminho 935" class="cls-6" d="M259.377,405.813c-1.247-.427-2.582-.879-3.829-1.306-1.2.4-2.531.852-3.719,1.283a15.642,15.642,0,0,0,4.481,6.638A14.741,14.741,0,0,0,259.377,405.813Z"/>
    <path id="Caminho_936" data-name="Caminho 936" class="cls-7" d="M253.337,400.519l-.08,5.175a3.96,3.96,0,0,0,3.067,1.284,2.243,2.243,0,0,0,1.806-1.286l-.153-6.308Z"/>
    <path id="Caminho_937" data-name="Caminho 937" class="cls-5" d="M264.5,441.373c-5.04,1.047-10.775.586-15.349,0l-.157-2.042a39.177,39.177,0,0,0,15.613.319Z"/>
    <path id="Caminho_938" data-name="Caminho 938" class="cls-8" d="M260.7,401.125c-.707,1.3-2.736,3.185-3.89,3.044-1.6-.194-3.437-2-4.028-2.641-.718-2.025-.636-2.264-1.057-5.5a8.166,8.166,0,0,1,1.109-5.608c1.08-1.7,2.826-1.43,4.647-1.315,1.6.1,2.76-.348,3.706,1.475a6.57,6.57,0,0,1,.343,3.141c-.009.6-.149,1.222-.217,1.811.016.407.129.816.152,1.171C261.252,398.152,261.039,399.636,260.7,401.125Z"/>
    <path id="Caminho_939" data-name="Caminho 939" class="cls-9" d="M251.579,394.627a19.271,19.271,0,0,1-.377-3.4c-.026-1.887,3.2-3.154,5.338-3.188a7.243,7.243,0,0,1,3.5.859,3.494,3.494,0,0,1,1.883,2.237,17.047,17.047,0,0,1-.369,3.3l-.161.524s.036-2.691-.45-3.173a3.394,3.394,0,0,0-3.3-.769c-1.021-.332-3.025-1.256-4.855.549a8.387,8.387,0,0,0-.284,3.422Z"/>
    <path id="Caminho_940" data-name="Caminho 940" class="cls-10" d="M252.626,395.42c0,.517-.23,1.195-.727,1.195a1.335,1.335,0,0,1-1.071-1.195.976.976,0,0,1,.886-1.01A1,1,0,0,1,252.626,395.42Z"/>
    <path id="Caminho_941" data-name="Caminho 941" class="cls-4" d="M263.25,407.166c-1.037,4.529-2.314,9.369-3.828,13.909-2.236,6.711-4.613,12.747-6.032,16.184l-1.582-.65c1.414-3.423,3.778-9.427,5.992-16.07,1.493-4.478,2.8-9.437,3.831-13.933A3.044,3.044,0,0,1,263.25,407.166Z"/>
    <path id="Caminho_942" data-name="Caminho 942" class="cls-11" d="M245.638,434.526c3.053.264,4.795-.007,7.848.258,0,6.037-.243,10.684-1.609,15.688-3.291-.038-4.912-.079-7.81-1.7A65.544,65.544,0,0,1,245.638,434.526Z"/>
    <path id="Caminho_943" data-name="Caminho 943" class="cls-4" d="M252.465,434.715l1.929.068c0,6.038-.243,10.684-1.609,15.689a14.4,14.4,0,0,1-2-.032A58.385,58.385,0,0,0,252.465,434.715Z"/>
    <path id="Caminho_944" data-name="Caminho 944" class="cls-12" d="M270.573,411.092l3.852.591,2.972-10.356-4.75-1.079Z"/>
    <path id="Caminho_945" data-name="Caminho 945" class="cls-13" d="M270.4,411.031l.326.119,2.1-10.9-.445.058Z"/>
    <path id="Caminho_946" data-name="Caminho 946" class="cls-14" d="M271.184,417.753l.977-3.78-.131-1.22.429-.811.324-2.422-.99-1.04.417-1.116,1.675.207-.251-.49.305-.379,2.1,1.455.322,2.46-2.238,4.267-.676,3.685Z"/>
    <path id="Caminho_947" data-name="Caminho 947" class="cls-15" d="M274.181,402.975a.362.362,0,0,0,.724,0,.362.362,0,1,0-.724,0Z"/>
    <path id="Caminho_948" data-name="Caminho 948" class="cls-16" d="M273.442,408.48a.079.079,0,0,0,.07-.046.076.076,0,0,0-.04-.1l-.609-.254a.077.077,0,0,0-.059.142l.609.253.029.007Zm1.32-.2a.076.076,0,0,0,.046-.138l-.824-.623a.081.081,0,0,0-.108.017.075.075,0,0,0,.016.1l.825.622A.064.064,0,0,0,274.762,408.276Z"/>
    <path id="Caminho_949" data-name="Caminho 949" class="cls-1" d="M264.586,408c.238.1.347.071.627.633a54.55,54.55,0,0,1,2.23,6.266c.736,2.357,1.632,4.758,2.251,6.454.272-.671.872-2.724,1.906-6.083a10.692,10.692,0,0,0,2.753.744c-.276,2.4-1.245,9.1-2.472,12.488-.681,1.881-1.971,2.57-2.985,1.253-2.228-2.3-5.976-10.056-6.2-11.077a26.932,26.932,0,0,1,.965-9.482C263.857,408.563,263.927,407.967,264.586,408Z"/>
    <path id="Caminho_950" data-name="Caminho 950" class="cls-1" d="M245.1,409.495c.26-.134.587-.282.965-.437l2.544,5.148-.4,5.5c-.649,2.107-1.727,4.334-2.47,6.521l-.666,2.407-1.54.683-2.72.224a36.023,36.023,0,0,1,.178-3.756C241.348,422.17,243.513,412.369,245.1,409.495Z"/>
    <path id="Caminho_951" data-name="Caminho 951" class="cls-14" d="M253.164,431.318l-1.592-.076.039-2.379,1.6.286c.619-.6,1.239-1.083,1.859-1.682l2.744.306.636,2.669-.765.348-.527-1.037-.6.018-.153,1.372Z"/>
    <path id="Caminho_952" data-name="Caminho 952" class="cls-1" d="M252.625,431.774c-2.579-.134-7.127-.263-9.474-.519-.983-.108-2.185-.526-2.338-1.723a14.3,14.3,0,0,1,1.956-2.81l10.173,2.363Z"/>
    <path id="Caminho_953" data-name="Caminho 953" class="cls-17" d="M252.714,429.144c-1.347-.243-2.807-.582-3.929-.851l.079-.328c1.117.267,2.572.605,3.91.847Z"/>
    <path id="Caminho_954" data-name="Caminho 954" class="cls-17" d="M249.493,431.866a8.026,8.026,0,0,1-.914-.044l.04-.336a19.444,19.444,0,0,0,3.8-.152l.037.335A29.265,29.265,0,0,1,249.493,431.866Z"/>
    <path id="Caminho_955" data-name="Caminho 955" class="cls-17" d="M264.329,422.389c-.043-1.016-.059-2.427-.049-4.313l.338,0c-.01,1.881.006,3.286.049,4.3Z"/>
    <path id="Caminho_956" data-name="Caminho 956" class="cls-17" d="M247.845,420.535c-.016-.864-.021-1.893-.014-3.145l.338,0c-.007,1.249,0,2.275.014,3.136Z"/>
    <path id="Caminho_957" data-name="Caminho 957" class="cls-13" d="M278.28,494.882l-8.086-.018-.042-.788,8.048.019Z"/>
    <path id="Caminho_958" data-name="Caminho 958" class="cls-13" d="M255.961,494.884l-5.948-.007.148-.788,5.8.007Z"/>
  </g>
</svg>
