<svg xmlns="http://www.w3.org/2000/svg" width="51.965" height="108.724" viewBox="0 0 51.965 108.724">
  <defs>
    <style>
      .cls-1 {
        fill: #e9a754;
      }

      .cls-2 {
        fill: #872f26;
      }

      .cls-3 {
        fill: #8c6239;
      }

      .cls-4 {
        fill: #1a2246;
      }

      .cls-5 {
        fill: #97b7ff;
      }

      .cls-6 {
        fill: #1351b4;
      }

      .cls-7 {
        fill: #2b3d6b;
      }

      .cls-8 {
        fill: #f29866;
      }
    </style>
  </defs>
  <g id="Grupo_372" data-name="Grupo 372" transform="translate(-338.187 -381.372)">
    <g id="Grupo_343" data-name="Grupo 343">
      <g id="Grupo_338" data-name="Grupo 338">
        <g id="Grupo_335" data-name="Grupo 335">
          <path id="Caminho_851" data-name="Caminho 851" class="cls-1" d="M360.038,483.9h-3.72l.4-8.523h3.944Z"/>
          <g id="Grupo_334" data-name="Grupo 334">
            <path id="Caminho_852" data-name="Caminho 852" class="cls-2" d="M355.277,482.754H361.3l-.048,2.65s4.758.22,4.612,4.691H354.815Z"/>
            <rect id="Retângulo_98" data-name="Retângulo 98" class="cls-3" width="11.606" height="1.289" transform="translate(354.501 488.806)"/>
            <path id="Caminho_853" data-name="Caminho 853" class="cls-4" d="M358.488,485.822a.032.032,0,0,1-.029-.017.032.032,0,0,1,.014-.043,5.488,5.488,0,0,1,3.072-.35.033.033,0,0,1,.026.038.032.032,0,0,1-.038.025,5.416,5.416,0,0,0-3.031.344Z"/>
          </g>
        </g>
        <g id="Grupo_337" data-name="Grupo 337">
          <g id="Grupo_336" data-name="Grupo 336">
            <path id="Caminho_854" data-name="Caminho 854" class="cls-5" d="M363.037,431.782l-1.767,53.095-6.455.455-.346-53.777Z"/>
            <path id="Caminho_855" data-name="Caminho 855" class="cls-4" d="M354.469,437.68H358.5l-3.565,9.922Z"/>
          </g>
        </g>
      </g>
      <g id="Grupo_342" data-name="Grupo 342">
        <g id="Grupo_340" data-name="Grupo 340">
          <path id="Caminho_856" data-name="Caminho 856" class="cls-1" d="M350.061,483.9h-3.72v-8.523h3.945Z"/>
          <g id="Grupo_339" data-name="Grupo 339">
            <path id="Caminho_857" data-name="Caminho 857" class="cls-2" d="M345.221,482.754h6.023l-.048,2.65s4.758.22,4.612,4.691H344.759Z"/>
            <rect id="Retângulo_99" data-name="Retângulo 99" class="cls-3" width="11.606" height="1.289" transform="translate(344.445 488.806)"/>
            <path id="Caminho_858" data-name="Caminho 858" class="cls-4" d="M348.432,485.822a.032.032,0,0,1-.029-.017.032.032,0,0,1,.014-.043,5.488,5.488,0,0,1,3.072-.35.033.033,0,0,1,.026.038.032.032,0,0,1-.037.025,5.42,5.42,0,0,0-3.032.344Z"/>
          </g>
        </g>
        <g id="Grupo_341" data-name="Grupo 341">
          <path id="Caminho_859" data-name="Caminho 859" class="cls-5" d="M343.023,431.782l1.736,53.785,6.756-.487,1.839-53.3Z"/>
        </g>
      </g>
      <rect id="Retângulo_100" data-name="Retângulo 100" class="cls-5" width="14.06" height="6.125" transform="translate(345.62 431.555)"/>
    </g>
    <g id="Grupo_347" data-name="Grupo 347">
      <g id="Grupo_344" data-name="Grupo 344">
        <path id="Caminho_860" data-name="Caminho 860" class="cls-6" d="M355.323,404.239c-.426-1.921-1.972-4.976-.09-5.55,2.031-.62,6.237.817,7.4,3.738.563,1.413.73,4.059,1.053,6.819l-7.742.485Z"/>
        <path id="Caminho_861" data-name="Caminho 861" class="cls-1" d="M355.91,409.445l7.742-.485c.427,3.652,1.229,9.508,1.777,11.535a4.055,4.055,0,0,1-3.173,5.045l.038-.017a4.085,4.085,0,0,1-4.741-3.091Z"/>
      </g>
      <g id="Grupo_346" data-name="Grupo 346">
        <path id="Caminho_862" data-name="Caminho 862" class="cls-1" d="M378.659,423.669l-16.673-4.6a3.379,3.379,0,0,0-4.079,2.7l-.138.136a3.354,3.354,0,0,0,3.077,3.819l16.518,1.865Z"/>
        <g id="Grupo_345" data-name="Grupo 345">
          <circle id="Elipse_14" data-name="Elipse 14" class="cls-1" cx="3.471" cy="3.471" r="3.471" transform="translate(374.853 421.961)"/>
          <path id="Caminho_863" data-name="Caminho 863" class="cls-1" d="M381.047,423.6s1.042-.889-.568-1.741-3.7-.9-5.338,2.187Z"/>
        </g>
      </g>
    </g>
    <g id="Grupo_349" data-name="Grupo 349">
      <g id="Grupo_348" data-name="Grupo 348">
        <path id="Caminho_864" data-name="Caminho 864" class="cls-6" d="M352.933,397.787l-8.369,1.716c-.723.149-.984.745-.984,1.483l-.557,30.8h20.014l-1.957-28.518a4.894,4.894,0,0,0-3.718-4.392Z"/>
      </g>
    </g>
    <g id="Grupo_354" data-name="Grupo 354">
      <g id="Grupo_353" data-name="Grupo 353">
        <g id="Grupo_352" data-name="Grupo 352">
          <path id="Caminho_865" data-name="Caminho 865" class="cls-4" d="M359.094,426.245a21.8,21.8,0,0,0-3.416,2.166c-.345.292-.727.883-.379.913.686.048,3.189-2.5,3.795-3.079-.876,1.3-3.653,4.611-4.286,3.267C354.015,428.237,357.628,426.7,359.094,426.245Z"/>
          <g id="Grupo_351" data-name="Grupo 351">
            <g id="Grupo_350" data-name="Grupo 350">
              <path id="Caminho_866" data-name="Caminho 866" class="cls-7" d="M389.23,488.887l-29.811-62.85.565-.268,29.811,62.85.358,1.39Z"/>
            </g>
          </g>
        </g>
      </g>
      <path id="Caminho_867" data-name="Caminho 867" class="cls-4" d="M360.368,425.59l-1.451.71,2.767,4.986.879-.489Z"/>
    </g>
    <path id="Caminho_868" data-name="Caminho 868" class="cls-5" d="M361.471,409.32a.032.032,0,0,1-.032-.029l-.408-4.124a.032.032,0,0,1,.029-.035.034.034,0,0,1,.035.029l.407,4.124a.032.032,0,0,1-.028.035Z"/>
    <path id="Caminho_869" data-name="Caminho 869" class="cls-5" d="M354.637,401.211h-3.27a2.063,2.063,0,0,1-2.061-2.061v-.169a.032.032,0,0,1,.032-.032.032.032,0,0,1,.032.032v.169a2,2,0,0,0,2,2h3.27a2,2,0,0,0,2-2,.032.032,0,0,1,.064,0A2.063,2.063,0,0,1,354.637,401.211Z"/>
    <g id="Grupo_364" data-name="Grupo 364">
      <path id="Caminho_870" data-name="Caminho 870" class="cls-1" d="M356.1,393.895l-.092,4.813c-.047,1.783-1.311,1.876-3.065,1.815v0c-1.5-.052-2.765-.539-2.9-2.031l-.093-5.334Z"/>
      <path id="Caminho_871" data-name="Caminho 871" class="cls-8" d="M356.007,398.566l-4.65-3.26,4.716.106Z"/>
      <path id="Caminho_872" data-name="Caminho 872" class="cls-1" d="M353.049,396.323l2.487.086a3.305,3.305,0,0,0,3.419-3.3l.009-5.161a4.34,4.34,0,0,0-4.19-4.345h0c-2.4-.083-4.825,1.778-4.907,4.173l.082,5.384A3.213,3.213,0,0,0,353.049,396.323Z"/>
      <path id="Caminho_873" data-name="Caminho 873" class="cls-4" d="M348.385,386.18a2.212,2.212,0,0,1,1.652-2.16c.4-.082.822-.169,1.169-.237a1.4,1.4,0,0,1,.714-1.172,2.31,2.31,0,0,1,2.295.179,2.021,2.021,0,0,1,1.858-1.417c2.074.067,4.677,1.874,3.519,4.746-.832,2.063-4.751.669-5.554.468s-1.191-.2-1.015.942c.138.887-1.089,1.039-1.61,1.063l-.324,2.233s-2,.25-1.678,0c.408-.314-.287-2.617-.727-3.255A3.41,3.41,0,0,1,348.385,386.18Z"/>
      <g id="Grupo_362" data-name="Grupo 362">
        <g id="Grupo_360" data-name="Grupo 360">
          <g id="Grupo_356" data-name="Grupo 356">
            <g id="Grupo_355" data-name="Grupo 355">
              <path id="Caminho_874" data-name="Caminho 874" class="cls-4" d="M355.777,389.2a.812.812,0,0,1,.8.952c-.159.919-.641,2.167-2.091,2.129-1.489-.04-1.841-1.332-1.9-2.231a.8.8,0,0,1,.808-.85Z"/>
            </g>
          </g>
          <g id="Grupo_358" data-name="Grupo 358">
            <g id="Grupo_357" data-name="Grupo 357">
              <path id="Caminho_875" data-name="Caminho 875" class="cls-4" d="M359.2,389.2a.806.806,0,0,1,.8.91c-.126.922-.522,2.21-1.754,2.171s-1.539-1.331-1.593-2.229a.807.807,0,0,1,.81-.852Z"/>
            </g>
          </g>
          <g id="Grupo_359" data-name="Grupo 359">
            <rect id="Retângulo_101" data-name="Retângulo 101" class="cls-4" width="3.322" height="1.342" transform="translate(357.931 390.538) rotate(180)"/>
          </g>
        </g>
        <g id="Grupo_361" data-name="Grupo 361">
          <path id="Caminho_876" data-name="Caminho 876" class="cls-4" d="M353.023,389.995H350.7l-.281-.256h2.6Z"/>
        </g>
      </g>
      <g id="Grupo_363" data-name="Grupo 363">
        <path id="Caminho_877" data-name="Caminho 877" class="cls-1" d="M347.683,391.067a1.748,1.748,0,1,0,1.864-1.622A1.748,1.748,0,0,0,347.683,391.067Z"/>
      </g>
    </g>
    <g id="Grupo_370" data-name="Grupo 370">
      <g id="Grupo_366" data-name="Grupo 366">
        <g id="Grupo_365" data-name="Grupo 365">
          <path id="Caminho_878" data-name="Caminho 878" class="cls-1" d="M339.384,409.544l1,14.041a3.39,3.39,0,0,0,2.91,3.088h0a3.188,3.188,0,0,0,3.675-3.051l.406-13.973Z"/>
        </g>
      </g>
      <g id="Grupo_369" data-name="Grupo 369">
        <g id="Grupo_367" data-name="Grupo 367">
          <path id="Caminho_879" data-name="Caminho 879" class="cls-1" d="M346.183,420.3c5.216,4.07,14.243,11.005,14.243,11.005l-1.571,3.741-16.625-8.766a3.6,3.6,0,0,1-.981-5.491h0A3.592,3.592,0,0,1,346.183,420.3Z"/>
        </g>
        <g id="Grupo_368" data-name="Grupo 368">
          <path id="Caminho_880" data-name="Caminho 880" class="cls-1" d="M358.782,436.8a3.317,3.317,0,1,1,4.65-.621A3.317,3.317,0,0,1,358.782,436.8Z"/>
          <path id="Caminho_881" data-name="Caminho 881" class="cls-1" d="M364.07,433.639s1.232-.877-.066-2.037-3.616-1.94-5.843.545Z"/>
        </g>
      </g>
    </g>
    <g id="Grupo_371" data-name="Grupo 371">
      <path id="Caminho_882" data-name="Caminho 882" class="cls-6" d="M344.823,399.461s-7.377.564-6.575,16.449l10.677-.982Z"/>
      <path id="Caminho_883" data-name="Caminho 883" class="cls-5" d="M347.218,415.12h0a.032.032,0,0,1-.031-.033l.272-6.208a.034.034,0,0,1,.034-.031.032.032,0,0,1,.03.033l-.272,6.209A.031.031,0,0,1,347.218,415.12Z"/>
    </g>
  </g>
</svg>
