<svg xmlns="http://www.w3.org/2000/svg" width="185.831" height="107.387" viewBox="0 0 185.831 107.387">
  <defs>
    <style>
      .cls-1 {
        fill: #555;
      }

      .cls-2 {
        fill: #e60000;
      }

      .cls-3 {
        fill: #fff;
      }

      .cls-4 {
        fill: #666;
      }

      .cls-5 {
        fill: #414042;
      }

      .cls-6 {
        fill: #ccc;
      }

      .cls-7 {
        fill: #9e9d9d;
      }

      .cls-8 {
        fill: #b3b3b3;
      }

      .cls-9 {
        fill: #1351b4;
      }

      .cls-10 {
        fill: #ed1c24;
      }

      .cls-11 {
        fill: #ffcd07;
      }

      .cls-12 {
        fill: #888;
      }

      .cls-13, .cls-21, .cls-25 {
        fill: #231f20;
      }

      .cls-13, .cls-24 {
        opacity: 0.61;
      }

      .cls-13, .cls-21, .cls-23, .cls-24, .cls-25 {
        mix-blend-mode: overlay;
        isolation: isolate;
      }

      .cls-14 {
        fill: #5992ed;
      }

      .cls-15 {
        fill: #f5b379;
      }

      .cls-16 {
        fill: #4d4d4d;
      }

      .cls-17 {
        fill: #0d31a3;
      }

      .cls-18 {
        fill: #1a1a1a;
      }

      .cls-19 {
        fill: gray;
      }

      .cls-20, .cls-23 {
        fill: #f29866;
      }

      .cls-22, .cls-24 {
        fill: #ff8c00;
      }

      .cls-25 {
        opacity: 0.36;
      }

      .cls-26 {
        fill: #2948bd;
      }

      .cls-27 {
        fill: #134b7a;
      }

      .cls-28 {
        fill: #009fe3;
      }

      .cls-29 {
        fill: #706f6f;
      }

      .cls-30 {
        fill: #9e005d;
      }

      .cls-31 {
        fill: #ff1d25;
      }

      .cls-32 {
        fill: #d4145a;
      }

      .cls-33 {
        fill: #ed1e79;
      }
    </style>
  </defs>
  <g id="Grupo_325" data-name="Grupo 325" transform="translate(-1034.239 -382.642)">
    <g id="Grupo_300" data-name="Grupo 300">
      <path id="Caminho_736" data-name="Caminho 736" class="cls-1" d="M1163.155,421.407l1.414,1.24s9.522,22.934,9.61,25.634-1.288,3.854-2.906,3.489-.709-.729-3.244-3.912-10.9-11.236-10.963-15.156,2.7-9.3,2.7-9.3S1161.879,420.643,1163.155,421.407Z"/>
      <g id="Grupo_281" data-name="Grupo 281">
        <path id="Caminho_737" data-name="Caminho 737" class="cls-2" d="M1170.779,470.84s.185,3.757,1.472,4.719a4.049,4.049,0,0,0,2.263.943,10.574,10.574,0,0,1-2.959-.427,7.479,7.479,0,0,1-2.333-1.918l.146-3.357Z"/>
        <path id="Caminho_738" data-name="Caminho 738" class="cls-2" d="M1174.512,476.515h-.011a10.573,10.573,0,0,1-2.951-.427,7.543,7.543,0,0,1-2.338-1.923l0,0v-.005l.146-3.37h.013l1.424.041v.012c0,.038.2,3.762,1.466,4.71a4.154,4.154,0,0,0,2.242.939h.013v.027Zm-5.276-2.363a7.443,7.443,0,0,0,2.323,1.911,9.562,9.562,0,0,0,2.636.417,4.682,4.682,0,0,1-1.951-.91c-1.242-.928-1.464-4.48-1.477-4.717l-1.387-.04Z"/>
      </g>
      <path id="Caminho_739" data-name="Caminho 739" class="cls-1" d="M1174.793,446.449a2.7,2.7,0,0,1,.412,2.643c-.535,1.641-4.535,18.773-3.779,22.985l-2.34.03s-2.15-13.314-.453-18.137a47.631,47.631,0,0,0,2.191-8.415S1172.824,443.762,1174.793,446.449Z"/>
      <g id="Grupo_282" data-name="Grupo 282">
        <rect id="Retângulo_89" data-name="Retângulo 89" class="cls-3" width="1.923" height="28.448" transform="translate(1159.056 448.136) rotate(-15.249)"/>
      </g>
      <g id="Grupo_284" data-name="Grupo 284">
        <g id="Grupo_283" data-name="Grupo 283">
          <rect id="Retângulo_90" data-name="Retângulo 90" class="cls-4" width="1.024" height="10.113" transform="translate(1155.877 437.766) rotate(-21.678)"/>
        </g>
      </g>
      <g id="Grupo_285" data-name="Grupo 285">
        <path id="Caminho_740" data-name="Caminho 740" class="cls-5" d="M1163,438.092s.427-1.365-2.731-1.279-7.427-.512-8.28-1.024-1.281-.426-1.2.342a2.182,2.182,0,0,0,2.134,1.963,19.861,19.861,0,0,0,5.122-.172A37.558,37.558,0,0,1,1163,438.092Z"/>
      </g>
      <g id="Grupo_286" data-name="Grupo 286">
        <path id="Caminho_741" data-name="Caminho 741" class="cls-6" d="M1203.125,471.676a1.58,1.58,0,1,1-1.58-1.579A1.58,1.58,0,0,1,1203.125,471.676Z"/>
      </g>
      <g id="Grupo_287" data-name="Grupo 287">
        <path id="Caminho_742" data-name="Caminho 742" class="cls-7" d="M1145.675,471.266a3.975,3.975,0,1,1-3.976-3.975A3.975,3.975,0,0,1,1145.675,471.266Z"/>
      </g>
      <g id="Grupo_289" data-name="Grupo 289">
        <g id="Grupo_288" data-name="Grupo 288">
          <path id="Caminho_743" data-name="Caminho 743" class="cls-5" d="M1142.094,489.611A18.908,18.908,0,1,1,1161,470.7,18.93,18.93,0,0,1,1142.094,489.611Zm-.005-36.022a17.115,17.115,0,1,0,17.118,17.112A17.134,17.134,0,0,0,1142.089,453.589Z"/>
        </g>
      </g>
      <g id="Grupo_291" data-name="Grupo 291">
        <g id="Grupo_290" data-name="Grupo 290">
          <path id="Caminho_744" data-name="Caminho 744" class="cls-6" d="M1142.054,487.848a17.185,17.185,0,1,1,17.183-17.187A17.2,17.2,0,0,1,1142.054,487.848Zm-.005-32.74a15.555,15.555,0,1,0,15.558,15.553A15.573,15.573,0,0,0,1142.049,455.108Z"/>
        </g>
      </g>
      <g id="Grupo_293" data-name="Grupo 293">
        <g id="Grupo_292" data-name="Grupo 292">
          <path id="Caminho_745" data-name="Caminho 745" class="cls-5" d="M1201.165,490.029a18.907,18.907,0,1,1,18.9-18.91A18.929,18.929,0,0,1,1201.165,490.029Zm-.005-36.022a17.115,17.115,0,1,0,17.117,17.113A17.135,17.135,0,0,0,1201.16,454.007Z"/>
        </g>
      </g>
      <g id="Grupo_295" data-name="Grupo 295">
        <g id="Grupo_294" data-name="Grupo 294">
          <path id="Caminho_746" data-name="Caminho 746" class="cls-8" d="M1201.125,488.267a17.185,17.185,0,1,1,17.182-17.187A17.2,17.2,0,0,1,1201.125,488.267Zm-.005-32.74a15.555,15.555,0,1,0,15.558,15.553A15.573,15.573,0,0,0,1201.12,455.527Z"/>
        </g>
      </g>
      <path id="Caminho_747" data-name="Caminho 747" class="cls-7" d="M1183.736,436.653h2.005l2.624,7.1h-1.929s-2.392-6.711-2.392-6.942Z"/>
      <g id="Grupo_297" data-name="Grupo 297">
        <g id="Grupo_296" data-name="Grupo 296">
          <path id="Caminho_748" data-name="Caminho 748" class="cls-9" d="M1166.931,476.937c-.062,0-.12-.005-.179-.01-.1-.008-20.352-4.109-25.291-5.109a.654.654,0,0,1-.375-1.058c5.333-6.468,18.154-23.558,18.2-23.614l.137-.17a.657.657,0,0,1,.467-.244l28.638-1.966a.656.656,0,0,1,.665.442l1.752,5.107a.657.657,0,0,1-.118.634l-.18.215c-.054.064-5.415,6.452-10.9,12.742C1169.113,476.114,1167.736,476.937,1166.931,476.937Zm-23.679-7.034a.654.654,0,0,0,.414,1.055c2.644.4,7.752,1.14,15.74,2.445,3.078.5,5.829.952,7,1.14a.648.648,0,0,0,.523-.144c2.52-2.083,12.418-13.377,21.3-23.934a.656.656,0,0,0,.118-.635l-.755-2.2a.656.656,0,0,0-.665-.441l-25.866,1.775a.655.655,0,0,0-.465.242C1155.015,456.148,1146.683,465.593,1143.252,469.9Z"/>
        </g>
      </g>
      <g id="Grupo_298" data-name="Grupo 298">
        <path id="Caminho_749" data-name="Caminho 749" class="cls-5" d="M1173.164,475.33a5.7,5.7,0,1,1-5.7-5.7A5.7,5.7,0,0,1,1173.164,475.33Z"/>
      </g>
      <g id="Grupo_299" data-name="Grupo 299">
        <path id="Caminho_750" data-name="Caminho 750" class="cls-6" d="M1170.84,475.41a3.375,3.375,0,1,1-3.375-3.374A3.373,3.373,0,0,1,1170.84,475.41Z"/>
      </g>
      <path id="Caminho_751" data-name="Caminho 751" class="cls-5" d="M1188.183,442.7l.855-.054a.721.721,0,0,1,.587.855c-.16.694-.587.748-.427,1.068a.76.76,0,0,1-.006.64s-3.2.429-3.679.162.481-.7.213-.908-1.388-1.175-.32-1.549Z"/>
      <path id="Caminho_752" data-name="Caminho 752" class="cls-9" d="M1190.826,450.949s.857-.182,1.7.975,3.4,12.65,5.4,15.735a9.624,9.624,0,0,0,4.089,3.856l-.155.848a14.136,14.136,0,0,1-5.091-4.01C1194.384,465.422,1188.5,452.288,1190.826,450.949Z"/>
      <rect id="Retângulo_91" data-name="Retângulo 91" class="cls-8" width="5.862" height="2.237" rx="0.145" transform="translate(1182.887 435.341)"/>
      <path id="Caminho_753" data-name="Caminho 753" class="cls-5" d="M1186.975,437.423a1.388,1.388,0,1,1-1.388-1.388A1.388,1.388,0,0,1,1186.975,437.423Z"/>
      <path id="Caminho_754" data-name="Caminho 754" class="cls-10" d="M1155.771,469.778s-.813,3.2-.09,4.637.065,1.47.065,1.47a3.672,3.672,0,0,1-1.618-1.076,7.482,7.482,0,0,1-1.231-2.757l1.628-2.94Z"/>
      <path id="Caminho_755" data-name="Caminho 755" class="cls-11" d="M1183.076,404.254s1.52-1.131,1.276-2.3-3.222-4.229-4.524-3.885-1.045-.06-2.676.126-3.34,2.849-3.678,4.389.349,1.889-1.087,2.007-3.113.508-3.553,1.755.153,2.22-1.319,2.076-1.3-1.845-1.3-1.845a1.879,1.879,0,0,0-2.2,1.7,3.349,3.349,0,0,0,2.211,3.989c1.676.729,8.008-2.134,9.041-3.1s3.064-5.335,3.554-5.341S1183.076,404.254,1183.076,404.254Z"/>
      <path id="Caminho_756" data-name="Caminho 756" class="cls-12" d="M1166.242,423.5l-1.151-1.488c-1.107-.992-5.506,1.316-5.506,1.316a51.471,51.471,0,0,0-2.626,8.611c-.684,3.86,5.991,13.362,7.873,16.969.179.344.312.63.444.915a53,53,0,0,1-4.093,4.442c-3.672,3.559-7.688,16.433-7.688,16.433l2.107,1.017c1.089-3.717,10.366-15.139,13.017-18.189,1.008-.2,1.869-1.166,2.169-3.031C1171.217,447.826,1166.242,423.5,1166.242,423.5Z"/>
      <rect id="Retângulo_92" data-name="Retângulo 92" class="cls-5" width="1.191" height="2.571" transform="matrix(-0.788, -0.616, 0.616, -0.788, 1155.124, 476.875)"/>
      <path id="Caminho_757" data-name="Caminho 757" class="cls-5" d="M1166.639,474.586l-6.9.439-.188.878,7.4.063S1167.642,474.774,1166.639,474.586Z"/>
      <path id="Caminho_758" data-name="Caminho 758" class="cls-13" d="M1184.352,401.95a3.843,3.843,0,0,0-.826-1.385c-.929.849-2.5,2.055-3.782,1.848-1.944-.314-3.01-1.819-4.138-.376s-.126,4.2-1.756,4.828-1.38-1.442-2.508-.376-4.7,5.2-5.769,3.762c-.84-1.137-.124-2.768.525-3.69a1.85,1.85,0,0,0-2.081,1.708,3.35,3.35,0,0,0,2.211,3.989c1.676.729,8.008-2.134,9.041-3.1s3.064-5.335,3.554-5.341,4.253.432,4.253.432S1184.6,403.123,1184.352,401.95Z"/>
      <path id="Caminho_759" data-name="Caminho 759" class="cls-13" d="M1153.495,470.7l.964.466c1.288-3.585,4.19-11.539,5.22-13.275,1.337-2.258,7.524-8.445,7.524-8.445s-7.942-13.628-8.11-16.888c-.119-2.337,2.117-7.579,3.458-10.463a21.249,21.249,0,0,0-2.966,1.235,51.471,51.471,0,0,0-2.626,8.611c-.684,3.86,5.991,13.362,7.873,16.969.179.344.312.63.444.915a53,53,0,0,1-4.093,4.442C1157.511,457.821,1153.495,470.7,1153.495,470.7Z"/>
      <path id="Caminho_760" data-name="Caminho 760" class="cls-14" d="M1172.424,409.62a3.689,3.689,0,0,1,1.947,2.239c.5,1.648,1.443,6.863-.272,8.846s-6.526,3.879-7.842,6.38l-6.671-3.657S1167.608,404.588,1172.424,409.62Z"/>
      <path id="Caminho_761" data-name="Caminho 761" class="cls-13" d="M1174.371,411.859a3.689,3.689,0,0,0-1.947-2.239,3.251,3.251,0,0,0-.414-.363c.36,2.977.861,9.652-.543,11.152-1.818,1.944-3.7,3.512-5.518,2.759a8.72,8.72,0,0,1-3.072-2.32s-.753,1.066.188,3.261c.213.5-.009.8-.459.975l3.651,2c1.316-2.5,6.126-4.4,7.842-6.38S1174.873,413.507,1174.371,411.859Z"/>
      <path id="Caminho_762" data-name="Caminho 762" class="cls-15" d="M1188.272,435.521a1.637,1.637,0,0,0-1.193-.733c-2.1-1.879-10.017-8.94-10.292-8.942-.278-1.065-.824-2.508-.824-2.508s-3.363-9.544-4.726-9.885-2.316-.333-2.809,1.807,4.948,13.136,5.925,13.323c.157.03,8.653,5.492,11.4,7.016a.3.3,0,0,0,.265.235c.627.126.752,1.568,1.191,2.007S1188.749,436.459,1188.272,435.521Z"/>
      <path id="Caminho_763" data-name="Caminho 763" class="cls-13" d="M1187.631,437.578c.551-1.2-1.616-2.5-1.616-2.5s-9.343-6.145-10.848-7.525c-1.4-1.285-5.47-12.365-6.018-13.867a3.2,3.2,0,0,0-.721,1.57c-.492,2.141,4.948,13.136,5.925,13.323.157.03,8.653,5.492,11.4,7.016a.3.3,0,0,0,.265.235c.627.126.752,1.568,1.191,2.007.1.1.234.071.375-.024A.725.725,0,0,1,1187.631,437.578Z"/>
      <path id="Caminho_764" data-name="Caminho 764" class="cls-15" d="M1173.874,411.545l3.23-2.767s1.279,1.159,1.908.977,2-1.9,3.068-3.44a8.541,8.541,0,0,0,1.331-3.089s-3.7,1.509-5.206.027a.628.628,0,0,0-.943-.51,2.252,2.252,0,0,0-1.235,2.108c.16.564.231.977.231.977a4.252,4.252,0,0,1-4.174,3.824S1171.953,412.834,1173.874,411.545Z"/>
      <path id="Caminho_765" data-name="Caminho 765" class="cls-13" d="M1182,403.66c-.822,1.81-2.582,5.432-3.385,5.149a3.98,3.98,0,0,1-1.567-.941l-4.824,3.065c.186.7.617,1.3,1.65.612l3.23-2.767s1.279,1.159,1.908.976,2-1.9,3.068-3.439a8.541,8.541,0,0,0,1.331-3.089A11.694,11.694,0,0,1,1182,403.66Z"/>
      <path id="Caminho_766" data-name="Caminho 766" class="cls-14" d="M1174.1,417.211l-5.2,2.759s-3.072-4.64-1.944-6.835,2.258-2.571,3.763-1.755S1174.1,417.211,1174.1,417.211Z"/>
      <path id="Caminho_767" data-name="Caminho 767" class="cls-13" d="M1168.206,414.828a7.608,7.608,0,0,1,.5-3.7,4.024,4.024,0,0,0-1.756,2.011c-1.128,2.195,1.944,6.835,1.944,6.835l1.6-.85A8.53,8.53,0,0,1,1168.206,414.828Z"/>
    </g>
    <g id="Grupo_301" data-name="Grupo 301">
      <path id="Caminho_768" data-name="Caminho 768" class="cls-7" d="M1121.441,470.473a1.713,1.713,0,1,1-1.713-1.712A1.713,1.713,0,0,1,1121.441,470.473Z"/>
    </g>
    <g id="Grupo_321" data-name="Grupo 321">
      <path id="Caminho_769" data-name="Caminho 769" class="cls-16" d="M1074.505,424.936s-.776,4.088,2.443,11.041,9.336,17.5,9.336,17.5l6.471-2.79s-4.218-21.66-5.6-24.716S1075.924,422.538,1074.505,424.936Z"/>
      <g id="Grupo_302" data-name="Grupo 302">
        <path id="Caminho_770" data-name="Caminho 770" class="cls-17" d="M1085.53,477.495l1.25-23.819c.2-2.189,5.119-1.728,4.913.461,0,0-3.735,20.422-2.992,21.358s6.612,1.37,6.754,2.2-10,1.473-10.134.879A1.469,1.469,0,0,1,1085.53,477.495Z"/>
        <path id="Caminho_771" data-name="Caminho 771" class="cls-16" d="M1090.038,474.389c.049.264-4.932.062-4.932.062s-1.178-18.513.689-24.346c.272-2.519,7.126-1.78,6.854.74C1092.649,450.845,1089.672,472.433,1090.038,474.389Z"/>
        <path id="Caminho_772" data-name="Caminho 772" class="cls-17" d="M1085.187,476.585l4.667-.751s5.545,1.35,6.092,1.325.992,1.162.992,1.162l-7.164,1.173-1.045-.352-.65.51-3.38.226Z"/>
      </g>
      <path id="Caminho_773" data-name="Caminho 773" class="cls-5" d="M1062.484,414.861s3.427-.057,2.775-.777a2.078,2.078,0,0,0-1.754-.523s1.784-1.076.753-1.718-2.092.468-2.092.468-4.306-.586-5.94.032-1.589,1.8-1.589,1.8-.882-1.1-1.26-.564.729.986.729.986-1.9-.257-1.522.274,1.3.3,1.3.3-.988.348-.369,2.172a3.669,3.669,0,0,0,2.069,2.312l4.973-2.654Z"/>
      <g id="Grupo_303" data-name="Grupo 303">
        <rect id="Retângulo_93" data-name="Retângulo 93" class="cls-10" width="2.085" height="30.849" transform="translate(1073.137 444.602) rotate(-15.249)"/>
      </g>
      <g id="Grupo_305" data-name="Grupo 305">
        <g id="Grupo_304" data-name="Grupo 304">
          <rect id="Retângulo_94" data-name="Retângulo 94" class="cls-10" width="1.111" height="10.966" transform="translate(1069.679 433.362) rotate(-21.809)"/>
        </g>
      </g>
      <g id="Grupo_306" data-name="Grupo 306">
        <path id="Caminho_774" data-name="Caminho 774" class="cls-18" d="M1077.415,433.71s.462-1.481-2.963-1.388-8.053-.554-8.978-1.109-1.389-.463-1.3.37.555,1.851,2.314,2.129a21.581,21.581,0,0,0,5.554-.186A40.469,40.469,0,0,1,1077.415,433.71Z"/>
      </g>
      <g id="Grupo_307" data-name="Grupo 307">
        <circle id="Elipse_13" data-name="Elipse 13" class="cls-7" cx="4.311" cy="4.311" r="4.311" transform="matrix(0.053, -0.999, 0.999, 0.053, 1049.783, 473.759)"/>
      </g>
      <g id="Grupo_309" data-name="Grupo 309">
        <g id="Grupo_308" data-name="Grupo 308">
          <path id="Caminho_775" data-name="Caminho 775" class="cls-5" d="M1054.745,489.575a20.5,20.5,0,1,1,20.5-20.505A20.525,20.525,0,0,1,1054.745,489.575Zm-.006-39.061A18.559,18.559,0,1,0,1073.3,469.07,18.579,18.579,0,0,0,1054.739,450.514Z"/>
        </g>
      </g>
      <g id="Grupo_311" data-name="Grupo 311">
        <g id="Grupo_310" data-name="Grupo 310">
          <path id="Caminho_776" data-name="Caminho 776" class="cls-7" d="M1054.7,487.664a18.635,18.635,0,1,1,18.632-18.638A18.657,18.657,0,0,1,1054.7,487.664Zm-.005-35.5a16.868,16.868,0,1,0,16.87,16.866A16.887,16.887,0,0,0,1054.7,452.161Z"/>
        </g>
      </g>
      <g id="Grupo_313" data-name="Grupo 313">
        <g id="Grupo_312" data-name="Grupo 312">
          <path id="Caminho_777" data-name="Caminho 777" class="cls-5" d="M1118.8,490.029a20.5,20.5,0,1,1,20.5-20.505A20.525,20.525,0,0,1,1118.8,490.029Zm-.006-39.061a18.559,18.559,0,1,0,18.562,18.556A18.579,18.579,0,0,0,1118.794,450.968Z"/>
        </g>
      </g>
      <g id="Grupo_315" data-name="Grupo 315">
        <g id="Grupo_314" data-name="Grupo 314">
          <path id="Caminho_778" data-name="Caminho 778" class="cls-7" d="M1118.756,488.118a18.635,18.635,0,1,1,18.632-18.637A18.657,18.657,0,0,1,1118.756,488.118Zm-.005-35.5a16.868,16.868,0,1,0,16.871,16.866A16.889,16.889,0,0,0,1118.751,452.615Z"/>
        </g>
      </g>
      <g id="Grupo_317" data-name="Grupo 317">
        <g id="Grupo_316" data-name="Grupo 316">
          <path id="Caminho_779" data-name="Caminho 779" class="cls-10" d="M1081.677,475.832c-.067,0-.131-.005-.195-.01-.111-.01-22.068-4.456-27.424-5.541a.709.709,0,0,1-.407-1.147c5.783-7.014,19.686-25.545,19.735-25.606l.148-.185a.708.708,0,0,1,.506-.264l31.055-2.132a.71.71,0,0,1,.721.479l1.9,5.538a.71.71,0,0,1-.128.687l-.2.233c-.059.07-5.873,7-11.815,13.818C1084.043,474.94,1082.55,475.832,1081.677,475.832ZM1056,468.2a.71.71,0,0,0,.45,1.144c2.866.432,8.405,1.236,17.068,2.651,3.338.545,6.321,1.033,7.59,1.237a.71.71,0,0,0,.567-.157c2.732-2.258,13.466-14.506,23.092-25.954a.711.711,0,0,0,.127-.688l-.819-2.388a.71.71,0,0,0-.721-.478l-28.048,1.925a.705.705,0,0,0-.5.262C1068.755,453.289,1059.72,463.531,1056,468.2Z"/>
        </g>
      </g>
      <g id="Grupo_318" data-name="Grupo 318">
        <path id="Caminho_780" data-name="Caminho 780" class="cls-5" d="M1088.435,474.089a6.179,6.179,0,1,1-6.179-6.177A6.178,6.178,0,0,1,1088.435,474.089Z"/>
      </g>
      <path id="Caminho_781" data-name="Caminho 781" class="cls-1" d="M1099.9,432.149h2.175l2.845,7.695h-2.091s-2.594-7.276-2.594-7.527Z"/>
      <g id="Grupo_319" data-name="Grupo 319">
        <path id="Caminho_782" data-name="Caminho 782" class="cls-3" d="M1085.916,474.138a3.659,3.659,0,1,1-3.7-3.62A3.659,3.659,0,0,1,1085.916,474.138Z"/>
      </g>
      <path id="Caminho_783" data-name="Caminho 783" class="cls-5" d="M1104.722,438.7l.927-.058s.811.174.637.927-.637.811-.463,1.158a.822.822,0,0,1-.007.694s-3.468.465-3.989.175.521-.753.231-.984-1.506-1.274-.348-1.68Z"/>
      <path id="Caminho_784" data-name="Caminho 784" class="cls-10" d="M1107.588,447.651s.929-.2,1.849,1.058,3.682,13.717,5.858,17.062,4.433,4.182,4.433,4.182l-.167.92a15.331,15.331,0,0,1-5.521-4.349C1111.447,463.346,1105.07,449.1,1107.588,447.651Z"/>
      <rect id="Retângulo_95" data-name="Retângulo 95" class="cls-5" width="6.357" height="2.426" rx="0.157" transform="translate(1098.979 430.726)"/>
      <path id="Caminho_785" data-name="Caminho 785" class="cls-5" d="M1103.413,432.985a1.506,1.506,0,1,1-1.506-1.506A1.505,1.505,0,0,1,1103.413,432.985Z"/>
      <path id="Caminho_786" data-name="Caminho 786" class="cls-3" d="M1065.357,465.19l17.206-16.519c1.648-1.456,4.916,2.241,3.269,3.7,0,0-16.7,12.341-16.793,13.531s3.885,5.523,3.419,6.228-8.3-5.766-7.993-6.292A1.468,1.468,0,0,1,1065.357,465.19Z"/>
      <path id="Caminho_787" data-name="Caminho 787" class="cls-19" d="M1088.955,449.49s-4.684-21.565-6.131-24.59-11.3-3.189-12.669-.76c0,0-.688,4.1,2.68,10.985,2.018,4.121,5.094,9.495,7.243,13.154-5.741,5.21-13.3,14.479-13.3,14.479s3.516,3.534,3.659,3.306c1.062-1.682,17.922-15.489,17.922-15.489a1.359,1.359,0,0,0,.446-1.015Z"/>
      <path id="Caminho_788" data-name="Caminho 788" class="cls-20" d="M1095.239,425.614c.268.134,5.015,3.878,5.015,3.878s2.876-.869,3.946.335,2.006,2.741.8,3.076-1.6-1.137-2.608-1.338-2.206,1.2-2.942.736-5.684-4.213-5.684-4.213Z"/>
      <path id="Caminho_789" data-name="Caminho 789" class="cls-4" d="M1075.246,442.6l1,4.112-2.608,1.1-1.2-4.614Z"/>
      <path id="Caminho_790" data-name="Caminho 790" class="cls-1" d="M1074.444,444a3.813,3.813,0,0,1-.4.018c-3.152.068-23.671-.018-23.671-.018l3.21,25.877s.6,1,1.3.4-2.909-24.975-2.909-24.975l22.367-.1Z"/>
      <path id="Caminho_791" data-name="Caminho 791" class="cls-7" d="M1082.031,473.586l-11.872-2.425-.251,1.171,11.873,2.592S1083.787,474.422,1082.031,473.586Z"/>
      <rect id="Retângulo_96" data-name="Retângulo 96" class="cls-5" width="4.849" height="1.839" transform="translate(1067.149 471.078)"/>
      <rect id="Retângulo_97" data-name="Retângulo 97" class="cls-5" width="4.849" height="1.839" transform="translate(1086.128 479.271)"/>
      <path id="Caminho_792" data-name="Caminho 792" class="cls-13" d="M1066.776,462.758s.68.681,1.449,1.423c3.165-2.807,13.124-11.728,15.228-14.674,2.164-3.03-7.751-21.714-10.512-26.784a4.1,4.1,0,0,0-2.786,1.417s-.688,4.1,2.68,10.985c2.018,4.121,5.094,9.495,7.243,13.154C1074.337,453.489,1066.776,462.758,1066.776,462.758Z"/>
      <path id="Caminho_793" data-name="Caminho 793" class="cls-21" d="M1065.26,414.084a2.08,2.08,0,0,0-1.755-.523s1.784-1.076.753-1.718-2.092.468-2.092.468l-.056-.007a.465.465,0,0,1,.107.521c-.377,1.066-4.829,1.442-4.829,1.442s-.5,2.508-1.63,2.885a2.214,2.214,0,0,1-1.818-.063s-.113.248-.28.567a3.665,3.665,0,0,0,1.92,1.963l4.973-2.654,1.931-2.1S1065.911,414.8,1065.26,414.084Z"/>
      <path id="Caminho_794" data-name="Caminho 794" class="cls-13" d="M1103.1,430.7a3.685,3.685,0,0,0-3.344.167s-3.155-2.261-5.31-3.915l-.678,1.14s4.949,3.745,5.684,4.213,1.939-.937,2.942-.736,1.4,1.672,2.608,1.337a.662.662,0,0,0,.551-.708A18.746,18.746,0,0,0,1103.1,430.7Z"/>
      <path id="Caminho_795" data-name="Caminho 795" class="cls-22" d="M1085.976,429.93l8.951-20.046c2.4-5.377.752-11.342-3.684-13.323s-9.979.773-12.38,6.15l-8.951,20.046C1072.1,427.351,1078.175,429.242,1085.976,429.93Z"/>
      <path id="Caminho_796" data-name="Caminho 796" class="cls-20" d="M1090.284,396.992l1.463-3.552a1.543,1.543,0,0,1-.337-1.86c.609-.974,1.144-.574,1.144-.574s-.49-2.451.586-3.493,5.562-.191,6.546.485-.116,4.857-.733,6.241-.33,2.434-.911,3.131a1.927,1.927,0,0,1-2.137.309,11.313,11.313,0,0,1-1.174-.58l-1.141,2.483S1090.071,400.7,1090.284,396.992Z"/>
      <path id="Caminho_797" data-name="Caminho 797" class="cls-23" d="M1099.686,388a5.524,5.524,0,0,0-1.527-.564c.015,1.806-.069,6.708-1.392,7.98a3.774,3.774,0,0,1-3.261,1.191l-1.136,3.125a4.3,4.3,0,0,0,1.22-.148l1.141-2.483a11.313,11.313,0,0,0,1.174.58,1.927,1.927,0,0,0,2.137-.309c.581-.7.293-1.746.911-3.131S1100.67,388.673,1099.686,388Z"/>
      <path id="Caminho_798" data-name="Caminho 798" class="cls-24" d="M1091.243,396.561a7.348,7.348,0,0,0-2.289-.56c-.477.722-.7,1.95.686,3.844,2.508,3.428,2.591,1.421,2.173,6.1-.365,4.088-7.419,18.174-13.266,22.745a43.313,43.313,0,0,0,7.43,1.237l8.95-20.046C1097.328,404.507,1095.679,398.542,1091.243,396.561Z"/>
      <path id="Caminho_799" data-name="Caminho 799" class="cls-11" d="M1098.149,427.518l-2.316,3.414s-9.538-6.068-10.912-7.894-5.332-15.041-5.512-17.677,2.207-5.137,3.578-5.421,2.812-.531,4.185,1.119,3.053,18.56,3.053,18.56Z"/>
      <path id="Caminho_800" data-name="Caminho 800" class="cls-21" d="M1086.671,421.248c-1.559-1.657-3.876-14.9-4.831-20.722a6.037,6.037,0,0,0-2.431,4.835c.18,2.636,4.138,15.85,5.512,17.677s10.912,7.894,10.912,7.894l1.034-1.525C1093.876,427.166,1088.138,422.806,1086.671,421.248Z"/>
      <path id="Caminho_801" data-name="Caminho 801" class="cls-5" d="M1092.834,392.482a1.62,1.62,0,0,0,.022-.787c-.186-.655-.561-.737-.561-.737-.471-.113-.839.588-.839.588a9.519,9.519,0,0,1-.349-3.461,1.712,1.712,0,0,1,1.327-1.192l.317-.318.343-.141c1.689-2.153,12.37,3.471,6.095,3.8a8.563,8.563,0,0,1-3.208-1.127,1.088,1.088,0,0,1,.04,1.54c-.594.8-1.084.513-1.692.725a1.936,1.936,0,0,0-.454,1.128,3.989,3.989,0,0,0,.678,3.219c.565.535.4.5.955.277s2.545-.343,3.045.1a1.379,1.379,0,0,1,.232,1.849.674.674,0,0,1-1,.117,1.256,1.256,0,0,1-1.416.421,3.7,3.7,0,0,1-2.526-1.994C1093.249,395.522,1092.316,393.778,1092.834,392.482Z"/>
      <path id="Caminho_802" data-name="Caminho 802" class="cls-25" d="M1097.822,386.775c.088.8.044,1.815-.491,1.929a6.8,6.8,0,0,1-2.508-.313s.69,1.756-.188,2.069-2.571-1.129-2.571-1.129a1.712,1.712,0,0,1-.868,1.029c.12.661.26,1.186.26,1.186s.368-.7.839-.588c0,0,.375.082.561.737a1.62,1.62,0,0,1-.022.787c-.518,1.3.415,3.04,1.009,4a3.7,3.7,0,0,0,2.526,1.994,1.256,1.256,0,0,0,1.416-.421.674.674,0,0,0,1-.117,1.379,1.379,0,0,0-.232-1.849c-.5-.438-2.494-.32-3.045-.1s-.39.258-.955-.277a3.99,3.99,0,0,1-.678-3.219,1.936,1.936,0,0,1,.454-1.128c.608-.212,1.1.071,1.692-.725a1.086,1.086,0,0,0-.04-1.539,8.567,8.567,0,0,0,3.208,1.126C1102.932,390.038,1100.638,387.965,1097.822,386.775Z"/>
      <path id="Caminho_803" data-name="Caminho 803" class="cls-9" d="M1065.078,438.7c.012-.157.023-.314.022-.474l-.058-10.843a6.154,6.154,0,1,0-12.307.065l.058,10.844c0,.16.014.317.027.473Z"/>
      <path id="Caminho_804" data-name="Caminho 804" class="cls-21" d="M1058.856,421.266a6.127,6.127,0,0,0-2.879.734c1.783,1.507,5.6,5.252,5.359,9.529-.315,5.567-4.734,5.247-4.734,5.247a5.241,5.241,0,0,0,2.157,1.962l6.319-.034c.012-.157.023-.314.022-.474l-.058-10.843A6.154,6.154,0,0,0,1058.856,421.266Z"/>
      <path id="Caminho_805" data-name="Caminho 805" class="cls-20" d="M1060.61,427.7a22.618,22.618,0,0,0,5.445-.027c2.472-.4,6.632-5.3,6.632-5.3s-.788-1.992-1.563-2.084-1.92.682-1.924,1.145a5.5,5.5,0,0,0,.239,1.247s-5.11,2.735-7.622,1.776S1060.61,427.7,1060.61,427.7Z"/>
      <path id="Caminho_806" data-name="Caminho 806" class="cls-21" d="M1072.237,421.443c-1.044,1.079-4.739,4.8-6.451,5.3a16.761,16.761,0,0,1-5.412-.048,9.431,9.431,0,0,0,.236,1.007,22.618,22.618,0,0,0,5.445-.027c2.472-.4,6.632-5.3,6.632-5.3A8.664,8.664,0,0,0,1072.237,421.443Z"/>
      <path id="Caminho_807" data-name="Caminho 807" class="cls-20" d="M1061.362,423.554c.152,2.119-1.294,1.713-3.557.019l-.027-4.991,3.557-.019Z"/>
      <path id="Caminho_808" data-name="Caminho 808" class="cls-23" d="M1061.074,424.823a1.549,1.549,0,0,0,.288-1.269l-.027-4.991-3.557.019.013,2.4A7.661,7.661,0,0,1,1061.074,424.823Z"/>
      <path id="Caminho_809" data-name="Caminho 809" class="cls-20" d="M1062.75,414.7s3.188,5.894-1.04,6.588-5.583-1.515-5.583-1.515a1.181,1.181,0,0,1-1.347-.53c-.474-.8.865-1.684,1.471-1.284a4.521,4.521,0,0,0,2.142-1.422,2.1,2.1,0,0,0,.462-1.481Z"/>
      <path id="Caminho_810" data-name="Caminho 810" class="cls-21" d="M1062.75,414.7l-.776.071c.617,1.074,1.9,3.639.938,5-1.234,1.753-5.975.6-6.315-.034s-.274-1.14-.912-1c-.491.106-.839.332-.65.811a1.229,1.229,0,0,0,1.092.224s1.355,2.209,5.583,1.515S1062.75,414.7,1062.75,414.7Z"/>
      <path id="Caminho_811" data-name="Caminho 811" class="cls-9" d="M1062.844,423.89l-5.443-1.172a3.049,3.049,0,0,0-3.794,1.961l-.118.549a3.049,3.049,0,0,0,2.65,3.349l5.444,1.172Z"/>
      <path id="Caminho_812" data-name="Caminho 812" class="cls-21" d="M1055.459,426.8a3.74,3.74,0,0,1-1.724-2.487,2.182,2.182,0,0,0-.128.367l-.118.549a3.049,3.049,0,0,0,2.65,3.349l5.444,1.172.306-1.424C1059.94,428.206,1057.054,427.8,1055.459,426.8Z"/>
      <g id="Grupo_320" data-name="Grupo 320">
        <path id="Caminho_813" data-name="Caminho 813" class="cls-11" d="M1052.72,437.859s-1.2,2.107,1.6,4.815,11.434,1.8,12.136,2.006,7.924,6.118,8.827,6.118,4.914-4.112,3.61-4.513-3.41.8-3.41.8-4.112-6.921-7.924-7.924S1052.72,437.859,1052.72,437.859Z"/>
        <path id="Caminho_814" data-name="Caminho 814" class="cls-13" d="M1078.9,446.285a4.021,4.021,0,0,0-2.432.345c-.555,1.041-1.635,2.545-2.922,1.644-1.881-1.317-1.066-5.267-6.458-6.709s-8.716.188-9.908-1.443a6.638,6.638,0,0,1-1.013-2.126c-2.007-.1-3.446-.137-3.446-.137s-1.2,2.107,1.6,4.815,11.434,1.8,12.136,2.006,7.924,6.118,8.827,6.118S1080.2,446.686,1078.9,446.285Z"/>
      </g>
      <path id="Caminho_815" data-name="Caminho 815" class="cls-19" d="M1067.76,440c-4.218-1.406-13.591,1.093-15-1.406a6.717,6.717,0,0,1-.586-2.187h12.875a1.094,1.094,0,0,0,0-2.187h-12.914a1.082,1.082,0,0,0-.18.036c-.271-3.555-.356-7.743-2.007-7.847-2.5-.156-3.593-.156-3.593-.156s-.156,15.309,1.719,17.965,17.183.781,17.808,1.406-1.718,9.216,3.905,7.966C1069.79,453.586,1071.977,441.4,1067.76,440Z"/>
      <path id="Caminho_816" data-name="Caminho 816" class="cls-21" d="M1068.905,444.909c-.251-4.1-2.257-3.428-4.431-3.93s-.585,1-.5,2.091-11.621.668-13.209-1.171c-1.269-1.469-1.684-11.457-1.8-15.551-1.8-.1-2.6-.1-2.6-.1s-.156,15.309,1.719,17.965,17.183.781,17.808,1.4c.585.586-1.434,8.165,2.935,8.09C1068.939,451.058,1069.054,447.331,1068.905,444.909Z"/>
      <path id="Caminho_817" data-name="Caminho 817" class="cls-26" d="M1065.615,464.1l3.822,2.78s2.953,4.884,3.356,5.254-.124,1.523-.124,1.523l-5.884-4.253-.486-.989-.821-.1-2.543-2.237Z"/>
    </g>
    <g id="Grupo_322" data-name="Grupo 322">
      <path id="Caminho_818" data-name="Caminho 818" class="cls-27" d="M1101.836,387.318a.232.232,0,0,0-.305,0,5.524,5.524,0,0,1-2.782,1.295c-1.978.179-3.455-.965-5.292-1.4-1.449-.348-2.159,1.412-3.644.5-.339-.207-.567.01-.339.417.437.779,1.012,1.626,2.046,1.605a4.892,4.892,0,0,0,1.577-.579c1.129-.413,1.7-.352,3.16.417a3.532,3.532,0,0,0,2.692-.1,4.511,4.511,0,0,1,1.844-.371,11.5,11.5,0,0,1,1.787.371.251.251,0,0,0,.26-.054C1103.2,389.135,1102.225,387.625,1101.836,387.318Z"/>
      <path id="Caminho_819" data-name="Caminho 819" class="cls-28" d="M1101.757,387.065a12.307,12.307,0,0,0-4.233-3.88,7.905,7.905,0,0,0-4.267-.455c-1.858.221-2.075.314-3.268,2.183-.836,1.31-1.639,2.822.131,3.368,1.388.428,1.922-.88,3.137-.867a6.656,6.656,0,0,1,2.154.78,6.9,6.9,0,0,0,2.172.708C1098.122,388.933,1102.34,387.891,1101.757,387.065Z"/>
      <path id="Caminho_820" data-name="Caminho 820" class="cls-29" d="M1097.373,389.865c.087-.3-.771-.493-.849-.185a17.453,17.453,0,0,1-2.36,5.714c-.181.261.518.577.686.309A22.9,22.9,0,0,0,1097.373,389.865Z"/>
    </g>
    <g id="Grupo_323" data-name="Grupo 323">
      <path id="Caminho_821" data-name="Caminho 821" class="cls-30" d="M1063.872,411.636a.232.232,0,0,0-.285.107,5.513,5.513,0,0,1-2.169,2.166c-1.795.844-3.576.279-5.452.495-1.481.17-1.544,2.062-3.25,1.72-.389-.078-.528.2-.175.506a2.45,2.45,0,0,0,2.473.8c.556-.215.847-.717,1.282-1.083.919-.773,1.479-.912,3.111-.69a3.541,3.541,0,0,0,2.495-1.013,4.527,4.527,0,0,1,1.6-.979,11.565,11.565,0,0,1,1.806-.264.252.252,0,0,0,.226-.139C1065.78,412.871,1064.343,411.791,1063.872,411.636Z"/>
      <path id="Caminho_822" data-name="Caminho 822" class="cls-31" d="M1063.712,411.426a12.344,12.344,0,0,0-5.308-2.186,7.919,7.919,0,0,0-4.163,1.034c-1.67.844-1.842,1.006-2.321,3.165-.336,1.513-.571,3.2,1.279,3.11,1.451-.074,1.5-1.482,2.649-1.886a6.668,6.668,0,0,1,2.29-.007,6.942,6.942,0,0,0,2.284-.08C1060.939,414.421,1064.542,412,1063.712,411.426Z"/>
      <path id="Caminho_823" data-name="Caminho 823" class="cls-29" d="M1060.555,415.55c-.023-.314-.893-.2-.861.118a17.347,17.347,0,0,1-.256,6.161c-.08.306.685.363.75.054A22.746,22.746,0,0,0,1060.555,415.55Z"/>
    </g>
    <g id="Grupo_324" data-name="Grupo 324">
      <path id="Caminho_824" data-name="Caminho 824" class="cls-32" d="M1184.573,400.791a.233.233,0,0,0-.305,0,5.516,5.516,0,0,1-2.782,1.295c-1.977.179-3.455-.965-5.292-1.4-1.449-.348-2.159,1.412-3.644.5-.339-.207-.567.011-.339.417.437.78,1.012,1.626,2.046,1.606a4.917,4.917,0,0,0,1.577-.58c1.129-.413,1.7-.352,3.16.417a3.532,3.532,0,0,0,2.692-.1,4.511,4.511,0,0,1,1.844-.371,11.659,11.659,0,0,1,1.788.371.25.25,0,0,0,.259-.054C1185.94,402.609,1184.962,401.1,1184.573,400.791Z"/>
      <path id="Caminho_825" data-name="Caminho 825" class="cls-33" d="M1184.494,400.538a12.317,12.317,0,0,0-4.233-3.88,7.9,7.9,0,0,0-4.266-.455c-1.859.221-2.076.315-3.269,2.183-.836,1.31-1.639,2.822.131,3.368,1.388.429,1.922-.88,3.137-.867a6.655,6.655,0,0,1,2.154.78,6.9,6.9,0,0,0,2.172.708C1180.859,402.407,1185.077,401.364,1184.494,400.538Z"/>
      <path id="Caminho_826" data-name="Caminho 826" class="cls-29" d="M1180.11,403.338c.087-.3-.771-.493-.849-.185a17.456,17.456,0,0,1-2.36,5.714c-.181.262.518.577.686.309A22.893,22.893,0,0,0,1180.11,403.338Z"/>
    </g>
  </g>
</svg>
