<svg id="Camada_1" data-name="Camada 1" xmlns="http://www.w3.org/2000/svg" viewBox="0 0 1024 1024"><defs><style>.cls-1{fill:#7e75fc;}.cls-1,.cls-2{fill-rule:evenodd;}</style></defs><path class="cls-1" d="M338.76,470.78,193.26,351.53l35.17-40.47c4.8-5.86,13.14-7,18.64-2.45a12.32,12.32,0,0,1,4.35,7.67,22.23,22.23,0,0,0,7.77,14.4c10.81,8.86,28.44,5.23,39.37-8.11s11-31.34.23-40.2a22.21,22.21,0,0,0-15.63-4.79,12.38,12.38,0,0,1-8.4-2.76c-5.49-4.51-6.05-12.9-1.25-18.76l30.74-37.51,43.95,36c5.85,4.75,14.21,4.18,18.7-1.3a12.25,12.25,0,0,0,2.76-8.37,22.28,22.28,0,0,1,4.8-15.66c8.86-10.8,26.85-10.7,40.19.24s17,28.56,8.12,39.36a22.18,22.18,0,0,1-14.39,7.77,12.38,12.38,0,0,0-7.69,4.36c-4.49,5.47-3.41,13.78,2.4,18.59l43.94,36Z"/><path class="cls-1" d="M776.26,218.55l67.28,245.24L773.13,481c-9.87,2.71-19.93-2.6-22.47-11.86a16.72,16.72,0,0,1,1.19-11.87,30,30,0,0,0,2.68-22c-5-18.22-27.27-28-49.76-21.81s-36.66,25.93-31.67,44.15a30.11,30.11,0,0,0,13.5,17.51,16.66,16.66,0,0,1,7.1,9.6c2.54,9.26-3.4,19-13.28,21.67L617.2,523.73l-20.32-74.07c-2.74-9.82-12.41-15.72-21.64-13.19a16.68,16.68,0,0,0-9.6,7.08,30,30,0,0,1-17.52,13.52c-18.21,5-38-9.18-44.15-31.67s3.6-44.77,21.81-49.76a30.07,30.07,0,0,1,22,2.67,16.66,16.66,0,0,0,11.88,1.21c9.23-2.53,14.54-12.54,11.89-22.39l-20.33-74.07Z"/><path class="cls-2" d="M782,796.9,598,835.82l-9.58-52.75c-1.57-7.41,2.79-14.61,9.74-16.08a12.36,12.36,0,0,1,8.71,1.4,22.23,22.23,0,0,0,16.1,3c13.68-2.89,21.87-18.92,18.3-35.79S623.69,707.33,610,710.22a22.3,22.3,0,0,0-13.52,9.2,12.34,12.34,0,0,1-7.4,4.83c-7,1.47-13.86-3.35-15.42-10.76l-10-47.45,55.59-11.75c7.38-1.6,12.16-8.48,10.69-15.41a12.27,12.27,0,0,0-4.81-7.39A22.3,22.3,0,0,1,615.9,618c-2.89-13.67,8.45-27.64,25.33-31.21S674.13,591.36,677,605a22.25,22.25,0,0,1-2.94,16.09,12.31,12.31,0,0,0-1.41,8.72c1.46,6.93,8.62,11.29,16,9.76l55.59-11.75Z"/><path class="cls-2" d="M331.08,835.82l-150.62-202,58.78-41.26c8.13-6.06,19.34-4.8,25,2.83a16.48,16.48,0,0,1,3.18,11.38A29.79,29.79,0,0,0,272.9,628c11.19,15,35.27,16,53.79,2.16S351.17,593,340,578a29.8,29.8,0,0,0-18.78-11.28,16.57,16.57,0,0,1-10-6.3c-5.69-7.63-3.7-18.73,4.43-24.79l52.08-38.83,45.49,61c6.08,8.07,17.14,10,24.74,4.36a16.52,16.52,0,0,0,6.29-10,29.77,29.77,0,0,1,11.3-18.8c15-11.19,38.36-5.24,52.17,13.28s12.85,42.61-2.16,53.8a29.81,29.81,0,0,1-21.22,5.46,16.54,16.54,0,0,0-11.4,3.17c-7.6,5.67-8.88,16.82-2.88,25l45.49,61Z"/></svg>