<svg id="Camada_1" data-name="Camada 1" xmlns="http://www.w3.org/2000/svg" viewBox="0 0 150 150"><path d="M129.9,77.15a20.46,20.46,0,0,0-4.46.49c.08-.86.13-1.74.13-2.62A26.07,26.07,0,0,0,90.32,50.63,34.21,34.21,0,0,0,26,65.23a26.06,26.06,0,0,0,0,52.11H131v0a20.1,20.1,0,0,0-1.11-40.16ZM81.83,85a6.94,6.94,0,0,1-.16,1.52l5.16,3.08,7.71,4.63A7.5,7.5,0,1,1,91.83,100,7.61,7.61,0,0,1,92,98.47l-5.15-3.08-7.72-4.63a7.5,7.5,0,1,1,0-11.54l7.72-4.63L92,71.51A7.61,7.61,0,0,1,91.83,70a7.5,7.5,0,1,1,2.71,5.77l-7.71,4.63-5.16,3.08A6.94,6.94,0,0,1,81.83,85Z"/></svg>