<svg id="Camada_1" data-name="Camada 1" xmlns="http://www.w3.org/2000/svg" viewBox="0 0 150 150"><path d="M94.18,98.1H90.87V90.86H88.41v-9.3a10.18,10.18,0,0,1-3.82-6.49H52V69.69H84.47V66.62a3.68,3.68,0,0,0-1.57-3,26.24,26.24,0,0,1-5.16-4.88H52V53.4H74.4A26.1,26.1,0,0,1,72,42.55a25.17,25.17,0,0,1,.19-3.13H40.81v82.29h56V98.1Zm-8.56,9.55H52v-5.38H85.62Zm0-16.29H52V86H85.62Z"/><rect x="94.18" y="90.66" width="7.53" height="4.13"/><rect x="91.72" y="83.42" width="12.44" height="4.13"/><path d="M120.55,42.55A22.61,22.61,0,1,0,84.82,61a7,7,0,0,1,3,5.66V73.5a6.9,6.9,0,0,0,6.9,6.91h6.53a6.9,6.9,0,0,0,6.9-6.91V66.62A6.93,6.93,0,0,1,111,61,22.58,22.58,0,0,0,120.55,42.55Z"/></svg>