<svg id="Camada_1" data-name="Camada 1" xmlns="http://www.w3.org/2000/svg" viewBox="0 0 150 150"><path d="M123.38,3.52H26.62A26.16,26.16,0,0,0,.5,29.65V89.32a26.16,26.16,0,0,0,26.12,26.13H88.25l29.5,29.5a5.23,5.23,0,0,0,3.7,1.53,5.13,5.13,0,0,0,2-.4,5.22,5.22,0,0,0,3.23-4.83v-26A26.16,26.16,0,0,0,149.5,89.32V29.65A26.16,26.16,0,0,0,123.38,3.52Zm15.67,85.8A15.69,15.69,0,0,1,123.38,105h-1.93a5.23,5.23,0,0,0-5.23,5.22v18.42L94.11,106.53a5.23,5.23,0,0,0-3.7-1.53H26.62A15.69,15.69,0,0,1,11,89.32V29.65A15.69,15.69,0,0,1,26.62,14h96.76a15.69,15.69,0,0,1,15.67,15.68Z"/><path d="M113.45,40.52H36.55a5.23,5.23,0,1,0,0,10.45h76.9a5.23,5.23,0,1,0,0-10.45Z"/><path d="M113.45,69.78H36.55a5.23,5.23,0,1,0,0,10.45h76.9a5.23,5.23,0,1,0,0-10.45Z"/></svg>