<svg id="Camada_1" data-name="Camada 1" xmlns="http://www.w3.org/2000/svg" viewBox="0 0 150 150"><path d="M118,39.58H32.14a6.05,6.05,0,0,0-6.06,6.05V95.25a6.06,6.06,0,0,0,6.06,6.06H118a6.05,6.05,0,0,0,6-6.06V45.63A6.05,6.05,0,0,0,118,39.58ZM73.89,95c-.71-.19-.82-.32-3.71-2.15-7.88-5-18.58-6.24-27.94-3.28a4.22,4.22,0,0,1-3.18-.27A2.59,2.59,0,0,1,37.57,87V51.1a2.78,2.78,0,0,1,2.14-2.5A42.51,42.51,0,0,1,74,52.41V95l-.08,0Zm1.12.15ZM112.45,87a2.58,2.58,0,0,1-1.5,2.23,4.14,4.14,0,0,1-3.17.27c-9.36-3-20.07-1.7-27.94,3.28C78,94,77.07,94.72,76,95V52.41a42.57,42.57,0,0,1,34.27-3.81,2.78,2.78,0,0,1,2.14,2.5Z"/><polygon points="79.89 103.66 69.12 103.66 69.12 113.36 44.27 113.36 44.27 117.51 105.88 117.51 105.88 113.36 79.89 113.36 79.89 103.66"/></svg>