<svg id="Camada_1" data-name="Camada 1" xmlns="http://www.w3.org/2000/svg" viewBox="0 0 1024 1024"><defs><style>.cls-1{fill:#ffab01;}.cls-2{fill:#0561fc;}.cls-3{fill:#73a9ff;}.cls-4{fill:#c5e1f9;}</style></defs><path class="cls-1" d="M701.19,495.66a13,13,0,0,0-4.4,22.7,43.68,43.68,0,1,1-53.4.1,13,13,0,0,0-4.56-22.67l-102.12.2.35,100.67a13,13,0,0,0,12.88,11.72,12.86,12.86,0,0,0,10.08-5,43.41,43.41,0,0,1,34.53-17.23,44.05,44.05,0,0,1,.3,88.1,43.54,43.54,0,0,1-34.66-17.08A12.81,12.81,0,0,0,537.3,664l.34,100.67,266.69-.56-.92-268.64Z"/><path class="cls-2" d="M538.68,763.46V663.91h0a12.88,12.88,0,0,1,23-7.1,43.71,43.71,0,1,0,0-53.38,12.88,12.88,0,0,1-23-7.1h0V496.79h-100A12.86,12.86,0,0,1,432,473.87a43.73,43.73,0,1,0-53.39,0A12.85,12.85,0,0,1,372,496.79H272V763.46Z"/><path class="cls-3" d="M596.19,319a43.65,43.65,0,0,0-34.59,17,12.87,12.87,0,0,1-22.92-6.65v-100H272V496H375.55a12.11,12.11,0,0,0,1.61-.81l.19-.1a16.62,16.62,0,0,0,1.43-1s.06-.07.11-.08a13.25,13.25,0,0,0,2.14-2.29,4.35,4.35,0,0,0,.33-.42c.2-.28.36-.62.55-.92s.37-.69.52-1,.25-.58.36-.86c.14-.46.29-.9.41-1.37.05-.26.12-.5.17-.74a15.57,15.57,0,0,0,.21-2.27A12.92,12.92,0,0,0,378.64,474,43.72,43.72,0,1,1,432,474a12.9,12.9,0,0,0-4.93,10.09,12.31,12.31,0,0,0,.23,2.27,4.94,4.94,0,0,0,.17.74c.11.47.24.91.39,1.37.11.28.25.57.36.86a8.43,8.43,0,0,0,.54,1,10.54,10.54,0,0,0,.54.92c.1.15.21.28.32.42A13.71,13.71,0,0,0,431.8,494c.05,0,.07.07.1.08a12.25,12.25,0,0,0,1.41,1l.21.13a13.33,13.33,0,0,0,1.6.81H538.68V396a12.84,12.84,0,0,1,22.91-6.64A43.71,43.71,0,1,0,596.19,319Z"/><path class="cls-4" d="M711.24,550.9a43.16,43.16,0,0,0-16.48-34.34,12.71,12.71,0,0,1,6.8-22.57l98.78,1L803,231.58l-263.42-2.7-1,102.29a11.73,11.73,0,0,0,.78,1.59.93.93,0,0,1,.1.2,16,16,0,0,0,1,1.41s.07.07.08.11a13,13,0,0,0,2.24,2.15,3,3,0,0,0,.41.32c.28.21.61.37.91.56a10.65,10.65,0,0,0,1,.52c.28.14.56.25.84.36.45.15.89.3,1.35.42.26.05.5.13.73.18a15.18,15.18,0,0,0,2.25.23,12.76,12.76,0,0,0,10-4.77,43.18,43.18,0,1,1-.57,52.72,12.7,12.7,0,0,0-9.9-5,12,12,0,0,0-2.25.2,4.52,4.52,0,0,0-.73.16,13.26,13.26,0,0,0-1.37.38c-.28.1-.56.23-.85.34a8.74,8.74,0,0,0-1,.52c-.31.17-.64.33-.93.52l-.42.32a12.89,12.89,0,0,0-2.27,2.1s-.07.07-.09.1a12.4,12.4,0,0,0-1,1.39,1.37,1.37,0,0,0-.13.2A12.93,12.93,0,0,0,538,390l-1.05,102.3,98.78,1A12.68,12.68,0,0,1,642,516a43.18,43.18,0,1,0,69.21,34.89Z"/></svg>