<svg id="Camada_1" data-name="Camada 1" xmlns="http://www.w3.org/2000/svg" viewBox="0 0 1024 1024"><path d="M512,242.84a445.11,445.11,0,0,1,137,21.13c41.25,13.32,78.13,32.22,109.62,56.18C819.5,366.41,853,426.21,853,488.53c0,38-13.28,76.41-38.41,111.17C788,636.47,749.06,668.2,702,691.48a59,59,0,0,0-31.83,64A309.11,309.11,0,0,0,683.94,805a185.59,185.59,0,0,1-56.41-50.83A59,59,0,0,0,572,730.24a460.77,460.77,0,0,1-60,4,445.11,445.11,0,0,1-137-21.13c-41.25-13.32-78.13-32.22-109.62-56.18C204.5,610.65,171,550.85,171,488.53s33.5-122.12,94.33-168.38c31.49-24,68.37-42.86,109.62-56.18A445.11,445.11,0,0,1,512,242.84m0-59c-219.7,0-400,136.69-400,304.69S292.3,793.22,512,793.22a518.11,518.11,0,0,0,67.7-4.49c46,63.69,121.08,98.24,177.8,98.24a23.43,23.43,0,0,0,18.15-38.25c-23.94-29.39-40.24-66-47.56-104.35C841,688.57,912,591.85,912,488.53c0-168-180.3-304.69-400-304.69Z"/></svg>