<svg id="Camada_1" data-name="Camada 1" xmlns="http://www.w3.org/2000/svg" viewBox="0 0 150 150"><path d="M129.54,77.13a19.68,19.68,0,0,0-4.44.5,25.06,25.06,0,0,0,.13-2.61A25.88,25.88,0,0,0,99.35,49.14a25.6,25.6,0,0,0-9.13,1.66A34,34,0,0,0,26.37,65.29a25.88,25.88,0,0,0,0,51.76H130.64v0a20,20,0,0,0-1.1-39.89Zm-6.9,17.23-.07.06a4.68,4.68,0,0,1-6.63-.24l-8.4-9a.76.76,0,0,0-.58-.26.82.82,0,0,0-.84.82v18.61a4.69,4.69,0,0,1-4.69,4.69h-2a4.7,4.7,0,0,1-4.69-4.69V85.71a.81.81,0,0,0-.84-.82.73.73,0,0,0-.57.26l-8.39,9a4.69,4.69,0,0,1-6.64.24l-.06-.06a4.69,4.69,0,0,1-.24-6.63L97,67.32a4.68,4.68,0,0,1,6.87,0l19,20.41A4.7,4.7,0,0,1,122.64,94.36Z"/></svg>