<svg id="Camada_1" data-name="Camada 1" xmlns="http://www.w3.org/2000/svg" viewBox="0 0 150 150"><path d="M75.4,130.19A11.7,11.7,0,0,1,67,126.63L52.3,111.4A11.57,11.57,0,0,1,49,103.3v-58a4.18,4.18,0,0,1,8.35,0v58a3.3,3.3,0,0,0,.93,2.3L73,120.83a3.28,3.28,0,0,0,2.38,1h0a3.26,3.26,0,0,0,2.4-1.07l13.92-15.12a3.34,3.34,0,0,0,.87-2.25V31.47a3.31,3.31,0,0,0-3.31-3.31H75.55a3.32,3.32,0,0,0-3.32,3.31V88.62a4.18,4.18,0,0,1-8.35,0V31.47A11.67,11.67,0,0,1,75.55,19.81H89.32A11.67,11.67,0,0,1,101,31.47V103.4a11.61,11.61,0,0,1-3.08,7.9L84,126.42a11.72,11.72,0,0,1-8.45,3.77Z"/></svg>