<svg id="Camada_1" data-name="Camada 1" xmlns="http://www.w3.org/2000/svg" viewBox="0 0 150 150"><path d="M130.12,64.55h0c0-.23,0-.45-.05-.67-.19-1.6-.4-3.19-.58-4.79A3.39,3.39,0,0,0,126,56H124.1a1.18,1.18,0,0,1-.83-.31l-4.55-3.86-4.33-3.7a3,3,0,0,0-1.81-.79c-.34,0-.68,0-1,0l-.85,0-6.57.35H104a1.94,1.94,0,0,1-.91-.22q-2.52-1.32-5.06-2.61a2,2,0,0,0-1-.26,1.68,1.68,0,0,0-1.38.85c-1.07-.41-2.07-1-3.11-1.48a4.54,4.54,0,0,0,.12-.5,1.63,1.63,0,0,0-1-1.68c-1.45-.74-2.9-1.46-4.35-2.18a.85.85,0,0,1-.51-.54c0-.14-.12-.28-.18-.43-.76-2-1.51-4-2.28-6a3.22,3.22,0,0,0-2.63-2.16,4.44,4.44,0,0,0-.62-.05,3.18,3.18,0,0,0-2.68,1.43c-.35.47-.69,1-1,1.43-.16.22-.22.3-.35.3a1.77,1.77,0,0,1-.33-.07L72.3,32.26a3.48,3.48,0,0,0-.9-.12,3.41,3.41,0,0,0-.89.12,3.26,3.26,0,0,0-2.36,2.39.63.63,0,0,1-.53.52c-1.3.28-2.59.59-3.88.91a1.65,1.65,0,0,1-.3.05c-.15,0-.18-.1-.27-.38-.74-2.23-1.52-4.44-2.22-6.68a3.43,3.43,0,0,0-3.33-2.51,4.37,4.37,0,0,0-.79.07c-2.21.4-4.42.75-6.64,1.12L48.56,28a3.35,3.35,0,0,0-2.64,4.29c.29,1,.61,1.9.92,2.85.21.64.21.64-.39,1l-2.67,1.49a1,1,0,0,1-.37.17c-.1,0-.16-.1-.34-.31-.77-.89-1.53-1.78-2.31-2.66a3.32,3.32,0,0,0-2.51-1.17,4.3,4.3,0,0,0-.61,0L36,34c-.91.13-1.81.26-2.71.42a3.38,3.38,0,0,0-2.65,4.13q.39,1.84.81,3.69a3.25,3.25,0,0,1,.05,1c-.2,1.92-.4,3.85-.59,5.77-.08.77-.15,1.55-.24,2.32-.05.45-.05.45-.51.55a.76.76,0,0,1-.16,0c-1.87.37-3.75.75-5.63,1.1a3.45,3.45,0,0,0-2.79,2.41q-.82,2.34-1.67,4.68a.85.85,0,0,1-.09.52,1.84,1.84,0,0,1,0,.62.61.61,0,0,1,.07.42A3.74,3.74,0,0,0,20.59,63c.24.29.5.57.75.86,1.23,1.4,2.46,2.8,3.71,4.19a3.23,3.23,0,0,0,2.51,1.15,4.44,4.44,0,0,0,.62,0c.16,0,.35-.14.5-.14a.22.22,0,0,1,.13,0c.19.14.09.45.11.68a3.34,3.34,0,0,0,3,3.08c.79.08,1.59.13,2.38.2l.44,0a4.74,4.74,0,0,0,1.84-.38q1.18-.5,2.37-1L42.57,70a.72.72,0,0,1,.24-.08c.1,0,.12.1.09.31a10,10,0,0,0,0,1.45,3.2,3.2,0,0,0,1.57,2.71c.47.29.94.58,1.4.88a10.56,10.56,0,0,0,2.56,1.22c2.08.68,4.16,1.37,6.24,2a.8.8,0,0,1,.59.61c.45,1.54.94,3.07,1.4,4.6A3.07,3.07,0,0,0,59.3,86a6,6,0,0,0,.94.1h.11a.22.22,0,0,1,.25.23,2.9,2.9,0,0,0,.06.41l.42,4.28c.25,2.6.49,5.19.75,7.79a3.34,3.34,0,0,0,3,3c.62.06,1.24.06,1.86.09.44,0,.44,0,.58.41.23.7.46,1.41.7,2.11a1.62,1.62,0,0,0,1.61,1.29,2.92,2.92,0,0,0,.5,0h0c.07.17.15.34.21.52.35.94.69,1.89,1,2.83a1.66,1.66,0,0,0-1,2.18c.17.64.35,1.27.52,1.9.12.46.12.46-.27.76l-.2.16L64,119.07a3.39,3.39,0,0,0-.32,5.22l.74.72c2.07,2,4.13,4.09,6.21,6.11a3.35,3.35,0,0,0,4.83-.08l1.53-1.55,8.27-8.38a3.24,3.24,0,0,0,.9-1.6c.07-.32.15-.64.19-1,.24-1.56.42-3.12.68-4.67a1.58,1.58,0,0,1,.6-1c1.39-1.2,2.77-2.39,4.14-3.61a1.9,1.9,0,0,1,1.2-.5c1.07-.06,2.14-.16,3.21-.24,2.12-.16,4.24-.34,6.36-.47a3.69,3.69,0,0,0,3-1.66q3.58-5.2,7.22-10.37a6.1,6.1,0,0,0,1.05-2.34c.07-.34.16-.67.23-1q1.22-5.5,2.41-11a1.74,1.74,0,0,1,.56-1c1.28-1.18,2.55-2.39,3.83-3.57a1.67,1.67,0,0,0,.57-1.58,1.79,1.79,0,0,0-.43-.87h0l2.39-2.48a2,2,0,0,0,1.15.42A1.75,1.75,0,0,0,125.7,72l.53-.5c.82-.82,1.62-1.65,2.46-2.45a4.82,4.82,0,0,0,1.49-2.17V64.56Zm-18.18-9.38a4,4,0,1,1-4,4A4,4,0,0,1,111.94,55.17Zm-67.16-8.5a4,4,0,1,1-4,4A4,4,0,0,1,44.78,46.67ZM51,61.79H38.56V58.88A4.36,4.36,0,0,1,39.9,56a3.93,3.93,0,0,1,3.64-1,4.62,4.62,0,0,0,1,.1A4.43,4.43,0,0,0,45.8,55a3.9,3.9,0,0,1,3.6.8A4.39,4.39,0,0,1,51,58.88ZM65.06,92v-2.9A4.27,4.27,0,0,1,66.4,86.3a3.91,3.91,0,0,1,3.64-1,4.62,4.62,0,0,0,1,.11,4.43,4.43,0,0,0,1.27-.19,3.85,3.85,0,0,1,3.59.81,4.36,4.36,0,0,1,1.6,3.08V92ZM67.3,80.9a4,4,0,1,1,4,4A4,4,0,0,1,67.3,80.9Zm11,22.93a4,4,0,1,1-4,4A4,4,0,0,1,78.32,103.83ZM84.54,119H72.11V116a4.27,4.27,0,0,1,1.34-2.84,3.93,3.93,0,0,1,3.64-1,4.69,4.69,0,0,0,2.25-.08,3.89,3.89,0,0,1,3.6.8,4.44,4.44,0,0,1,1.6,3.08Zm5.52-38.34c-.15,0-.3,0-.45,0l-8,22.19-1.39-.65,7.91-22a3.67,3.67,0,0,1-.83-.69L78,84.25l-.58-1.59,9.14-4.75a3.65,3.65,0,0,1-.15-1,3.78,3.78,0,0,1,.27-1.39L52,55.56l.76-1.33,34.77,20a3.66,3.66,0,0,1,5.21.1l10.75-5.49.77,1.5L93.57,75.83a3.51,3.51,0,0,1,.19,1.09A3.62,3.62,0,0,1,93,79.13l4,5.23-1.2.9-3.94-5.14A3.64,3.64,0,0,1,90.06,80.61Zm15.29,7.33a4,4,0,1,1-4-4A4,4,0,0,1,105.35,87.94Zm2.23,11.14H95.15v-2.9a4.27,4.27,0,0,1,1.34-2.84,3.91,3.91,0,0,1,3.64-1,4.62,4.62,0,0,0,1,.11,4.43,4.43,0,0,0,1.27-.19,3.87,3.87,0,0,1,3.6.81,4.35,4.35,0,0,1,1.59,3.08Zm10.57-28.79H105.72V67.38a4.27,4.27,0,0,1,1.34-2.84,3.93,3.93,0,0,1,3.64-1,4.62,4.62,0,0,0,1,.1A4.43,4.43,0,0,0,113,63.5a3.87,3.87,0,0,1,3.59.8,4.4,4.4,0,0,1,1.6,3.08Z"/><path d="M89.49,76.36l0-.09.08,0,0,0,0,.06.43.2-.34-.67.28-.14-2.54-1.47a3.84,3.84,0,0,0-.87,1.27l2.11,1.22Z"/><path d="M90.16,77.9l-1.5.79-.5,1.38a3.73,3.73,0,0,0,1.45.5l.83-2.31Z"/><path d="M89.25,77l-.5-.28-2.23,1.16a3.72,3.72,0,0,0,.81,1.47l1.33-.69Z"/><polygon points="89.48 77.01 89.83 76.75 89.68 76.34 89.61 76.3 89.49 76.36 89.25 77.03 89.69 77.29 89.48 77.01"/><path d="M90.58,76l-.17.29.28-.21.65.86,2.23-1.14a3.67,3.67,0,0,0-.85-1.47l-2.67,1.37Z"/><polygon points="90.11 76.54 90.11 76.54 90.11 76.54 90.11 76.54"/><path d="M93,79.13,91.34,77l-.54.27-.36,1,1.42,1.86A3.61,3.61,0,0,0,93,79.13Z"/><polygon points="89.83 76.75 89.96 77.1 90.19 76.7 90.11 76.54 89.83 76.75"/><polygon points="89.96 77.1 89.81 77.36 89.69 77.29 90.16 77.9 90.23 77.87 89.96 77.1"/><polygon points="90.25 76.6 90.41 76.32 90.11 76.54 90.25 76.6"/><polygon points="90.25 76.6 90.19 76.7 90.54 77.38 90.8 77.24 90.92 76.92 90.25 76.6"/><polygon points="100.78 96.46 100.78 96.46 100.78 96.24 100.78 96.25 100.78 96.46"/><polygon points="101.06 96.48 101.09 96.46 101.05 96.46 101.06 96.48"/></svg>