<svg id="Camada_1" data-name="Camada 1" xmlns="http://www.w3.org/2000/svg" viewBox="0 0 150 150"><path d="M108.52,43.05a8,8,0,0,0-7,2.56A12.23,12.23,0,0,0,99,49.28,13.42,13.42,0,0,0,97.83,53a20.35,20.35,0,0,1-.73,3.24,6,6,0,0,1-1.33,2.45,6.61,6.61,0,0,1-5,1.61Q88,60.18,85,57.18a85.35,85.35,0,0,1-8.27-10.07c0-.1-.28-.41-.68-.94s-.76-1-1.08-1.46a7.32,7.32,0,0,1-.53-.78l-.07-.08q-1.68,1.83-5.47,6.74a77.9,77.9,0,0,1-6.18,7.3,10,10,0,0,1-4.85,2.87,4.83,4.83,0,0,1-4.7-1.56,8.06,8.06,0,0,1-2-3.31,13.94,13.94,0,0,1-.69-3.54,12.76,12.76,0,0,0-.79-3.63,9.3,9.3,0,0,0-2.25-3.56,8,8,0,0,0-6.64-2.6,10.76,10.76,0,0,0-6.68,3.35A12,12,0,0,0,30.45,53,8,8,0,0,0,33,60a12.74,12.74,0,0,0,3.67,2.55,13.78,13.78,0,0,0,3.67,1.16,20.35,20.35,0,0,1,3.24.73A5.77,5.77,0,0,1,46,65.76a6.61,6.61,0,0,1,1.61,5q-.07,2.7-3.07,5.69a85.28,85.28,0,0,1-10.07,8.28,10.92,10.92,0,0,0-.94.67c-.52.4-1,.76-1.46,1.09a6.43,6.43,0,0,1-.78.52l38.34,38.35s.06,0,.11,0,.13-.05.15-.08l.56-.41a12.8,12.8,0,0,0,1.18-.88c.51-.41.91-.7,1.18-.88a85.58,85.58,0,0,0,10.08-8.27c2-2,3-3.9,3.06-5.7a6.61,6.61,0,0,0-1.6-5.05,5.93,5.93,0,0,0-2.46-1.33,19.87,19.87,0,0,0-3.24-.73A13.72,13.72,0,0,1,75,100.88a12.11,12.11,0,0,1-3.67-2.55,8,8,0,0,1-2.57-7,12,12,0,0,1,3.65-7.06,10.88,10.88,0,0,1,6.72-3.39,8,8,0,0,1,6.65,2.6,9.39,9.39,0,0,1,2.24,3.56,12.76,12.76,0,0,1,.79,3.63,13.78,13.78,0,0,0,.69,3.54,8.18,8.18,0,0,0,2,3.32,4.84,4.84,0,0,0,4.7,1.55,10.09,10.09,0,0,0,4.85-2.86c1.14-1.15,2.31-2.44,3.48-3.86s2.44-3,3.82-4.83,2.44-3.16,3.22-4.08c.25-.3.65-.73,1.19-1.28l-.18-.18a28.71,28.71,0,0,0-4.87-3.75,33.07,33.07,0,0,1-4.91-3.7q-4.64-4.65-.52-8.77a8.12,8.12,0,0,1,3.31-2,13.94,13.94,0,0,1,3.54-.69,13.09,13.09,0,0,0,3.64-.79,9.36,9.36,0,0,0,3.55-2.24A8,8,0,0,0,119,53.42a10.88,10.88,0,0,0-3.39-6.72A12,12,0,0,0,108.52,43.05Z"/></svg>