<svg xmlns="http://www.w3.org/2000/svg" width="125.431" height="102.328" viewBox="0 0 125.431 102.328">
  <defs>
    <style>
      .cls-1 {
        fill: #aed1eb;
      }

      .cls-2 {
        fill: #fff;
      }

      .cls-3 {
        fill: #8aa5ba;
      }

      .cls-4 {
        fill: #9e9d9d;
      }

      .cls-5 {
        fill: #ea7353;
      }

      .cls-6 {
        fill: #f5b379;
      }

      .cls-7 {
        fill: #a278b5;
      }

      .cls-8 {
        fill: #63007f;
      }

      .cls-9 {
        fill: #dfa2cb;
      }

      .cls-10 {
        fill: #ccc;
      }

      .cls-11 {
        fill: #5771ad;
      }

      .cls-12 {
        fill: #97c3da;
      }

      .cls-13 {
        fill: #dbe8fb;
      }

      .cls-14 {
        fill: #9b3e0d;
      }

      .cls-15 {
        fill: #af460f;
      }

      .cls-16 {
        fill: #3a3737;
      }

      .cls-17 {
        fill: #f29866;
      }

      .cls-18 {
        fill: #2a93cc;
      }

      .cls-19 {
        fill: #66baff;
      }

      .cls-20 {
        fill: #58a8e9;
      }
    </style>
  </defs>
  <g id="Student" transform="translate(-101.141 -390.93)">
    <g id="Woman_Student" data-name="Woman Student">
      <g id="Chair">
        <path id="Caminho_637" data-name="Caminho 637" class="cls-1" d="M168.734,490.209c0-1.129.227-20.316.227-29.768h4.97l-1.9,18.237c-.266,4.354-1.024,13.249-1.933,14C168.961,493.621,168.734,491.621,168.734,490.209Z" />
        <path id="Caminho_638" data-name="Caminho 638" class="cls-2" d="M169.383,417.728v37.354H180.59c-2.6-13.264-8.153-39.758-9.583-39.628A1.965,1.965,0,0,0,169.383,417.728Z" />
        <path id="Caminho_639" data-name="Caminho 639" class="cls-3" d="M167.11,457.843a3.9,3.9,0,0,1,3.9-3.9h24.362a3.9,3.9,0,0,1,3.9,3.9Z" />
        <path id="Caminho_640" data-name="Caminho 640" class="cls-4" d="M165.81,458.98h0a1.462,1.462,0,0,1,1.462-1.462H203a1.462,1.462,0,0,1,1.462,1.462h0A1.462,1.462,0,0,1,203,460.441h-35.73A1.462,1.462,0,0,1,165.81,458.98Z" />
        <path id="Caminho_641" data-name="Caminho 641" class="cls-1" d="M204.139,490.209c0-1.129-.227-20.316-.227-29.768h-4.97l1.9,18.237c.265,4.354,1.023,13.249,1.933,14C203.912,493.621,204.139,491.621,204.139,490.209Z" />
      </g>
      <g id="Head">
        <path id="Caminho_642" data-name="Caminho 642" class="cls-5" d="M171.17,413.343c-1.689,2.078-.379,5.684.325,6.983,6.388-.27,18.937-1.364,18.027-3.573-1.137-2.761-1.3-8.932-1.137-11.206s.487-5.035-2.436-6.334c-2.339-1.039-5.359.812-6.009,2.436-.108-.487-1.624-1.624-2.6.325a21.149,21.149,0,0,0-1.624,6.171C175.23,411.394,173.281,410.744,171.17,413.343Z" />
        <path id="Caminho_643" data-name="Caminho 643" class="cls-6" d="M184.487,415.129v-2.111c.7.054,1.137.325,1.625-.65a9.654,9.654,0,0,0,.974-2.761c.162-.812.65-4.977,0-4.328s-3.611.808-4.547.106c-1.3-.975-1.1-.65-1.3.324a3.511,3.511,0,0,1-.974,1.787c-.65-.65-.975-1.462-1.787-.975s-.325,2.6.488,2.924l.324,5.359,4.223,2.761Z" />
        <path id="Caminho_644" data-name="Caminho 644" class="cls-6" d="M181.726,411.718a4.293,4.293,0,0,0,2.761,1.3v.812C183.513,413.667,182.863,413.018,181.726,411.718Z" />
      </g>
      <g id="Body">
        <path id="Caminho_645" data-name="Caminho 645" class="cls-7" d="M190.984,418.54a11.027,11.027,0,0,0-5.522-3.411l6.659,12.181c1.3,0,3.54-.812,3.41-1.462C195.369,425.036,192.77,420.976,190.984,418.54Z" />
        <path id="Caminho_646" data-name="Caminho 646" class="cls-8" d="M168.247,423.9a33.334,33.334,0,0,1,6.009-6.659c1.516-.866,4.645-2.533,5.034-2.273s2.978,1.624,4.223,2.273l1.137-1.136v-1.3c1.3.163,3.073,2.159,4.547,4.223a26.311,26.311,0,0,1,3.248,7.958c.13.909.271,5.468.325,7.633H182.376c-4.006.271-12.6.65-14.942,0-2.923-.812-2.923-3.086-2.76-3.9S167.272,425.686,168.247,423.9Z" />
        <path id="Caminho_647" data-name="Caminho 647" class="cls-9" d="M174.256,429.421c0-1.169,3.085-5.847,3.735-8.12l-5.684,4.872-2.274,5.847c3.248.27,10.881.649,9.257-.163C177.634,431.029,174.256,430.883,174.256,429.421Z" />
        <path id="Caminho_648" data-name="Caminho 648" class="cls-2" d="M183.513,417.078l-4.223-2.436c-.108.054-.324.065-.324.325,0,.324,2.273,4.385,2.923,4.547.52.13,1.3-1.245,1.624-1.949l0,0c.164.329.671,1.343,1.3,1.134.975-.325.163-3.9-.325-4.06C184.313,414.584,183.784,416.212,183.513,417.078Z" />
        <g id="Hand_1" data-name="Hand 1">
          <path id="Caminho_649" data-name="Caminho 649" class="cls-6" d="M187.17,433.751c-.246-1.407-3.5-1.407-4.794-1.407-.259.589-.551,1.681-.178,1.995C182.664,434.732,187.473,435.475,187.17,433.751Z" />
          <path id="Caminho_650" data-name="Caminho 650" class="cls-7" d="M165.648,427.959c1.3-3.155,6.172-8.77,8.12-10.394a4.488,4.488,0,0,1,.812-.487,3.673,3.673,0,0,1,2.761.325,2.287,2.287,0,0,1,1.137,1.949,5.669,5.669,0,0,1-.487,2.273c-.39,1.04-4.168,6.389-6.009,8.933,3.3.487,10,1.494,10.394,1.624s.163,1.895,0,2.761c-4.06.379-13.155.812-15.754-.487C163.537,432.913,164.511,430.72,165.648,427.959Z" />
        </g>
        <path id="Caminho_651" data-name="Caminho 651" class="cls-10" d="M195.055,424.062h9.907a3.279,3.279,0,0,1-.974.974,13.163,13.163,0,0,0-3.248,4.223,12.735,12.735,0,0,0-.812,5.2c-3.086.6-9.29,1.429-9.42,0-.162-1.787,1.462-6.009,2.111-8.121A3.059,3.059,0,0,1,195.055,424.062Z" />
        <path id="Caminho_652" data-name="Caminho 652" class="cls-6" d="M199.916,433.481a1.518,1.518,0,0,0,1.462-1.3,1.977,1.977,0,0,0,.162-.65,2.35,2.35,0,0,0-.324-1.136c-.163-.163-.163-.65-.325-.975s-.325-.162-.487,0-.163,1.624-.325,1.3-.488-.974-.975-.974-.974,1.137-.974,1.949A1.909,1.909,0,0,0,199.916,433.481Z" />
      </g>
      <g id="Leg">
        <g id="Leg_2" data-name="Leg 2">
          <g id="Foot_2" data-name="Foot 2">
            <path id="Caminho_653" data-name="Caminho 653" class="cls-11" d="M216.969,486.427l-.974-1.3,3.086-1.786,1.136,1.137Z" />
            <path id="Caminho_654" data-name="Caminho 654" class="cls-11" d="M218.212,488.651a22.85,22.85,0,0,1-1.243-2.224c.767-.509,2.523-1.62,2.761-1.787a1.294,1.294,0,0,1,1.137-.162,6.1,6.1,0,0,0,2.6-.487c1.32-.395,3.328-.467,3.085.324-.194.634-2.063,1.666-2.761,2.274l-3.334,2.35A1.649,1.649,0,0,1,218.212,488.651Z" />
          </g>
          <path id="Caminho_655" data-name="Caminho 655" class="cls-11" d="M200.566,465.638c-1.559.13-9.2-4.71-12.83-7.146l8.607-2.6c3.628,1.245,10.979,3.833,11.369,4.222.487.488,11.369,22.088,11.531,23.062s-2.761,2.112-3.411,2.112-4.547-6.009-6.009-7.633S202.515,465.476,200.566,465.638Z" />
        </g>
        <g id="Leg_1" data-name="Leg 1">
          <g id="Foot_1" data-name="Foot 1">
            <path id="Caminho_656" data-name="Caminho 656" class="cls-11" d="M191.633,486.264c-.13-.13.379-1.191.65-1.624l3.248.975a8.343,8.343,0,0,1-.487,1.3c-.185.555,0,.974-.487.974A12.469,12.469,0,0,1,191.633,486.264Z" />
            <path id="Caminho_657" data-name="Caminho 657" class="cls-11" d="M190.5,488.376a16.646,16.646,0,0,1,1.136-2.274c.812.433,2.5,1.332,2.761,1.462a1.078,1.078,0,0,1,.65.812c0,.324.487.812,1.462,1.786s2.923,2.761,2.111,2.923a10.471,10.471,0,0,1-3.411-.812l-3.9-1.786A1.647,1.647,0,0,1,190.5,488.376Z" />
          </g>
          <path id="Caminho_658" data-name="Caminho 658" class="cls-11" d="M181.239,458.655c-3.118-.52-5.414-4.331-6.171-6.172h28.421v14.13c-2.544,6.226-7.568,18.9-7.958,19.164-.487.325-2.761-.325-3.248-.812s0-2.111,0-4.06c0-1.559,2.815-16.133,4.223-23.225a12.257,12.257,0,0,1-2.436.975C192.445,459.142,185.137,459.3,181.239,458.655Z" />
        </g>
      </g>
    </g>
    <g id="Table">
      <rect id="Ret창ngulo_85" data-name="Ret창ngulo 85" class="cls-12" width="47.423" height="2.923" transform="translate(158.015 476.357)" />
      <path id="Caminho_659" data-name="Caminho 659" class="cls-2" d="M153.955,489.512c0-1.559.324-28.042.324-41.089l6.172.974-1.787,24.2c-.379,6.009-1.461,18.288-2.761,19.327C154.279,494.222,153.955,491.461,153.955,489.512Z" />
      <path id="Caminho_660" data-name="Caminho 660" class="cls-1" d="M208.686,489.512c0-1.559-.324-28.042-.324-41.089l-6.172.974,1.787,24.2c.379,6.009,1.461,18.288,2.76,19.327C208.362,494.222,208.686,491.461,208.686,489.512Z" />
      <path id="Caminho_661" data-name="Caminho 661" class="cls-3" d="M152.655,448.1c-.39-2.079-1.678-8.553-2.273-11.531l61.553.162c-.812,4.006-2.237,11.455-2.6,12.993-.65,2.761-3.248,2.761-6.984,2.761H159.8C152.818,452.483,153.142,450.7,152.655,448.1Z" />
      <path id="Caminho_662" data-name="Caminho 662" class="cls-13" d="M147.945,433.481h66.913a1.624,1.624,0,0,1,1.624,1.624h0a1.624,1.624,0,0,1-1.624,1.624H147.945a1.624,1.624,0,0,1-1.624-1.624h0A1.624,1.624,0,0,1,147.945,433.481Z" />
    </g>
    <g id="Man_Student" data-name="Man Student">
      <g id="Leg_2-2" data-name="Leg 2">
        <g id="Foot_2-2" data-name="Foot 2">
          <path id="Caminho_663" data-name="Caminho 663" class="cls-6" d="M138.85,486.264l.975-2.273c.812.433,2.891,1.689,2.761,1.948a5.544,5.544,0,0,0-.487,2.112Z" />
          <path id="Caminho_664" data-name="Caminho 664" class="cls-14" d="M137.551,489.188c-.13-.65.758-2.437,1.3-3.249,1.083.488,3.411,1.56,3.411,1.949,0,.488,1.624,2.274,2.436,3.086s2.112,1.949,1.137,2.111c-.8.134-3.9-.974-4.547-1.3S137.714,490,137.551,489.188Z" />
        </g>
        <path id="Caminho_665" data-name="Caminho 665" class="cls-11" d="M140.15,481.392c.26-.909,4.872-16.079,7.146-23.549a17.554,17.554,0,0,0,1.786.487c.65.13,3.3,6.551,4.548,9.744-3.357,5.955-10.2,17.93-10.719,18.19-.65.325-2.761-1.137-3.248-1.786S139.825,482.529,140.15,481.392Z" />
      </g>
      <g id="Chair-2" data-name="Chair">
        <path id="Caminho_666" data-name="Caminho 666" class="cls-1" d="M117.412,490.7c0-1.062.228-19.1.228-27.982l4.32.664-1.251,16.479c-.265,4.092-1.023,12.454-1.932,13.162C117.64,493.9,117.412,492.024,117.412,490.7Z" />
        <rect id="Ret창ngulo_86" data-name="Ret창ngulo 86" class="cls-12" width="29.558" height="2.274" transform="translate(120.336 480.905)" />
        <path id="Caminho_667" data-name="Caminho 667" class="cls-3" d="M104.1,415.941a3.9,3.9,0,0,1,4.637,2.981l4.556,20.948a3.9,3.9,0,0,1-2.981,4.637Z" />
        <path id="Caminho_668" data-name="Caminho 668" class="cls-3" d="M118.387,460.766a3.9,3.9,0,0,1,3.9-3.9h24.361a3.9,3.9,0,0,1,3.9,3.9Z" />
        <path id="Caminho_669" data-name="Caminho 669" class="cls-1" d="M151.518,490.7c0-1.062-.227-19.1-.227-27.982l-4.32.664,1.25,16.479c.266,4.092,1.024,12.454,1.933,13.162C151.291,493.9,151.518,492.024,151.518,490.7Z" />
        <path id="Caminho_670" data-name="Caminho 670" class="cls-4" d="M111.078,447.773c-.519-2.728-4.872-23.116-6.983-32.969a5.931,5.931,0,0,0-2.111,1.137c-1.625,1.137-.488,5.684,0,7.633s6.983,32.157,8.445,35.406,5.359,4.872,8.12,4.872c2.209,0,23.171-.325,32.645-.487v-2.924h-3.573c-6.984.054-21.8.13-25.174,0-4.223-.162-4.06-.487-6.659-1.786S111.728,451.184,111.078,447.773Z" />
      </g>
      <g id="Leg_1-2" data-name="Leg 1">
        <g id="Foot_1-2" data-name="Foot 1">
          <path id="Caminho_671" data-name="Caminho 671" class="cls-6" d="M161.913,489.137l-.975-3.086,3.736-.163.812,3.573Z" />
          <path id="Caminho_672" data-name="Caminho 672" class="cls-15" d="M161.913,492.222a6.863,6.863,0,0,1-.163-3.085c.1-.206,3.606-.39,3.736,0,.162.487,3.573,2.111,5.034,2.761s0,.974-.487.974h-6.009C162.725,492.872,162.075,492.71,161.913,492.222Z" />
        </g>
        <path id="Caminho_673" data-name="Caminho 673" class="cls-11" d="M124.071,453.569c-2.988-2.6-3.3-8.879-3.086-11.693l17.216-2.6a8.528,8.528,0,0,0,1.3,2.111c.485.728,8.933,3.736,13.318,5.2s5.2,5.36,6.009,6.659,6.171,32,6.171,32.969-3.9.65-4.385,0-7.8-17.215-10.069-22.9-4.872-5.2-10.557-5.522S127.807,456.817,124.071,453.569Z" />
      </g>
      <g id="Head-2" data-name="Head">
        <path id="Caminho_674" data-name="Caminho 674" class="cls-16" d="M122.285,400.786c.5,2.021,3.14,3.952,4.71,4.548l8.282-4.386c.38,0,1.43-.487,2.6-2.436s-.162-2.869-.974-3.085c.487-.7.617-2.631-2.112-4.061s-5.089.975-6.009,2.6c.162-.487-1.624-1.137-3.248,0-1.733,1.213-1.029,2.436-.487,3.41C124.234,395.914,121.635,398.188,122.285,400.786Z" />
        <path id="Caminho_675" data-name="Caminho 675" class="cls-6" d="M132.516,409.231v-2.923c.7.054,2.342,1.191,2.924-1.137.318-1.27.269-1.418.494-2.544.163-.812.48-5.9-.169-5.252s-4.541.867-5.515.217-1.137.163-1.137,1.462a3.046,3.046,0,0,1-1.144,2.111c-.812-.65-1.422-.65-1.942,0s.271,2.058.812,2.6v4.818l4.71,1.516Z" />
        <path id="Caminho_676" data-name="Caminho 676" class="cls-17" d="M129.756,405.06a7.968,7.968,0,0,0,2.76,1.249v.862C131.542,407.009,130.892,406.521,129.756,405.06Z" />
      </g>
      <g id="Body-2" data-name="Body">
        <g id="Hand_2" data-name="Hand 2">
          <path id="Caminho_677" data-name="Caminho 677" class="cls-6" d="M143.723,425.147a1.18,1.18,0,0,1-1.137,0l-5.522,2.761v2.437c2.436.162,7.471.454,8.12.324.812-.162,6.457-6.691,6.984-7.308.65-.761,3.411-5.2,4.06-5.522a6.735,6.735,0,0,0,1.949-1.786,8.086,8.086,0,0,0,.487-5.035c-.487-1.624-1.624-.163-1.786.162-.13.26-.812,1.841-1.137,2.6-.108.27-.357.552-.487-.487-.163-1.3-1.462-.65-1.137-.325s-.162,1.461-.325,1.786a5.792,5.792,0,0,0-.325,1.624c0,.325-.974,1.3-1.624,1.787S144.372,424.823,143.723,425.147Z" />
          <path id="Caminho_678" data-name="Caminho 678" class="cls-18" d="M142.911,424.5c-.39-.91-5.685-8.933-8.283-12.831.541,5.685,1.819,17.151,2.6,17.541C138.2,429.7,143.4,425.635,142.911,424.5Z" />
        </g>
        <path id="Caminho_679" data-name="Caminho 679" class="cls-19" d="M121.635,418.326c1.3-7.665,3.356-9.961,5.2-10.232,1.462-.215,4.57-.139,6.009,1.3a6.836,6.836,0,0,1,2.112,2.923,67.088,67.088,0,0,1,2.761,13.805c0,2.6,1.624,12.993,1.949,14.942s.812.974-3.574,3.248-14.129,1.137-14.941.162C119.93,443.012,120.011,427.908,121.635,418.326Z" />
        <path id="Caminho_680" data-name="Caminho 680" class="cls-20" d="M133.816,437.542a8.687,8.687,0,0,1-4.223-1.949l9.1-.975.325,2.436A22.257,22.257,0,0,1,133.816,437.542Z" />
        <g id="Hand_1-2" data-name="Hand 1">
          <path id="Caminho_681" data-name="Caminho 681" class="cls-6" d="M136.577,429.7c-.78-.13-.65-1.678-.488-2.436-2.652.92-8.023,2.923-8.282,3.573-.325.812,1.136,3.573,1.786,4.71s3.573.649,5.2.649,19-3.248,19.489-2.923,4.385.812,4.548-.325-2.436-2.436-3.086-2.6-1.462.487-3.086.487S137.551,429.857,136.577,429.7Z" />
          <path id="Caminho_682" data-name="Caminho 682" class="cls-18" d="M125.208,418.164a6.51,6.51,0,0,1,3.573-6.659,5.669,5.669,0,0,1,1.787-.487,3.181,3.181,0,0,1,2.923,2.111,97.469,97.469,0,0,1,2.761,12.83c.162,1.787.325,2.112-.812,3.086-1.334,1.143-6.877,2.995-7.958,2.274C126.507,430.669,125.695,423.036,125.208,418.164Z" />
        </g>
      </g>
    </g>
  </g>
</svg>
