<svg xmlns="http://www.w3.org/2000/svg" width="66.039" height="78.807" viewBox="0 0 66.039 78.807">
  <defs>
    <style>
      .cls-1 {
        fill: #878787;
      }

      .cls-2 {
        fill: #1351b4;
      }

      .cls-3 {
        fill: #5771ad;
      }

      .cls-4 {
        fill: #134b7a;
      }

      .cls-5 {
        fill: #fff;
      }

      .cls-6 {
        fill: #9d9d9c;
      }

      .cls-7 {
        fill: #1d71b8;
      }

      .cls-8 {
        fill: #009fe3;
      }

      .cls-9 {
        fill: #f29866;
      }

      .cls-10 {
        fill: #3c3c3b;
      }

      .cls-11 {
        fill: #ff1d25;
      }

      .cls-12 {
        fill: #706f6f;
      }

      .cls-13 {
        fill: #e60000;
      }
    </style>
  </defs>
  <g id="Grupo_333" data-name="Grupo 333" transform="translate(-972.565 -413.845)">
    <g id="Grupo_326" data-name="Grupo 326">
      <path id="Caminho_827" data-name="Caminho 827" class="cls-1" d="M1027.263,492.652a11.342,11.342,0,1,1,11.341-11.341A11.354,11.354,0,0,1,1027.263,492.652Zm0-20.671a9.33,9.33,0,1,0,9.33,9.33A9.34,9.34,0,0,0,1027.263,471.981Z"/>
    </g>
    <g id="Grupo_327" data-name="Grupo 327">
      <path id="Caminho_828" data-name="Caminho 828" class="cls-2" d="M1013.756,482.191a.664.664,0,0,1-.633-.634c-1-8.124,4.11-15.62,14.477-14.766,1.083.089,1.64.346,1.769,1.079.06.344-1.1.414-1.446.415-8.316.027-13.533,6.082-13.533,13.272A.634.634,0,0,1,1013.756,482.191Z"/>
    </g>
    <path id="Caminho_829" data-name="Caminho 829" class="cls-3" d="M1008.255,453.987c-2.035-1.577-4.394-3.875-6.8-4.8-.458-.175-2.343-.563-2.7-.041-.388.576.442,2.244.651,2.744.874,2.089,3.55,3.795,3.907,6.04.314,1.975-2.375,3.646-3.568,4.918a32.434,32.434,0,0,0-2.181,2.69c-.679.9-.676,1.446.231,2.177.708.571,2.324,1.254,3.2.726.5-.3.811-1.4,1.306-1.92,1.88-1.957,3.952-3.627,5.549-5.85C1009.557,458.316,1011.13,456.215,1008.255,453.987Z"/>
    <path id="Caminho_830" data-name="Caminho 830" class="cls-4" d="M1004.192,472.683c-1.059-1.612-1.6-5.452-4.042-4.584-1.226.435-1.581.751-2.575-.323-.98-1.059-.707-1.121-1.671.241-.8,1.132-2.023,2.3-.487,3.329a39.777,39.777,0,0,0,4.222,2.034c1.154.589,2.443,1.748,3.793,1.566C1004.876,474.751,1004.9,473.756,1004.192,472.683Z"/>
    <path id="Caminho_831" data-name="Caminho 831" class="cls-5" d="M995.51,455.563c.069-.594-.517-1.2-.949-1.539a3.794,3.794,0,0,0-1.944-.747h0a.285.285,0,0,0-.052-.014c-.882-.065-2.43.273-1.6,1.436a2.538,2.538,0,0,0,1.456,1.2,10.09,10.09,0,0,0,2.733.119.935.935,0,0,0,.358-.452Z"/>
    <g id="Grupo_328" data-name="Grupo 328">
      <path id="Caminho_832" data-name="Caminho 832" class="cls-1" d="M986.269,492.652a11.342,11.342,0,1,1,11.341-11.341A11.354,11.354,0,0,1,986.269,492.652Zm0-20.671a9.33,9.33,0,1,0,9.329,9.33A9.34,9.34,0,0,0,986.269,471.981Z"/>
    </g>
    <g id="Grupo_329" data-name="Grupo 329">
      <path id="Caminho_833" data-name="Caminho 833" class="cls-6" d="M1003.869,483.811a4.053,4.053,0,1,1,4.053-4.053A4.057,4.057,0,0,1,1003.869,483.811Z"/>
    </g>
    <g id="Grupo_330" data-name="Grupo 330">
      <path id="Caminho_834" data-name="Caminho 834" class="cls-6" d="M986.442,483.409a2.1,2.1,0,1,1,2.1-2.1A2.1,2.1,0,0,1,986.442,483.409Z"/>
    </g>
    <path id="Caminho_835" data-name="Caminho 835" class="cls-6" d="M1025.821,479.331c-1.357-3.949-4.145-12.645-4.145-12.645l-3.059-9.467c1.129-.411,2.7-1.144,2.584-2.293-.149-1.532-2.1-3.518-3.243-4.115-.708-.37-1.648-.044-2.685.239-.184.05-.375.1-.573.154a.431.431,0,0,0,.215.835c.2-.053.4-.106.585-.157a3.422,3.422,0,0,1,2.015-.225c.971.506,2.55,2.217,2.662,3.367.031.314-.855,1.053-3.368,1.794a.431.431,0,0,0,.122.844,1.578,1.578,0,0,0,.4-.065l3.121,9.431c0,.007,4.865,14.361,4.867,14.367.314.987,1.418.149,1.795.152.988.009,1.048.74,1.493.315C1029.737,480.785,1026.166,480.335,1025.821,479.331Z"/>
    <g id="Grupo_331" data-name="Grupo 331">
      <path id="Caminho_836" data-name="Caminho 836" class="cls-2" d="M973.2,478.361a.634.634,0,0,1-.606-.82c1.855-6.044,5.55-11,14.095-11,6.3,0,12.764,4.66,13.18,10.956.023.349-.016.668-.35.772a.634.634,0,0,1-.793-.416,13.045,13.045,0,0,0-24.92.057A.634.634,0,0,1,973.2,478.361Z"/>
    </g>
    <path id="Caminho_837" data-name="Caminho 837" class="cls-7" d="M1020.036,460.042c-.159-.516-2.169.212-2.122.664,0,0,.254.856.446,1.646a1.179,1.179,0,0,1-.455,1.2l-8.815,6.307a1.676,1.676,0,0,1-.537.257l-4.793,1.329a1.491,1.491,0,0,1-1.848-1.111c-.916-3.223-3.655-12.894-3.655-12.894-.044-.152-.807-.168-.959-.124a.288.288,0,0,0-.195.357l2.347,8.361-1.84,2.146s-2.513-2.228-3.208-2.969a2.762,2.762,0,0,0-1.82-.857c-3.75.034-15.342.291-15.342.291a.549.549,0,0,0-.6.5.564.564,0,0,0,.479.525H991.84a2,2,0,0,1,1.081.317l3.964,3.109L986.26,480.649a.964.964,0,0,0-.078.756.341.341,0,0,0,.386.213c4.209-.371,12.351-1.723,16.537-2.4.587-.1,6.008-6.449,6.008-6.449a4.394,4.394,0,0,1,.876-.745l8.976-5.8a.6.6,0,0,1,.821.156c.126.271.179.47.251.651.275.689,2.35-.027,2.166-.612C1021.652,464.663,1020.036,460.042,1020.036,460.042Zm-32.147,20.09,11.925-12.692s1.571,5.894,2.047,8.046c.137.616.218,1.13.3,1.533.128.635-.094,1.21-.732,1.324l-13.254,2.365C987.8,480.775,987.633,480.412,987.889,480.132Z"/>
    <path id="Caminho_838" data-name="Caminho 838" class="cls-8" d="M1015.095,479.314c-.554-.973-1.8-.606-3.027-.617a12.873,12.873,0,0,1-2.451-.153c-.662-.137-1.614-.771-2.293-.64-1.2.23-2.056,1.781-3.361,2.117-1.876.484-2.334-.847-2.174,1.748.09,1.459-.241,2.22,1.49,2.506,1.707.282,3.29-.86,4.947-1.092a12.3,12.3,0,0,0,4.964-1.6C1013.446,481.438,1015.608,480.215,1015.095,479.314Z"/>
    <path id="Caminho_839" data-name="Caminho 839" class="cls-3" d="M1007.3,461.459c-1.973-2.766-3.444-5.786-5.341-8.617a23.49,23.49,0,0,1-1.41-2.125c-.182-.35-.276-1.041-.519-1.307-.761-.834-3.3-1.17-4.419-1.276a11.734,11.734,0,0,0-2.384.084,13.374,13.374,0,0,0-2.761.186c-.7.4-.654,2.183-.482,2.878a5.934,5.934,0,0,0,2.492,3.045,32,32,0,0,1,3.317,3.05,30.976,30.976,0,0,1,2.507,3.088,25.135,25.135,0,0,0,2.831,2.47c2,1.964,1.04,6.361.894,8.862a17.774,17.774,0,0,0,.139,2.926c.063.6.206.639-.079,1.313-.306.726-.682.93-.611,1.809.051.646.221,1.813.759,2.133,1.075.638,2.663-.16,3.577-.661,3.564-1.952.813-4.853.771-7.946a12.8,12.8,0,0,1,.883-4.73C1007.959,465.264,1008.181,462.7,1007.3,461.459Z"/>
    <path id="Caminho_840" data-name="Caminho 840" class="cls-6" d="M1015.481,450.891c-.353-.316-1.176-.43-1.453.023a.25.25,0,0,0-.037.169.88.88,0,0,0,.018,1.037.955.955,0,0,0,1.483.249A1.068,1.068,0,0,0,1015.481,450.891Z"/>
    <path id="Caminho_841" data-name="Caminho 841" class="cls-5" d="M1005.793,442.2c-.279-.667-1.054-2.519-2.074-2.285-1.3.3-.365,2.268-.132,2.932a20.312,20.312,0,0,0,3.038,6.044c.625.818,2.815,2.2,4.011,1.661C1011.681,450.078,1007.043,445.179,1005.793,442.2Z"/>
    <path id="Caminho_842" data-name="Caminho 842" class="cls-9" d="M1010.035,424.945c-.184-.429-.627-.918-.628-1.415,0-.418.338-.9.365-1.365a5.947,5.947,0,0,0-.658-2.9,5.456,5.456,0,0,0-3.492-2.535c-4.053-1.14-7.3,2-5.885,6.048a14.55,14.55,0,0,1,.787,2.249,10.6,10.6,0,0,1-.18,3.068c-.233,2.262,1.568,3.872,3.464,2.18.469-.418,1.022-1.638,1.592-1.832.747-.254,1.721.549,2.582.084.81-.438.732-1.383,1.017-2.143a1.966,1.966,0,0,1,.416-.794C1009.61,425.376,1010.231,425.406,1010.035,424.945Z"/>
    <path id="Caminho_843" data-name="Caminho 843" class="cls-10" d="M1009.752,418.04c-1.972-2.393-6.6-2.9-9.266-1.344-1.647.96-2.074,2.661-1.923,4.453a4.843,4.843,0,0,0,.972,2.31c.371.59.653,1.6,1.275,1.977a2.452,2.452,0,0,0,1.922-.02c.619-.568-.03-1.4-.112-1.912a1.227,1.227,0,0,1,1.251-1.521c.665.045.64,1.062,1.062,1.206.754.257,1.005-.278,1.246-.873.318-.786.338-1.227,1.053-1.737C1007.848,420.141,1010.8,419.308,1009.752,418.04Z"/>
    <path id="Caminho_844" data-name="Caminho 844" class="cls-11" d="M1005.116,431.712c-.323-2.107-2.717-3.411-4.476-4.191-1.171-.519-1.083.043-1.89.921a33.28,33.28,0,0,0-2.681,2.884,23.022,23.022,0,0,0-3.146,6.857c-.859,2.78-1.107,5.693-1.958,8.464-.149.486-.607,1.124-.366,1.575.217.4,1.52.768,1.934.907a9.1,9.1,0,0,0,3.794.385,39.328,39.328,0,0,1,4.026-.31c1.039.013,1.2.185,1.58-1,.844-2.618,1.553-5.34,2.243-8.012C1004.873,437.491,1005.542,434.5,1005.116,431.712Z"/>
    <g id="Grupo_332" data-name="Grupo 332">
      <path id="Caminho_845" data-name="Caminho 845" class="cls-4" d="M1010.3,416.415a.27.27,0,0,0-.327.138,6.435,6.435,0,0,1-2.428,2.627c-2.053,1.067-4.153.487-6.328.824-1.717.266-1.705,2.478-3.708,2.156-.456-.074-.606.261-.18.6.815.647,1.81,1.306,2.916.827.638-.276.954-.876,1.444-1.323,1.036-.944,1.681-1.132,3.593-.947a4.115,4.115,0,0,0,2.86-1.294,5.266,5.266,0,0,1,1.824-1.216,13.621,13.621,0,0,1,2.092-.39.294.294,0,0,0,.257-.173C1012.577,417.771,1010.855,416.575,1010.3,416.415Z"/>
      <path id="Caminho_846" data-name="Caminho 846" class="cls-8" d="M1010.1,416.178a14.351,14.351,0,0,0-6.28-2.313,9.2,9.2,0,0,0-4.8,1.4c-1.906,1.06-2.1,1.257-2.559,3.8-.323,1.782-.521,3.768,1.63,3.574,1.687-.152,1.684-1.8,3-2.322a7.759,7.759,0,0,1,2.667-.112,8.04,8.04,0,0,0,2.656-.2C1007.009,419.8,1011.1,416.811,1010.1,416.178Z"/>
      <path id="Caminho_847" data-name="Caminho 847" class="cls-12" d="M1006.612,421.135c-.04-.366-1.049-.19-1,.177a20.338,20.338,0,0,1-.019,7.206c-.08.361.814.393.876.029A26.657,26.657,0,0,0,1006.612,421.135Z"/>
    </g>
    <path id="Caminho_848" data-name="Caminho 848" class="cls-9" d="M1017.636,450.046a2.523,2.523,0,0,0-1.6-1.258,2.5,2.5,0,0,0-1.112.293,8.249,8.249,0,0,1-1.562.4.232.232,0,0,0-.172.109c-.641.483-1.441,2.366-.283,2.587a1.087,1.087,0,0,0,1.117-.671c.129-.224.17-.438.414-.6a.763.763,0,0,1,1.063.207c.28.511-.123,1.056-.478,1.388a.265.265,0,0,0,.042.423.235.235,0,0,0,.312.129,2.669,2.669,0,0,0,1.646-1.07C1017.342,451.486,1017.926,450.654,1017.636,450.046Z"/>
    <path id="Caminho_849" data-name="Caminho 849" class="cls-13" d="M1004.277,434.34c-1.192-1.855-3.387-2.659-4.069-1.907-1.905,2.1,1.985,6.357,1.291,8.23-1.151,3.1.723,4.254-.733,6.033-.657.8.786,2.693,1.167,1.51.844-2.618,1.553-5.34,2.243-8.012C1004.873,437.491,1005.008,435.479,1004.277,434.34Z"/>
    <path id="Caminho_850" data-name="Caminho 850" class="cls-11" d="M1013.781,449.217c-.435-.453-.891-.456-1.312-1.01a50.335,50.335,0,0,1-2.622-4.942c-1.1-2.514-2.364-3.6-3.13-5.6a25.831,25.831,0,0,1-1.118-3.895,7.2,7.2,0,0,0-.794-2.87c-1.022-1.458-3.92-1.522-4.786.135-.995,1.9.964,4.669,2,6.225a63.846,63.846,0,0,1,3.967,6.907,23.257,23.257,0,0,0,4.651,6.383c.444.416,1.4,1.609,1.989,1.5C1013.053,451.977,1014.253,449.473,1013.781,449.217Z"/>
  </g>
</svg>
