<svg xmlns="http://www.w3.org/2000/svg" width="56.057" height="93.215" viewBox="0 0 56.057 93.215">
  <defs>
    <style>
      .cls-1 {
        fill: #f0c960;
      }

      .cls-2 {
        fill: #e60000;
      }

      .cls-3 {
        fill: #6f89ca;
      }

      .cls-4 {
        fill: #5771ad;
      }

      .cls-5 {
        fill: #7b519b;
      }

      .cls-6 {
        fill: #5d3e4a;
      }

      .cls-7 {
        fill: #ff1d25;
      }

      .cls-8 {
        fill: #e9a754;
      }

      .cls-9 {
        fill: #71201c;
      }

      .cls-10 {
        fill: #872f26;
      }

      .cls-11 {
        fill: #de568e;
      }

      .cls-12 {
        fill: #cd337b;
      }

      .cls-13 {
        fill: #fff;
      }
    </style>
  </defs>
  <g id="Grupo_280" data-name="Grupo 280" transform="translate(-278.264 -395.317)">
    <path id="Caminho_683" data-name="Caminho 683" class="cls-1" d="M303.012,416.969c-1.093.409.268,5.816,6.715,14.727,1.652,2.284,3.785-1.1,2.932-2.519S308.2,421.6,308.2,421.6,305.05,416.208,303.012,416.969Z"/>
    <path id="Caminho_684" data-name="Caminho 684" class="cls-1" d="M303.012,416.969c-1.093.409.268,5.816,6.715,14.727-1.7-5.483-1.793-7.24-2.459-9.635C306.823,420.463,305.05,416.208,303.012,416.969Z"/>
    <path id="Caminho_685" data-name="Caminho 685" class="cls-2" d="M308.692,421.276a7.1,7.1,0,0,1-1.289,1.316,7.015,7.015,0,0,1-2.57,1.329,23.451,23.451,0,0,1-1.967-4.8c-.04-.168-.074-.322-.1-.47s-.054-.309-.073-.45c-.074-.711.046-1.134.322-1.235a1.422,1.422,0,0,1,.221-.06,1.7,1.7,0,0,1,.631.027.389.389,0,0,1,.135.04C306.034,417.585,308.692,421.276,308.692,421.276Z"/>
    <path id="Caminho_686" data-name="Caminho 686" class="cls-2" d="M307.4,422.592a7.015,7.015,0,0,1-2.57,1.329,23.451,23.451,0,0,1-1.967-4.8c-.04-.168-.074-.322-.1-.47s-.054-.309-.073-.45c-.074-.711.046-1.134.322-1.235a1.422,1.422,0,0,1,.221-.06,1.257,1.257,0,0,1,.631.027.389.389,0,0,1,.135.04c1.6.584,2.9,3.759,3.268,5.088C307.316,422.243,307.363,422.418,307.4,422.592Z"/>
    <path id="Caminho_687" data-name="Caminho 687" class="cls-1" d="M310.565,432.223c.232.373.921.323,2.49-.49,1.228-.636,7.214-4.787,7.214-4.787l-.251-1.446s-7.184,3-8.259,4.027S310.048,431.392,310.565,432.223Z"/>
    <path id="Caminho_688" data-name="Caminho 688" class="cls-3" d="M308.213,438.2c.8,11.294-4.82,48.232-4.82,48.232h-.926s-1.759-37.761-1.642-39.193.159-7.686.159-7.686Z"/>
    <path id="Caminho_689" data-name="Caminho 689" class="cls-4" d="M300.8,450.928l1.663,35.506h.463l1.165-39.5Z"/>
    <path id="Caminho_690" data-name="Caminho 690" class="cls-3" d="M284.268,477.58s14.123-13.961,15.417-15.469c.954-1.112,3.692-14.335,3.692-14.335l3.318-2.329V438.5a15.1,15.1,0,0,0-9.973.624c-2.793,8.177-1.421,21.585-1.421,21.585l-11.647,16.318Z"/>
    <path id="Caminho_691" data-name="Caminho 691" class="cls-4" d="M303.429,447.8l1.793-1.53-1.939,3.616Z"/>
    <path id="Caminho_692" data-name="Caminho 692" class="cls-4" d="M305.615,440.057s-7.443.448-7.777,3.133-.39,17.286-.39,17.286l-14.061,16.9s8.406-11.761,11.914-16.675c-.336-7.866-2.265-16.193,1.48-22.5Z"/>
    <g id="Grupo_274" data-name="Grupo 274">
      <path id="Caminho_693" data-name="Caminho 693" class="cls-5" d="M302.783,485.761c-.612.248-1.11,2.327-1.11,2.327h5.688a13.776,13.776,0,0,1-2.619-1.379C303.431,485.851,303.262,485.567,302.783,485.761Z"/>
      <rect id="Ret창ngulo_87" data-name="Ret창ngulo 87" class="cls-6" width="5.689" height="0.444" transform="translate(307.361 488.532) rotate(-180)"/>
    </g>
    <g id="Grupo_275" data-name="Grupo 275">
      <path id="Caminho_694" data-name="Caminho 694" class="cls-5" d="M284.261,477.009c-.351-.56-2.485-.688-2.485-.688l.992,5.6a13.833,13.833,0,0,1,.9-2.82C284.286,477.662,284.536,477.447,284.261,477.009Z"/>
      <rect id="Ret창ngulo_88" data-name="Ret창ngulo 88" class="cls-6" width="5.689" height="0.443" transform="matrix(-0.174, -0.985, 0.985, -0.174, 282.332, 482)"/>
    </g>
    <path id="Caminho_695" data-name="Caminho 695" class="cls-7" d="M309.591,439.761c-6.558,2.221-14.223-.3-14.223-.3s2.309-6.894,2.577-9.753a37.221,37.221,0,0,0-.121-6.221,20.65,20.65,0,0,0-.657-4.014c-.349-.987.57-1.779,1.376-2.262.174-.1.342-.188.489-.262.329-.161.564-.248.564-.248s.745-.094,3.041-.249a2.176,2.176,0,0,1,1.692.826c2.08,2.215,3.329,8.168,3.288,9.451a1.711,1.711,0,0,1-1.645,1.671C306.235,430.7,309.591,439.761,309.591,439.761Z"/>
    <path id="Caminho_696" data-name="Caminho 696" class="cls-2" d="M305.974,428.395a16.844,16.844,0,0,1-3.759-.4,6.42,6.42,0,0,0,3.934,1.484Z"/>
    <path id="Caminho_697" data-name="Caminho 697" class="cls-2" d="M297.428,420.034s.96,8.146.364,10.74-2.423,8.688-2.423,8.688,4.067.97,6.247,1.213a5.566,5.566,0,0,1-2.671-5.372c.4-3.691-.118-12.4.578-15.557C298.293,417.788,297.428,420.034,297.428,420.034Z"/>
    <g id="Grupo_276" data-name="Grupo 276">
      <path id="Caminho_698" data-name="Caminho 698" class="cls-1" d="M279.937,425.063a1.144,1.144,0,0,0,.249,1.33,1.065,1.065,0,0,0,.724.256c.126,0,.462-.154.584-.139.165.021,1.449.7,1.512.654.266-.2.207-.759.48-.951.039-.028-.995-.148-1.369-.74-.329-.424-.6-.893-1.173-.914A1.866,1.866,0,0,0,279.937,425.063Z"/>
      <path id="Caminho_699" data-name="Caminho 699" class="cls-1" d="M278.822,424.33c-.07-.1-.171-.2-.114-.331a.12.12,0,0,1,.124-.075,1.218,1.218,0,0,1,.751.5,1.283,1.283,0,0,0,.835.452,7.117,7.117,0,0,0,.876.05c.153,0,.125.24-.027.237l-.18,0a.124.124,0,0,1-.076.192,1.69,1.69,0,0,1-1.551-.22A4.417,4.417,0,0,1,278.822,424.33Z"/>
      <path id="Caminho_700" data-name="Caminho 700" class="cls-1" d="M278.395,425.1c-.069-.1-.171-.2-.114-.33a.123.123,0,0,1,.125-.076,1.214,1.214,0,0,1,.75.5,1.292,1.292,0,0,0,.835.452,7.138,7.138,0,0,0,.877.05c.152,0,.125.239-.027.237l-.181,0a.124.124,0,0,1-.076.191,1.691,1.691,0,0,1-1.551-.219A4.459,4.459,0,0,1,278.395,425.1Z"/>
      <path id="Caminho_701" data-name="Caminho 701" class="cls-1" d="M278.565,425.908c-.089-.085-.211-.163-.182-.3a.121.121,0,0,1,.105-.1,1.214,1.214,0,0,1,.841.329,1.287,1.287,0,0,0,.913.262,7.045,7.045,0,0,0,.865-.139c.151-.03.175.207.025.237l-.177.037c.064.052.283.319.2.361a2.189,2.189,0,0,1-1.8-.041A4.454,4.454,0,0,1,278.565,425.908Z"/>
      <path id="Caminho_702" data-name="Caminho 702" class="cls-1" d="M278.411,424.658c-.069-.1-.171-.2-.114-.33a.121.121,0,0,1,.124-.076,1.212,1.212,0,0,1,.751.5,1.287,1.287,0,0,0,.835.451,7.123,7.123,0,0,0,.876.051c.154,0,.126.238-.027.236l-.18,0a.123.123,0,0,1-.076.19,1.689,1.689,0,0,1-1.551-.218A4.456,4.456,0,0,1,278.411,424.658Z"/>
      <path id="Caminho_703" data-name="Caminho 703" class="cls-1" d="M279.62,424.165a.12.12,0,0,1,.11-.153,2.8,2.8,0,0,1,1.14.105,2.54,2.54,0,0,1,.779.766.1.1,0,0,1-.053.164.105.105,0,0,1-.081.089c-.439.084-.589-.291-.929-.471S279.759,424.637,279.62,424.165Z"/>
      <path id="Caminho_704" data-name="Caminho 704" class="cls-1" d="M280.069,425.041a1.334,1.334,0,0,0-.03,1.424A5.325,5.325,0,0,1,280.069,425.041Z"/>
      <path id="Caminho_705" data-name="Caminho 705" class="cls-1" d="M280.693,424.954a.826.826,0,0,0,.331.84s-.4-.29-.451-.46A.416.416,0,0,1,280.693,424.954Z"/>
    </g>
    <g id="Grupo_277" data-name="Grupo 277">
      <path id="Caminho_706" data-name="Caminho 706" class="cls-1" d="M320.693,424.995c-.568.021-.844.49-1.173.915-.374.591.458,1.056.623,1.036.122-.015.459.136.585.139a1.068,1.068,0,0,0,.724-.256,1.144,1.144,0,0,0,.248-1.33A1.873,1.873,0,0,0,320.693,424.995Z"/>
      <path id="Caminho_707" data-name="Caminho 707" class="cls-1" d="M322.816,424.766c.069-.1.171-.2.114-.331a.122.122,0,0,0-.125-.075,1.214,1.214,0,0,0-.751.5,1.283,1.283,0,0,1-.834.452,6.945,6.945,0,0,1-.877.05c-.153,0-.125.239.027.237l.181,0a.123.123,0,0,0,.076.191,1.691,1.691,0,0,0,1.551-.22A4.417,4.417,0,0,0,322.816,424.766Z"/>
      <path id="Caminho_708" data-name="Caminho 708" class="cls-1" d="M323.242,425.539c.069-.1.172-.2.114-.331a.122.122,0,0,0-.124-.076,1.21,1.21,0,0,0-.751.5,1.278,1.278,0,0,1-.835.451,7.117,7.117,0,0,1-.876.051c-.153,0-.126.239.026.237l.182,0a.123.123,0,0,0,.075.191,1.693,1.693,0,0,0,1.552-.219A4.527,4.527,0,0,0,323.242,425.539Z"/>
      <path id="Caminho_709" data-name="Caminho 709" class="cls-1" d="M323.072,426.344c.09-.085.211-.163.182-.3a.12.12,0,0,0-.105-.1,1.21,1.21,0,0,0-.841.329,1.286,1.286,0,0,1-.912.262,7.232,7.232,0,0,1-.866-.138c-.151-.031-.175.206-.025.236l.177.037c-.064.052-.282.319-.2.361a2.185,2.185,0,0,0,1.8-.041A4.412,4.412,0,0,0,323.072,426.344Z"/>
      <path id="Caminho_710" data-name="Caminho 710" class="cls-1" d="M323.226,425.094c.07-.1.172-.2.114-.331a.121.121,0,0,0-.124-.075,1.215,1.215,0,0,0-.751.5,1.282,1.282,0,0,1-.835.451,7.106,7.106,0,0,1-.876.051c-.153,0-.125.239.027.236l.181,0a.123.123,0,0,0,.075.191,1.69,1.69,0,0,0,1.552-.22A4.455,4.455,0,0,0,323.226,425.094Z"/>
      <path id="Caminho_711" data-name="Caminho 711" class="cls-1" d="M321.568,425.477a1.334,1.334,0,0,1,.03,1.424A5.328,5.328,0,0,0,321.568,425.477Z"/>
      <path id="Caminho_712" data-name="Caminho 712" class="cls-1" d="M320.944,425.39a.826.826,0,0,1-.331.84s.4-.29.452-.46A.418.418,0,0,0,320.944,425.39Z"/>
    </g>
    <path id="Caminho_713" data-name="Caminho 713" class="cls-1" d="M299.73,418.169a16.793,16.793,0,0,1-1.906,5.316,60.743,60.743,0,0,1-5.135,8.255c-1.651,2.282-3.785-1.1-2.932-2.517s4.456-7.578,4.456-7.578,2.236-3.818,4.162-4.577a1.537,1.537,0,0,1,.657-.121,1.216,1.216,0,0,1,.377.067C299.67,417.115,299.791,417.5,299.73,418.169Z"/>
    <path id="Caminho_714" data-name="Caminho 714" class="cls-1" d="M291.852,432.268c-.232.372-.921.323-2.49-.49-1.228-.636-7.868-5.268-7.868-5.268l.462-1.005s7.626,3.043,8.7,4.067S292.369,431.437,291.852,432.268Z"/>
    <path id="Caminho_715" data-name="Caminho 715" class="cls-1" d="M298.675,421.674s-1.144,3.355-5.787,9.8c-.515.714-1.121,1.712-3.224.455-2.509-1.5-3.336-2.089-3.336-2.089s4.246,2.507,5.2,2.087S298.675,421.674,298.675,421.674Z"/>
    <path id="Caminho_716" data-name="Caminho 716" class="cls-1" d="M289.871,429.032a3.7,3.7,0,0,1,1.023.769,5.916,5.916,0,0,1,.217-2.865Z"/>
    <path id="Caminho_717" data-name="Caminho 717" class="cls-2" d="M299.73,418.169a15.741,15.741,0,0,1-1.581,5.753,4.753,4.753,0,0,1-4.475-2.565s2.775-3.53,4.7-4.289a1.537,1.537,0,0,1,.657-.121,1.216,1.216,0,0,1,.377.067C299.67,417.115,299.791,417.5,299.73,418.169Z"/>
    <path id="Caminho_718" data-name="Caminho 718" class="cls-2" d="M304.329,417.276a2.176,2.176,0,0,0-1.692-.826c-2.3.155-3.041.249-3.041.249s-.235.087-.564.248a1.537,1.537,0,0,0-.657.121c.054.047.114.094.168.141q.594.474,1.187.96c.269.221.545.443.813.665a9.052,9.052,0,0,0,1.913,1.476c1.013.423,1.61-.564,1.778-1.416A5.294,5.294,0,0,0,304.329,417.276Z"/>
    <path id="Caminho_719" data-name="Caminho 719" class="cls-1" d="M303.225,412.493a25.286,25.286,0,0,0-.016,4.355c-.674,2.052-3.889.036-3.889.036.047-.428.064-.947.067-1.465.005-1.06-.06-2.118-.083-2.424,0-.02,0-.034,0-.05s0-.034,0-.034Z"/>
    <path id="Caminho_720" data-name="Caminho 720" class="cls-8" d="M303.237,413.138c-.023.167-.044.323-.058.469a7.173,7.173,0,0,0-.054,1.165c0,.379.014.966.012,1.363-.842.722-3.134-.893-3.795-1.886-.032-1.08-.156-2.26-.156-2.26Z"/>
    <path id="Caminho_721" data-name="Caminho 721" class="cls-9" d="M303.159,416.848c-.543,1.291-3.045.381-3.807-.064-.374-.218-.66.169-.286.387,1.22.712,4.122,1.564,4.463-.28C303.566,416.693,303.28,416.561,303.159,416.848Z"/>
    <path id="Caminho_722" data-name="Caminho 722" class="cls-10" d="M294.146,396.3a3.772,3.772,0,0,0-2.976.192,5.9,5.9,0,0,0-3.206,3.08,5.809,5.809,0,0,0-.489,3.032,4.925,4.925,0,0,0,1.274,3.056c.819.7,1.846.4,2.748.005a6.867,6.867,0,0,0,3.773-4.453,7.111,7.111,0,0,0,.264-1.569.313.313,0,0,0-.112-.266C295.349,398.263,295.125,396.833,294.146,396.3Z"/>
    <path id="Caminho_723" data-name="Caminho 723" class="cls-9" d="M291.188,403.553c-2.523.38-3.18-1.636-3.233-3.762,0-.024.011-.056.015-.08a.244.244,0,0,0-.006-.144,5.809,5.809,0,0,0-.489,3.032,4.925,4.925,0,0,0,1.274,3.056c.819.7,1.846.4,2.748.005a6.867,6.867,0,0,0,3.773-4.453A7.926,7.926,0,0,1,291.188,403.553Z"/>
    <path id="Caminho_724" data-name="Caminho 724" class="cls-10" d="M293.685,395.57c-2.641-1.021-5.643,1.246-6.967,3.351-.229.364.316.757.548.39a6.686,6.686,0,0,1,4.666-3.241c3.458-.423,3.451,3.335,2.169,5.449-.222.367.322.76.547.39C295.842,399.94,296.407,396.621,293.685,395.57Z"/>
    <path id="Caminho_725" data-name="Caminho 725" class="cls-1" d="M298.047,404.944s-.007,5.7,1.233,7.716,3.679,3.67,4.485,3.5c2.135-.447,3.826-5.815,3.648-9.578C307.192,401.9,302.784,399.927,298.047,404.944Z"/>
    <path id="Caminho_726" data-name="Caminho 726" class="cls-10" d="M298.859,404.486a10.24,10.24,0,0,1,.2,4.1c-.515-.414.224,4.071.224,4.071s-6.387-2.863-3.9-10.492a0,0,0,0,1,0-.006,5.648,5.648,0,0,1,2.2-2.478,7.091,7.091,0,0,1,5.471-.366c5.253-1.721,7.919,3.267,6.766,4.989C308.24,406.669,298.859,404.486,298.859,404.486Z"/>
    <g id="Grupo_278" data-name="Grupo 278">
      <path id="Caminho_727" data-name="Caminho 727" class="cls-1" d="M299.262,408.767c-.435-.445-1.978-1.445-2.269-.442-.365,1.259,1.366,4.186,2.411,2.574A1.98,1.98,0,0,0,299.262,408.767Z"/>
      <path id="Caminho_728" data-name="Caminho 728" class="cls-8" d="M298.877,409.2s-1.207-.973-1.226-.29a1.678,1.678,0,0,0,.989,1.662,1.544,1.544,0,0,1-.262-1C298.455,409.046,298.877,409.2,298.877,409.2Z"/>
    </g>
    <path id="Caminho_729" data-name="Caminho 729" class="cls-11" d="M294.088,405.49c.521.087.854-.531,1.1-1.171.417-1.09,1.144-3.2,1.931-3.833.2-.162-.052-1.085-.531-1.306-1.046-.482-2.334.937-2.9,2.33C293.2,402.722,292.9,405.291,294.088,405.49Z"/>
    <path id="Caminho_730" data-name="Caminho 730" class="cls-1" d="M322.017,424.6a.12.12,0,0,0-.11-.154,2.815,2.815,0,0,0-1.139.105,2.555,2.555,0,0,0-.78.766.362.362,0,0,0,.134.253c.439.085.589-.29.929-.471S321.878,425.073,322.017,424.6Z"/>
    <g id="Grupo_279" data-name="Grupo 279">
      <path id="Caminho_731" data-name="Caminho 731" class="cls-12" d="M318.8,420.987c.082-1.005.131-2.005.131-2.005.354-.274.709-.54,1.064-.8l.12-.09,0,0c3.879-2.871,7.6-5.059,7.6-5.059,3.588,6.15,6.613,12.4,6.613,12.4-4.3.42-10.117,3.478-10.117,3.478a53.522,53.522,0,0,0-4.434-8.588c.01.138.021.223.021.223Z"/>
      <path id="Caminho_732" data-name="Caminho 732" class="cls-13" d="M319.3,419.408a3.57,3.57,0,0,0,.1,1.387c.835,1.661,3.312,5.482,4.474,8.747,0,0,5.831-1.548,9.971-2.294a1.453,1.453,0,0,0,.321-1.073s-3.1-5.354-6.66-11.987A64.389,64.389,0,0,0,319.3,419.408Z"/>
      <path id="Caminho_733" data-name="Caminho 733" class="cls-13" d="M327.5,414.188s.169,1.468.286,2.084l6.053,10.976a1.66,1.66,0,0,0,.321-1.073S331.322,420.821,327.5,414.188Z"/>
      <path id="Caminho_734" data-name="Caminho 734" class="cls-11" d="M318.8,420.987a61.7,61.7,0,0,1,5.274,9.923s5.464-2.005,10.117-3.478a108.888,108.888,0,0,1-6.485-11.876A30.661,30.661,0,0,0,318.8,420.987Z"/>
    </g>
    <path id="Caminho_735" data-name="Caminho 735" class="cls-1" d="M322.017,424.6a.12.12,0,0,0-.11-.154,2.815,2.815,0,0,0-1.139.105,2.555,2.555,0,0,0-.78.766.362.362,0,0,0,.134.253c.439.085.589-.29.929-.471S321.878,425.073,322.017,424.6Z"/>
  </g>
</svg>
