<svg width="87" height="129"
  xmlns="http://www.w3.org/2000/svg" data-name="Camada 1" fill="#ff8c00">

  <g>
    <path id="svg_1" d="m39.33,73.73319l0,0.48l-0.69,0l0.69,-0.48z"/>
    <rect id="svg_2" height="1.64" width="9.07" y="91.58319" x="30.26"/>
    <rect id="svg_3" height="4.59" width="8.38" y="78.63319" x="20.95"/>
    <path id="svg_4" d="m42.06,71.19319l0,3l-3.42,0l0.69,-0.48a18.3,18.3 0 0 0 2.73,-2.52z"/>
    <rect id="svg_5" height="4.59" width="13.84" y="70.58319" x="18.22"/>
    <path id="svg_6" d="m50.28,25.14319a25.14,25.14 0 1 0 -39.73,20.47a7.73,7.73 0 0 1 3.28,6.29l0,7.65a7.68,7.68 0 0 0 7.68,7.68l7.26,0a7.67,7.67 0 0 0 7.67,-7.68l0,-7.65a7.73,7.73 0 0 1 3.26,-6.28a25.09,25.09 0 0 0 10.58,-20.48z"/>
    <path id="svg_7" d="m85.78,68.21319a1.59,1.59 0 0 0 -0.8,-1.5c-7.08,-4.86 -14.14,-9.76 -21.23,-14.57a1,1 0 0 1 -0.47,-1.53c1,-2.8 2,-5.61 3,-8.41c0.08,-0.25 0.15,-0.49 0.23,-0.79l-10.23,0a35.17,35.17 0 0 1 -9.82,11.67l0,4.13c4.2,0 8.39,0 12.59,0l1.23,0l0,4.46l-14,0a17.65,17.65 0 0 1 -4.26,9.51a18.3,18.3 0 0 1 -2.73,2.54l-0.69,0.48l36.09,0l0,4.4l-32.63,0l0,6.54l-2.73,0l0,6.4l35.37,0l0,4.43l-44.42,0l0,-2.79l-8.75,0l0,35.96l64.24,0l0,-1q0,-30 0.01,-59.93zm-11.09,46.86l-44.41,0l0,-4.41l44.43,0l-0.02,4.41z"/>
    <path id="svg_8" d="m72.92,40.54319l-2.93,8.39l17.11,11.82l0.15,-0.16c-4.74,-6.63 -9.48,-13.25 -14.33,-20.05z"/>
  </g>
</svg>
