<svg xmlns="http://www.w3.org/2000/svg" width="115.087" height="69.873" viewBox="0 0 115.087 69.873">
  <g id="EQUIPE" transform="translate(-59.7 -237.38)">
    <path id="Path_1059" data-name="Path 1059" d="M327.013,564.318a7.644,7.644,0,0,1,5.637,2.672,11.179,11.179,0,0,1,2.767,7.54v1.625H295.692v-1.62a11.167,11.167,0,0,1,2.767-7.54,7.617,7.617,0,0,1,5.64-2.672,13.266,13.266,0,0,1,1.356.431,28.8,28.8,0,0,0,20.207,0,12.92,12.92,0,0,1,1.351-.431m0-8.778c-3.669,0-5.433,2.262-11.45,2.262s-7.783-2.267-11.458-2.267c-9.487,0-17.185,8.508-17.185,18.995v3.618c0,3.745,2.749,6.785,6.137,6.785h45c3.388,0,6.137-3.039,6.137-6.785v-3.618c0-10.487-7.7-18.995-17.185-18.995Z" transform="translate(-198.314 -277.685)" fill="#155bcb"/>
    <path id="Path_1060" data-name="Path 1060" d="M392.917,246.158a8.58,8.58,0,1,1-8.58,8.58,8.58,8.58,0,0,1,8.58-8.58m0-8.778a17.358,17.358,0,1,0,17.358,17.358A17.357,17.357,0,0,0,392.917,237.38Z" transform="translate(-275.677)" fill="#155bcb"/>
    <path id="Path_1061" data-name="Path 1061" d="M709.417,554.618c2.206.153,4.057,2.455,4.325,5.294h-8.068a33.014,33.014,0,0,0-.983-3.934,26.072,26.072,0,0,0,4.086-1.145c.2-.071.459-.16.636-.218m-.232-8.786c-2.852,0-4.225,1.758-8.905,1.758s-6.044-1.758-8.905-1.758a12.109,12.109,0,0,0-4.071.7,23.279,23.279,0,0,1,10.156,19.527v2.63h20.319a5.044,5.044,0,0,0,4.771-5.274V560.6c0-8.153-5.979-14.769-13.358-14.769Z" transform="translate(-547.759 -269.21)" fill="#155bcb"/>
    <path id="Path_1062" data-name="Path 1062" d="M696.735,307.258a4.717,4.717,0,1,1-4.717,4.717,4.717,4.717,0,0,1,4.717-4.717m0-8.778a13.5,13.5,0,1,0,13.5,13.5A13.5,13.5,0,0,0,696.735,298.48Z" transform="translate(-544.215 -53.327)" fill="#155bcb"/>
    <path id="Path_1063" data-name="Path 1063" d="M72.826,554.636c.176.057.434.148.636.218A25.968,25.968,0,0,0,77.542,556a33.033,33.033,0,0,0-.978,3.934H68.5c.262-2.84,2.116-5.143,4.325-5.294m18.039-8.788c-2.853,0-4.225,1.758-8.905,1.758s-6.044-1.758-8.905-1.758c-7.379,0-13.358,6.615-13.358,14.769v2.814a5.044,5.044,0,0,0,4.771,5.274H84.783v-2.63a23.275,23.275,0,0,1,10.156-19.527A12.108,12.108,0,0,0,90.868,545.85Z" transform="translate(0 -269.227)" fill="#155bcb"/>
    <path id="Path_1064" data-name="Path 1064" d="M142.1,307.258a4.717,4.717,0,1,1-4.717,4.717,4.717,4.717,0,0,1,4.717-4.717m0-8.778a13.5,13.5,0,1,0,13.5,13.5A13.5,13.5,0,0,0,142.1,298.48Z" transform="translate(-60.135 -53.327)" fill="#155bcb"/>
  </g>
</svg>
