<svg xmlns="http://www.w3.org/2000/svg" width="91.552" height="91.575" viewBox="0 0 91.552 91.575">
  <g id="COMO_PARTICIPAR" data-name="COMO PARTICIPAR" transform="translate(-97.925 -61.9)">
    <g id="Path_1065" data-name="Path 1065" transform="translate(0)" fill="none" stroke-miterlimit="10">
      <path d="M189.477,112.321v1.609a10.979,10.979,0,0,1-1.2,1.935q-14.133,14.874-28.324,29.7a25.153,25.153,0,0,1-13.583,7.4c-3.6.718-7.245.478-10.878.463a21.118,21.118,0,0,1-10.047-2.5q-12.507-6.722-13.082-20.961a63.053,63.053,0,0,0-.806-7.985,37.384,37.384,0,0,0-4.731-12.453q-4.071-7.03-8.113-14.083a4.61,4.61,0,1,1,7.855-4.812c2.089,3.537,4.114,7.113,6.166,10.673l5.843,10.137a1.467,1.467,0,0,0,1.931.815,1.483,1.483,0,0,0,.83-1.929c-.071-.319-.167-.632-.251-.949-2.938-10.98-5.894-21.954-8.787-32.944a6.773,6.773,0,0,1-.1-2.985,5.343,5.343,0,0,1,10.393,0q2.894,10.729,5.747,21.468,1.533,5.735,3.063,11.469c.038.144.088.284.129.427a1.4,1.4,0,0,0,1.59,1.129,1.386,1.386,0,0,0,1.3-1.531c.014-3.1.007-6.2.007-9.3V67.7a5.386,5.386,0,0,1,4.225-5.658,1,1,0,0,0,.223-.138h1.789c3.479.951,4.55,3.4,4.532,6.446-.079,12.779-.034,25.56-.034,38.342,0,.268-.008.536,0,.8a1.479,1.479,0,0,0,1.231,1.617,1.457,1.457,0,0,0,1.726-1.181c.205-.652.382-1.314.57-1.971q4.852-16.985,9.7-33.968a5.884,5.884,0,0,1,2.258-3.428,5.371,5.371,0,0,1,8.176,6.025q-4.192,15.723-8.406,31.453A36.251,36.251,0,0,0,158.949,112c-.251,2.808-.065,5.654-.054,8.485a2.993,2.993,0,0,0,.123.789,4.341,4.341,0,0,0,3.351,3.234,4.237,4.237,0,0,0,4.425-1.437q3.852-4.406,7.648-8.862a14.4,14.4,0,0,1,8.789-4.885C186.8,108.714,188.249,109.424,189.477,112.321Z" stroke="none"/>
      <path d="M 139.9779357910156 153.4751129150391 C 138.4833984375 153.4751281738281 136.9872131347656 153.4307403564453 135.4923095703125 153.4244384765625 C 131.9549713134766 153.4099273681641 128.5613098144531 152.6034393310547 125.4456405639648 150.9234313964844 C 117.1079711914062 146.4422607421875 112.7473068237305 139.4554290771484 112.3634719848633 129.9629364013672 C 112.2648086547852 127.2869338989258 111.9956359863281 124.6197662353516 111.5578079223633 121.9779357910156 C 110.7964706420898 117.5384292602539 109.0878067016602 113.4192657470703 106.8269729614258 109.5247650146484 C 104.1129684448242 104.838264465332 101.4086380004883 100.1440963745117 98.71380615234375 95.44193267822266 C 97.57563781738281 93.45926666259766 97.67730712890625 91.53726196289062 98.96714019775391 89.93943023681641 C 101.0268096923828 87.38709259033203 104.8423080444336 87.707275390625 106.568473815918 90.62992858886719 C 108.6578063964844 94.16743469238281 110.6824722290039 97.74276733398438 112.7339706420898 101.3025970458984 C 114.681640625 104.6817626953125 116.6294708251953 108.0607681274414 118.5771408081055 111.4395980834961 C 119.0708084106445 112.2924346923828 119.7451400756836 112.5572967529297 120.5086364746094 112.2544326782227 C 121.2721405029297 111.9517669677734 121.551139831543 111.2857666015625 121.3388061523438 110.3252639770508 C 121.2679748535156 110.0060958862305 121.1714706420898 109.6930999755859 121.0873031616211 109.3759307861328 C 118.1493072509766 98.39643096923828 115.1938018798828 87.42209625244141 112.2998046875 76.43226623535156 C 112.0439682006836 75.45726776123047 112.0088043212891 74.43726348876953 112.197135925293 73.44692993164062 C 112.6888046264648 71.05792999267578 114.8776397705078 69.39243316650391 117.2944717407227 69.3482666015625 C 119.8031997680664 69.30313873291016 121.9021377563477 70.89376068115234 122.5898056030273 73.44593048095703 C 124.5189743041992 80.59876251220703 126.4346389770508 87.75492858886719 128.3366394042969 94.9144287109375 C 129.358642578125 98.73743438720703 130.3798065185547 102.560432434082 131.3998107910156 106.383430480957 C 131.4378051757812 106.527099609375 131.4881439208984 106.6677627563477 131.5291442871094 106.810432434082 C 131.7579650878906 107.6119155883789 132.2925109863281 108.0039520263672 133.1188049316406 107.9392623901367 C 133.9243011474609 107.8704299926758 134.4148101806641 107.3050994873047 134.4189758300781 106.4080963134766 C 134.4333038330078 103.3089294433594 134.4261322021484 100.2097625732422 134.4261322021484 97.10959625244141 C 134.4261322021484 87.30509948730469 134.4261322021484 77.50026702880859 134.4261322021484 67.69509887695312 C 134.4261322021484 64.74876403808594 135.8351440429688 62.87793350219727 138.6511383056641 62.03743362426758 C 138.7309722900391 62.0015983581543 138.8059692382812 61.9554328918457 138.8738098144531 61.89993286132812 L 140.6624755859375 61.89993286132812 C 144.1413116455078 62.85126495361328 145.2127990722656 65.304931640625 145.1943054199219 68.34559631347656 C 145.1153106689453 81.12509918212891 145.1603088378906 93.90576934814453 145.1603088378906 106.6872634887695 C 145.1603088378906 106.9551010131836 145.1521453857422 107.2229309082031 145.1603088378906 107.4907684326172 C 145.1973114013672 108.4267654418945 145.6242980957031 108.9849319458008 146.3917999267578 109.1081008911133 C 147.2283020019531 109.243522644043 147.8286285400391 108.8444366455078 148.1179656982422 107.9269332885742 C 148.3231353759766 107.2752685546875 148.4996337890625 106.6134338378906 148.6874694824219 105.9555969238281 C 151.9221343994141 94.63226318359375 155.1544647216797 83.30960083007812 158.3843078613281 71.98776245117188 C 158.7803039550781 70.59609985351562 159.4309692382812 69.39759826660156 160.6419677734375 68.56009674072266 C 162.4861602783203 67.28559112548828 164.9284973144531 67.2926025390625 166.7653045654297 68.57759857177734 C 168.6659698486328 69.91176605224609 169.4623107910156 72.18376922607422 168.8178100585938 74.58509826660156 C 166.0231323242188 85.06693267822266 163.2211456298828 95.55110168457031 160.4121398925781 106.03759765625 C 159.8824768066406 108.0182647705078 159.1293029785156 109.985595703125 158.9486389160156 112.0020980834961 C 158.6973114013672 114.8097686767578 158.8839721679688 117.6566009521484 158.8943023681641 120.4867630004883 C 158.8999786376953 120.754264831543 158.9412994384766 121.0195999145508 159.0174713134766 121.2759323120117 C 159.5059661865234 123.0010986328125 160.6348114013672 124.0929336547852 162.3679656982422 124.5095977783203 C 164.1269226074219 124.9354019165039 165.6211242675781 124.4069366455078 166.7931365966797 123.0729293823242 C 169.3612976074219 120.1359329223633 171.9108123779297 117.1817626953125 174.4414672851562 114.2104339599609 C 176.7699737548828 111.4941024780273 179.7368011474609 109.9259338378906 183.2299652099609 109.3255996704102 C 186.8033294677734 108.7140884399414 188.2492980957031 109.4240951538086 189.4766387939453 112.3212661743164 L 189.4766387939453 113.9302673339844 C 189.0814666748047 114.5799331665039 188.7889709472656 115.3269348144531 188.2769775390625 115.8657684326172 C 178.8549652099609 125.7817687988281 169.4136352539062 135.6814270019531 159.9533081054688 145.5646057128906 C 156.2219696044922 149.4591064453125 151.6748046875 151.9095916748047 146.3703002929688 152.9615936279297 C 144.2492523193359 153.3843383789062 142.1153411865234 153.4751129150391 139.9779357910156 153.4751129150391 Z" stroke="none" fill="#168821"/>
    </g>
    <g id="Path_1066" data-name="Path 1066" transform="translate(-300.831 -520.837)" fill="none">
      <path d="M433.168,665.568a9.046,9.046,0,0,0,.006.983,1.385,1.385,0,0,0,1.414,1.322,1.425,1.425,0,0,0,1.474-1.271c.029-.205.015-.417.025-.625a21.235,21.235,0,0,1,9.961-17.607,20.064,20.064,0,0,1,8.293-3.095c1.083-.157,1.674-.847,1.549-1.708a1.535,1.535,0,0,0-1.847-1.251A24.492,24.492,0,0,0,433.168,665.568Z" stroke="none"/>
      <path d="M 434.6459350585938 666.8740844726562 C 434.8631286621094 666.8740844726562 435.0446166992188 666.7108764648438 435.068115234375 666.4945068359375 L 435.0718994140625 666.4639892578125 C 435.0813903808594 666.3960571289062 435.08203125 666.2958984375 435.0827026367188 666.1898803710938 C 435.0832214355469 666.112548828125 435.0837707519531 666.0248413085938 435.0879516601562 665.9307861328125 C 435.4562377929688 658.05615234375 438.9580688476562 651.8675537109375 445.49609375 647.5369262695312 C 448.0415649414062 645.8507690429688 450.9689331054688 644.7570190429688 454.1976623535156 644.2860107421875 C 454.4803466796875 644.2449951171875 454.7080688476562 644.14794921875 454.8224182128906 644.0198364257812 C 454.8714904785156 643.96484375 454.9247131347656 643.880126953125 454.9002380371094 643.7117919921875 C 454.847900390625 643.35205078125 454.515625 643.29833984375 454.3222351074219 643.29833984375 C 454.2741394042969 643.29833984375 454.2239685058594 643.3016967773438 454.1724853515625 643.3084716796875 C 448.8940734863281 643.9998779296875 443.94677734375 646.6458129882812 440.2419128417969 650.7587890625 C 436.5214233398438 654.88916015625 434.3641662597656 660.1613159179688 434.1676330566406 665.6040649414062 L 434.1671142578125 665.615966796875 C 434.1534118652344 665.9012451171875 434.1549377441406 666.1898803710938 434.171630859375 666.4741821289062 C 434.1989440917969 666.739013671875 434.3398132324219 666.8695068359375 434.6019287109375 666.8729858398438 L 434.6281127929688 666.8737182617188 C 434.6340942382812 666.8739624023438 434.6400146484375 666.8740844726562 434.6459350585938 666.8740844726562 M 434.6459350585938 667.8740844726562 C 434.6268920898438 667.8740844726562 434.6077575683594 667.8736572265625 434.5885620117188 667.8729248046875 C 433.81689453125 667.8626098632812 433.2452392578125 667.3453979492188 433.1744384765625 666.5511474609375 C 433.154541015625 666.2238159179688 433.1525268554688 665.8956298828125 433.1682739257812 665.5679931640625 C 433.5931396484375 653.8034057617188 442.6669921875 643.8070068359375 454.0426025390625 642.3169555664062 C 454.9935913085938 642.1921997070312 455.7646179199219 642.7069702148438 455.8898315429688 643.56787109375 C 456.0150146484375 644.428955078125 455.4238891601562 645.1185302734375 454.3412475585938 645.275634765625 C 451.3518676757812 645.7117309570312 448.5626220703125 646.705078125 446.04833984375 648.37060546875 C 439.75048828125 652.5421752929688 436.4398803710938 658.4296264648438 436.0868530273438 665.9774780273438 C 436.07763671875 666.185791015625 436.0909423828125 666.397216796875 436.062255859375 666.6024169921875 C 435.9834594726562 667.328369140625 435.3700561523438 667.8740844726562 434.6459350585938 667.8740844726562 Z" stroke="none" fill="#168821"/>
    </g>
  </g>
</svg>
