<svg xmlns="http://www.w3.org/2000/svg" width="84.091" height="63.068" viewBox="0 0 84.091 63.068">
  <path id="envelope" d="M82.5,84.826a.989.989,0,0,1,1.593.772v33.587a7.886,7.886,0,0,1-7.884,7.884H7.884A7.886,7.886,0,0,1,0,119.185V85.614a.982.982,0,0,1,1.593-.772C5.272,87.7,10.15,91.33,26.9,103.5c3.465,2.529,9.312,7.851,15.143,7.818,5.863.049,11.825-5.387,15.159-7.818C73.957,91.33,78.819,87.683,82.5,84.826Zm-40.452,21.22c3.81.066,9.3-4.8,12.055-6.8C75.9,83.43,77.554,82.05,82.58,78.108A3.93,3.93,0,0,0,84.091,75V71.884A7.886,7.886,0,0,0,76.208,64H7.884A7.886,7.886,0,0,0,0,71.884V75a3.954,3.954,0,0,0,1.511,3.1C6.537,82.034,8.2,83.43,29.99,99.246c2.759,2,8.245,6.865,12.055,6.8Z" transform="translate(0 -64)" fill="#e2a300"/>
</svg>
