<svg id="Camada_1" data-name="Camada 1"
  xmlns="http://www.w3.org/2000/svg" viewBox="0 0 150 150">
  <path fill="#0c326f" d="M122.55,26.08a11.37,11.37,0,0,0-9.88,3.62,17.52,17.52,0,0,0-3.6,5.19,19.11,19.11,0,0,0-1.65,5.2,28.64,28.64,0,0,1-1,4.58,8.4,8.4,0,0,1-1.88,3.47q-2.39,2.38-7.15,2.28-3.81-.11-8-4.35A119.75,119.75,0,0,1,77.6,31.82c-.07-.14-.39-.58-.95-1.32s-1.08-1.43-1.54-2.07a7.35,7.35,0,0,1-.74-1.11l-.11-.1q-2.39,2.59-7.73,9.53a112.61,112.61,0,0,1-8.74,10.33,14.17,14.17,0,0,1-6.86,4.05,6.84,6.84,0,0,1-6.65-2.2,11.39,11.39,0,0,1-2.83-4.68,19.21,19.21,0,0,1-1-5,18.33,18.33,0,0,0-1.12-5.14,13.39,13.39,0,0,0-3.17-5,11.33,11.33,0,0,0-9.41-3.68,15.2,15.2,0,0,0-9.45,4.74,17.17,17.17,0,0,0-5.22,10,11.36,11.36,0,0,0,3.63,9.88,17.71,17.71,0,0,0,5.19,3.6,19.24,19.24,0,0,0,5.19,1.64,29.26,29.26,0,0,1,4.58,1,8.38,8.38,0,0,1,3.47,1.88q2.39,2.38,2.28,7.16-.11,3.81-4.34,8A122.43,122.43,0,0,1,17.85,85.12a11.71,11.71,0,0,0-1.33.95c-.74.56-1.43,1.07-2.06,1.53a7.74,7.74,0,0,1-1.12.74l54.25,54.25s.09,0,.16-.05a1,1,0,0,0,.21-.11l.79-.58a19,19,0,0,0,1.67-1.25c.73-.58,1.28-1,1.67-1.24a120.74,120.74,0,0,0,14.25-11.71q4.25-4.25,4.34-8.05c.07-3.18-.69-5.57-2.27-7.15a8.4,8.4,0,0,0-3.47-1.89,31,31,0,0,0-4.58-1,19.4,19.4,0,0,1-5.2-1.64,17.52,17.52,0,0,1-5.19-3.6,11.41,11.41,0,0,1-3.63-9.88,17,17,0,0,1,5.17-10A15.39,15.39,0,0,1,81,79.63a11.32,11.32,0,0,1,9.4,3.68,13.29,13.29,0,0,1,3.18,5,18.28,18.28,0,0,1,1.11,5.14,19.63,19.63,0,0,0,1,5,11.53,11.53,0,0,0,2.83,4.69,6.89,6.89,0,0,0,6.65,2.2,14.15,14.15,0,0,0,6.86-4.06q2.44-2.43,4.93-5.45c1.66-2,3.46-4.29,5.4-6.84s3.46-4.47,4.56-5.77a24.49,24.49,0,0,1,1.69-1.8l-.26-.27a41.22,41.22,0,0,0-6.89-5.3,45.14,45.14,0,0,1-6.94-5.24q-6.57-6.57-.74-12.39a11.44,11.44,0,0,1,4.69-2.84,19.56,19.56,0,0,1,5-1,18.21,18.21,0,0,0,5.14-1.11,13.14,13.14,0,0,0,5-3.18,11.35,11.35,0,0,0,3.69-9.4,15.41,15.41,0,0,0-4.8-9.51A17,17,0,0,0,122.55,26.08Z"/>
</svg>
