<svg id="Camada_1" data-name="Camada 1" xmlns="http://www.w3.org/2000/svg" viewBox="0 0 1024 1024"><defs><style>.cls-1{fill:#db4800;}</style></defs><path class="cls-1" d="M903.07,725.31,867.28,761.1a30.23,30.23,0,0,1-42.86,0L698.34,635a30.32,30.32,0,0,1-8.85-21.5V592.91a261.6,261.6,0,0,1-152,55.46,174.61,174.61,0,0,0-21.72-12.11,167,167,0,0,0-71.2-15.9,182.16,182.16,0,0,0,67.31-73.72q7.76.75,15.73.75A161.86,161.86,0,1,0,396.32,290.81a181.94,181.94,0,0,0-117.1,8C315,196.16,412.7,122.51,527.63,122.51c145.3,0,263,117.73,263,263A261.74,261.74,0,0,1,735,547.39h20.61a30.32,30.32,0,0,1,21.5,8.85L903.19,682.31A30.49,30.49,0,0,1,903.07,725.31Z"/><path class="cls-1" d="M444.51,657.71c-30.43,0-45.07,18.75-95,18.75s-64.46-18.75-95-18.75c-78.67,0-142.5,70.55-142.5,157.52v30c0,31.06,22.8,56.26,50.89,56.26H536.12c28.09,0,50.89-25.2,50.89-56.26v-30C587,728.26,523.18,657.71,444.51,657.71Z"/><circle class="cls-1" cx="349.5" cy="465.99" r="143.94" transform="translate(-227.14 383.62) rotate(-45)"/></svg>
