<svg id="Camada_1" data-name="Camada 1"
  xmlns="http://www.w3.org/2000/svg" fill="#39960c" viewBox="0 0 150 150">
  <path d="M107.51,15.17c-7,.4-21,1.85-29.61,7.13A2,2,0,0,0,77,24V70.65a2,2,0,0,0,3,1.73c8.87-4.47,21.7-5.68,28-6a4,4,0,0,0,3.85-3.93V19.11A4,4,0,0,0,107.51,15.17ZM71.93,22.3C63.31,17,49.34,15.57,42.31,15.17A4,4,0,0,0,38,19.11V62.43a4,4,0,0,0,3.85,3.93c6.35.34,19.18,1.56,28.05,6a2,2,0,0,0,3-1.72V24A1.94,1.94,0,0,0,71.93,22.3Z"/>
  <path d="M46.71,143v-8.06h8v-8H6.17v-16.2H143.83v16.14H95.2v8.09h8V143Z"/>
  <path d="M143.83,104.79H6.17V23.6H34.23v8h-20v65H135.66v-65h-20V23.53h28.18Z"/>
  <path d="M127.6,39.78v48.8H22.28V39.76h12V63.89h.23A7.63,7.63,0,0,0,41.64,70c5.18.27,18.14,1.37,26.63,5.64a5.65,5.65,0,0,0,6.43-.9l.22-.21A5.62,5.62,0,0,0,79,76.2a5.72,5.72,0,0,0,2.57-.61C90.05,71.32,103,70.22,108.18,70a7.63,7.63,0,0,0,7.11-6.06h.24V39.78Z"/>
</svg>
