<?xml version="1.0" encoding="utf-8"?>
<!-- Generator: Adobe Illustrator 18.1.1, SVG Export Plug-In . SVG Version: 6.00 Build 0)  -->
<svg version="1.1" id="Capa_1" xmlns="http://www.w3.org/2000/svg" xmlns:xlink="http://www.w3.org/1999/xlink" x="0px" y="0px"
	 viewBox="0 246.6 673.6 696.4" enable-background="new 0 246.6 673.6 696.4" xml:space="preserve">
<g>
	<path fill="#FFFFFF" d="M589.5,750.1L471.1,631.6l84.5-48.8c6.6-3.8,10.4-11.1,9.9-18.7c-0.5-7.6-5.4-14.2-12.5-17.1L176,396.7
		c-7.4-3-15.8-1.2-21.5,4.4c-5.6,5.6-7.4,14.1-4.4,21.5l150.3,377c2.8,7.1,9.5,11.9,17.1,12.5c7.6,0.6,14.9-3.3,18.7-9.9l48.8-84.5
		l118.5,118.5c3.7,3.7,8.8,5.8,14.1,5.8c5.3,0,10.3-2.1,14.1-5.8l57.8-57.8C597.3,770.5,597.3,757.9,589.5,750.1z"/>
	<path fill="#FFFFFF" d="M87.4,305.8c-7.8-7.8-20.4-7.8-28.2,0s-7.8,20.4,0,28.2l44.2,44.2c3.9,3.9,9,5.8,14.1,5.8
		s10.2-1.9,14.1-5.8c7.8-7.8,7.8-20.4,0-28.2L87.4,305.8z"/>
	<path fill="#FFFFFF" d="M102.4,443.5c0-11-8.9-19.9-19.9-19.9H19.9c-11,0-19.9,8.9-19.9,19.9c0,11,8.9,19.9,19.9,19.9h62.6
		C93.5,463.4,102.4,454.5,102.4,443.5z"/>
	<path fill="#FFFFFF" d="M94.3,504.9l-44.2,44.2c-7.8,7.8-7.8,20.4,0,28.2c3.9,3.9,9,5.8,14.1,5.8c5.1,0,10.2-1.9,14.1-5.8
		l44.2-44.2c7.8-7.8,7.8-20.4,0-28.2S102.1,497.1,94.3,504.9z"/>
	<path fill="#FFFFFF" d="M196.9,349c11,0,19.9-8.9,19.9-19.9v-62.6c0-11-8.9-19.9-19.9-19.9s-19.9,8.9-19.9,19.9v62.6
		C177,340.1,185.9,349,196.9,349z"/>
	<path fill="#FFFFFF" d="M272.4,374.9c5.1,0,10.2-1.9,14.1-5.8l44.2-44.2c7.8-7.8,7.8-20.4,0-28.2c-7.8-7.8-20.4-7.8-28.2,0
		l-44.2,44.2c-7.8,7.8-7.8,20.4,0,28.2C262.2,372.9,267.3,374.9,272.4,374.9z"/>
</g>
</svg>
