<svg width="125" height="143"
  xmlns="http://www.w3.org/2000/svg" xml:space="preserve" version="1.1">

  <g>
    <title>Layer 1</title>
    <path id="svg_1" d="m12.03528,129.94388c-16.28,-16.81 -15.94,-43.94 0.39,-60.67l58.49,-59.8a31.23,31.23 0 0 1 44.81,0a32.49,32.49 0 0 1 0,45.25l-51,52.08a20.82,20.82 0 0 1 -30.11,-0.28a21.6,21.6 0 0 1 0.42,-29.83l40.06,-40.93a4.45,4.45 0 0 1 6.3,0l6.39,6.24a4.45,4.45 0 0 1 0.06,6.3l-40.07,40.88a3.77,3.77 0 0 0 -0.16,5.1a3,3 0 0 0 4.37,0.06l51,-52.11a14.63,14.63 0 0 0 0,-20.3a13.42,13.42 0 0 0 -19.3,0l-58.49,59.83c-9.7,9.93 -9.84,26 -0.33,35.77a23.8,23.8 0 0 0 34.32,0.09l48,-49.07a4.47,4.47 0 0 1 6.3,-0.09l6.38,6.25a4.47,4.47 0 0 1 0.09,6.3l-48,49.07a41.61,41.61 0 0 1 -59.89,-0.14l-0.03,0z"/>
  </g>
</svg>
