<svg xmlns="http://www.w3.org/2000/svg" width="40.117" height="62.404" viewBox="0 0 40.117 62.404">
    <g id="Grupo_19436" data-name="Grupo 19436" transform="translate(-44.221 -202.596)">
        <g id="Grupo_19435" data-name="Grupo 19435" transform="translate(445.901 600.343)">
            <path id="Caminho_1011" data-name="Caminho 1011" d="M-321.179-100.443h-14a2.289,2.289,0,0,0-2.3,2.3v2.38a3.792,3.792,0,0,0,3.219,3.755l.57,2.162a2.691,2.691,0,0,0,2.6,1.995h5.817a2.691,2.691,0,0,0,2.6-1.995l.587-2.162a3.775,3.775,0,0,0,3.2-3.738v-2.38A2.314,2.314,0,0,0-321.179-100.443Z" transform="translate(-53.451 -247.489)" fill="#3c9514" />
            <path id="Caminho_1012" data-name="Caminho 1012" d="M-381.755-397.746a20,20,0,0,0-19.924,20.273,19.973,19.973,0,0,0,5.6,13.689,18.6,18.6,0,0,1,4.96,10.019,3.285,3.285,0,0,0,3.268,2.781h12.45a3.317,3.317,0,0,0,3.284-2.8,18.4,18.4,0,0,1,4.927-9.986,19.958,19.958,0,0,0,5.63-13.923A20.045,20.045,0,0,0-381.755-397.746Zm.134,10.17a9.965,9.965,0,0,0-9.954,9.952,2.263,2.263,0,0,1-2.262,2.262,2.263,2.263,0,0,1-2.262-2.262A14.492,14.492,0,0,1-381.621-392.1a2.263,2.263,0,0,1,2.262,2.262A2.253,2.253,0,0,1-381.621-387.576Z" transform="translate(0 0)" fill="#3c9514" />
        </g>
    </g>
</svg>
