<svg id="Camada_1" data-name="Camada 1" xmlns="http://www.w3.org/2000/svg" viewBox="0 0 160 160"><defs><style>.cls-1{fill:#1351b4;}</style></defs><path class="cls-1" d="M37.14,126.43a10.71,10.71,0,0,0,10.72,10.71h64.28a10.71,10.71,0,0,0,10.72-10.71h0v-75H37.14ZM97.86,69.29a3.57,3.57,0,1,1,7.14,0v50a3.57,3.57,0,1,1-7.14,0Zm-21.43,0a3.57,3.57,0,1,1,7.14,0v50a3.57,3.57,0,1,1-7.14,0ZM55,69.29a3.57,3.57,0,1,1,7.14,0v50a3.57,3.57,0,0,1-7.14,0ZM126.43,30H99.64l-2.1-4.17a5.34,5.34,0,0,0-4.79-3H67.23a5.27,5.27,0,0,0-4.77,3L60.36,30H33.57A3.57,3.57,0,0,0,30,33.57v7.14a3.57,3.57,0,0,0,3.57,3.58h92.86A3.57,3.57,0,0,0,130,40.71V33.57A3.57,3.57,0,0,0,126.43,30Z"/></svg>