<svg xmlns="http://www.w3.org/2000/svg" width="133.599" height="48.099" viewBox="0 0 133.599 48.099">
  <g id="Grupo_264" data-name="Grupo 264" transform="translate(-42.688 -2394.556)">
    <path id="Caminho_571" data-name="Caminho 571" d="M56.985,2424.756c3.174,0,5.7-2.674,5.7-6.668,0-2.888-1.711-6.132-5.7-6.132-3.316,0-5.063,2.923-5.063,6.453C51.922,2422.474,54.311,2424.756,56.985,2424.756Zm14.369,3.85c0,10.626-5.17,14.049-15.617,14.049a29.836,29.836,0,0,1-9.876-1.641l.464-7.059a17.693,17.693,0,0,0,8.735,2.139c5.17,0,7.951-2.425,7.951-7.523v-1.391H62.9a10.108,10.108,0,0,1-8.7,4.422c-7.095.035-11.516-5.349-11.516-13.015,0-7.7,3.637-13.477,11.695-13.477a10.161,10.161,0,0,1,8.806,5.277H63.3v-4.671H71.39l-.036,22.89Z" fill="#fff"/>
    <path id="Caminho_572" data-name="Caminho 572" d="M107.437,2431.6h9.948l9.377-25.743h-8.7l-5.277,18.327h-.107l-5.241-18.327H98.06Z" fill="#fff"/>
    <path id="Caminho_573" data-name="Caminho 573" d="M92.248,2418.73c0-3.851-1.676-7.274-5.776-7.274s-5.776,3.423-5.776,7.274c0,3.815,1.676,7.2,5.776,7.2S92.248,2422.545,92.248,2418.73Zm-20.751,0c0-8.557,6.454-13.478,14.975-13.478s14.975,4.957,14.975,13.478c0,8.486-6.453,13.442-14.975,13.442C77.986,2432.172,71.5,2427.216,71.5,2418.73Z" fill="#fff"/>
    <path id="Caminho_574" data-name="Caminho 574" d="M127.761,2427.965a4.208,4.208,0,1,1-4.208-4.208A4.171,4.171,0,0,1,127.761,2427.965Z" fill="#fff"/>
    <path id="Caminho_575" data-name="Caminho 575" d="M142.878,2412.1c-3.244,0-5.419,2.853-5.419,6.7,0,3.744,2.46,6.561,5.419,6.561,3.352,0,5.384-2.817,5.384-6.917C148.262,2415.058,146.337,2412.1,142.878,2412.1Zm-14.3-17.542h8.949v14.619h.107c2.282-2.853,5.277-3.887,8.842-3.887,7.131,0,11.018,6.775,11.018,12.979,0,7.594-4.1,13.941-11.766,13.941-4.1,0-7.7-2.318-8.843-5.206h-.107v4.6h-8.2v-37.046Z" fill="#fff"/>
    <path id="Caminho_576" data-name="Caminho 576" d="M175.823,2412.99a10.653,10.653,0,0,0-3.03-.286c-4.136,0-6.454,2.995-6.454,8.058v10.875h-8.878v-25.778h8.094v4.742h.107c1.533-3.245,3.744-5.349,7.594-5.349a19.831,19.831,0,0,1,3.031.286Z" fill="#fff"/>
  </g>
</svg>
